<svg width="45" height="43" viewBox="0 0 45 43" fill="none" xmlns="http://www.w3.org/2000/svg">
<path d="M0 17.6407V38.6957C0 39.3216 0.512148 39.8338 1.13811 39.8338H17.0716C17.6976 39.8338 18.2097 39.3216 18.2097 38.6957V17.6407C11.3811 10.243 17.0716 4.55243 17.0716 4.55243V0H1.13811V4.55243C1.13811 4.55243 6.82865 10.243 0 17.6407Z" fill="#E94362"/>
<path d="M15.3644 20.9409H2.84521V33.4601H15.3644V20.9409Z" fill="white"/>
<path d="M31.8102 23.2174C31.5257 23.2174 31.2411 23.2743 31.0135 23.3881C30.6721 22.6483 29.8754 22.0792 28.9649 22.0792C28.0544 22.0792 27.3147 22.5914 26.9163 23.3881C26.8594 23.3312 26.7456 23.3312 26.6887 23.3312V23.2743C26.6887 22.0223 25.6644 20.998 24.4125 20.998C23.1606 20.998 22.1363 22.0223 22.1363 23.2743C22.1363 23.5019 22.1932 23.7295 22.2501 23.9571C22.0225 23.9002 21.7949 23.8433 21.5672 23.8433C20.3153 23.8433 19.291 24.8676 19.291 26.1195C19.291 27.3715 20.3153 28.3957 21.5672 28.3957C22.8191 28.3957 23.8434 27.3715 23.8434 26.1195C23.8434 25.8919 23.7865 25.6643 23.7296 25.4367C23.7865 25.4367 23.7865 25.4367 23.8434 25.4936V25.5505C23.8434 26.8024 24.8677 27.8267 26.1197 27.8267C27.0301 27.8267 27.7699 27.3146 28.1683 26.5179C28.3959 26.6317 28.6804 26.6886 28.9649 26.6886C29.2495 26.6886 29.534 26.6317 29.7616 26.5179C30.103 27.2576 30.8997 27.8267 31.8102 27.8267C33.0621 27.8267 34.0864 26.8024 34.0864 25.5505C34.0864 24.2417 33.0621 23.2174 31.8102 23.2174Z" fill="#FEE333"/>
<path d="M42.1099 16.218C38.8094 19.5185 35.5089 22.819 32.2084 26.1195H8.8772C8.8772 35.3382 16.3318 42.7359 25.4936 42.7359C34.6553 42.7359 42.1099 35.2813 42.1099 26.1195H36.9885C38.9232 24.1847 40.8011 22.2499 42.7359 20.3721C43.305 19.803 43.874 19.2339 44.4431 18.6649C46.0933 17.0715 43.7033 14.6246 42.1099 16.218Z" fill="#79EC77"/>
<path opacity="0.1" d="M17.413 16.6733C11.8932 9.73081 17.1285 4.55243 17.1285 4.55243V0H1.19499V4.55243C1.19499 4.55243 6.88553 10.243 0.0568848 17.6407V20.7705C3.58502 18.9495 7.90983 17.5838 13.0313 17.2423C14.5678 17.1285 16.0473 16.9578 17.413 16.6733Z" fill="white"/>
<path opacity="0.15" d="M25.5505 42.7357C34.6553 42.7357 42.053 35.3949 42.1668 26.29C37.842 30.0458 31.4117 33.6878 22.5345 34.1999C15.3644 34.5982 10.3567 36.8175 6.8855 39.8335H16.218C18.8356 41.6545 22.0792 42.7357 25.5505 42.7357Z" fill="black"/>
</svg>
