<svg width="45" height="31" viewBox="0 0 45 31" fill="none" xmlns="http://www.w3.org/2000/svg">
<path d="M45 25.3745V26.6036C45 28.7446 43.2555 30.489 41.1542 30.489H3.84581C1.70485 30.489 0 28.7446 0 26.6036V25.3745H17.3656V25.8899C17.3656 26.7225 18.0396 27.3569 18.8326 27.3569H26.1674C27 27.3569 27.6344 26.6829 27.6344 25.8899V25.3745H45Z" fill="#FCC335"/>
<path d="M40.2422 2.29956V25.3744H27.6343V25.8899C27.6343 26.7225 26.9603 27.3568 26.1673 27.3568H18.8325C17.9999 27.3568 17.3655 26.6828 17.3655 25.8899V25.3744H4.63867V2.29956C4.63867 1.03084 5.66951 0 6.93823 0H37.9426C39.2114 0 40.2422 1.03084 40.2422 2.29956Z" fill="#FEE333"/>
<path d="M8.76221 3.88574H36.1587V21.3703H8.76221V3.88574Z" fill="white"/>
<path opacity="0.2" d="M22.0044 8.08811C29.8546 7.57269 34.0176 3.96476 36 0H6.81934C5.55061 0 4.51978 1.03084 4.51978 2.29956V17.9604C6.77969 14.7489 12.2114 8.68282 22.0044 8.08811Z" fill="white"/>
<path opacity="0.05" d="M45 26.6033V25.3742H40.3215V16.0967C37.4669 18.0394 33.6607 19.665 28.8237 19.9425C19.229 20.4579 15.1453 25.6517 13.718 30.5284H41.1541C43.2951 30.4888 45 28.7839 45 26.6033Z" fill="black"/>
</svg>
