<svg width="45" height="49" viewBox="0 0 45 49" fill="none" xmlns="http://www.w3.org/2000/svg">
<path d="M20.7583 20.4524C20.7583 19.5699 20.7583 18.7394 20.7063 17.9088C20.6544 16.3515 20.0315 14.7423 19.2529 13.4446C17.9551 11.3682 14.9963 9.759 15.4116 7.0597C15.6711 6.80016 15.8788 6.43679 15.8268 6.02151C15.8268 4.93141 15.8268 3.89321 15.8268 2.80311C15.8268 1.60919 15.1001 0.415267 13.8543 0.10381C13.3871 -9.50647e-06 12.9199 0 12.5046 0C11.155 0 9.80533 0 8.50759 0C8.14422 0 7.78086 0 7.36558 0C5.91211 0.0519096 4.7701 1.14201 4.71819 2.59548C4.66628 3.73749 4.71819 4.82759 4.71819 5.9696C4.71819 6.43679 4.97775 6.90397 5.34111 7.16351C5.34111 7.31924 5.34111 7.42307 5.34111 7.5788C5.34111 7.68262 5.34111 7.73453 5.34111 7.83835C5.34111 7.83835 5.34111 7.83834 5.34111 7.89025C5.34111 7.89025 5.34111 7.94216 5.34111 7.99407C5.08156 9.13608 4.51056 10.0185 3.62809 10.7972C1.81126 12.3545 0.565431 14.327 0.150154 16.7149C-0.109393 18.2722 0.0463289 19.8814 0.0463289 21.4386C0.0463289 27.6678 0.0463289 33.8969 0.0463289 40.178C0.0463289 41.2681 0.0463305 42.3063 0.461607 43.3445C1.70744 46.1995 5.13347 47.0301 7.62513 45.5247C7.93659 45.7323 8.24804 45.8881 8.61141 46.0438C10.0649 46.5629 11.726 46.3553 13.0237 45.4728C15.1001 46.7705 17.9032 46.511 19.5124 44.5384C20.3949 43.4483 20.7063 42.2025 20.7063 40.8528C20.7063 38.465 20.7063 36.0772 20.7063 33.7412C20.7063 30.419 20.7063 27.0449 20.7063 23.7227C20.7063 22.8402 20.7063 22.0096 20.7583 21.1272C20.8102 20.8676 20.8102 20.66 20.7583 20.4524Z" fill="#1479FF"/>
<path d="M2.95325 35.5584C2.95325 30.575 2.95325 25.5917 2.95325 20.6084C7.72893 20.6084 12.4527 20.6084 17.2284 20.6084C17.436 20.6084 17.6437 20.6084 17.8513 20.6084C17.8513 25.6436 17.8513 30.6789 17.8513 35.6622C13.1275 35.6622 8.40375 35.6622 3.67998 35.6622C3.42043 35.6622 3.16089 35.6622 2.95325 35.6622C2.95325 35.6622 2.95325 35.6103 2.95325 35.5584Z" fill="white"/>
<path d="M43.2869 44.7461C43.2869 46.5629 41.8335 48.0164 40.0166 48.0164H13.5946C11.7778 48.0164 10.3243 46.5629 10.3243 44.7461H43.2869Z" fill="#BD2D95"/>
<path d="M39.9647 28.6542H37.8365V26.8374H16.0344V38.3094C16.0344 41.8912 18.9414 44.7981 22.5231 44.7981H31.3997C34.7738 44.7981 37.5769 42.2026 37.8365 38.8285H39.9647C42.7678 38.8285 45 36.4926 45 33.6895C44.9481 30.8864 42.7159 28.6542 39.9647 28.6542ZM39.9128 35.662H37.8365V31.7169H39.9128C41.0029 31.7169 41.8854 32.5994 41.8854 33.6895C41.8854 34.7796 41.0029 35.662 39.9128 35.662Z" fill="#BD2D95"/>
<path opacity="0.1" d="M15.8269 2.7512C15.8269 1.55728 15.1001 0.415267 13.8543 0.10381C13.3871 -9.50647e-06 12.9199 0 12.5046 0C11.155 0 9.80535 0 8.50761 0C8.14424 0 7.78087 0 7.3656 0C5.91213 0.0519096 4.77012 1.14201 4.71821 2.59548C4.6663 3.73749 4.71821 4.82759 4.71821 5.9696C4.71821 6.43679 4.97776 6.90397 5.34113 7.16352C5.34113 7.31924 5.34113 7.42307 5.34113 7.5788C5.34113 7.68262 5.34113 7.73453 5.34113 7.83835C5.34113 7.83835 5.34113 7.83834 5.34113 7.89025C5.34113 7.89025 5.34113 7.94216 5.34113 7.99407C5.08158 9.13608 4.51057 10.0185 3.62811 10.7972C2.74565 11.5758 2.01891 12.4064 1.396 13.3927C9.39007 11.7835 13.6986 7.42306 15.8269 2.7512Z" fill="white"/>
<path opacity="0.1" d="M13.5946 48.0161H40.0166C41.8335 48.0161 43.2869 46.5627 43.2869 44.7458H31.3996C34.7737 44.7458 37.5769 42.1503 37.8364 38.7762H39.9647C42.7678 38.7762 44.9999 36.4403 44.9999 33.6372C44.9999 33.0662 44.8961 32.4952 44.6885 31.9761C43.806 32.7028 42.8716 33.4814 41.8335 34.2082C41.6258 35.0906 40.8472 35.7136 39.9128 35.7136H39.3937C35.9677 37.5823 31.763 39.0358 26.6759 39.2953C18.7337 39.7625 13.6466 42.6175 10.532 46.3031C10.5839 46.3031 10.6358 46.3031 10.6358 46.3031C11.2068 47.3413 12.3488 48.068 13.5946 48.0161ZM19.5642 44.5382C19.6681 44.4344 19.72 44.3306 19.8238 44.1748C20.6543 44.5382 21.5368 44.7458 22.5231 44.7458H19.3566C19.4085 44.6939 19.4604 44.5901 19.5642 44.5382Z" fill="black"/>
</svg>
