<svg width="45" height="39" viewBox="0 0 45 39" fill="none" xmlns="http://www.w3.org/2000/svg">
<g clip-path="url(#clip0_1000_525)">
<path d="M8.25293 28.3639L6.25486 29.7973C5.77707 30.1447 5.08208 30.0579 4.73459 29.5366L0.21722 23.3252C-0.13027 22.8474 -0.0433974 22.1525 0.434402 21.805L2.43247 20.3716C2.91027 20.0241 3.60525 20.111 3.95274 20.6322L8.47012 26.887C8.81761 27.3214 8.73073 28.0164 8.25293 28.3639Z" fill="#A03081"/>
<path d="M27.9295 2.12864L29.9276 0.695248C30.4054 0.347757 31.1004 0.43463 31.4479 0.912429L35.9652 7.16725C36.3127 7.64505 36.2259 8.34003 35.7046 8.68752L33.7066 10.1209C33.2288 10.4684 32.5338 10.3815 32.1863 9.8603L27.7123 3.64891C27.3214 3.17112 27.4517 2.47614 27.9295 2.12864Z" fill="#A03081"/>
<path d="M9.38232 18.8079C9.38232 18.8079 14.5078 12.3793 24.0638 8.16602L26.67 11.7712C26.67 11.7712 20.4151 18.2867 11.8148 22.5434L9.38232 18.8079Z" fill="#CC54AA"/>
<path d="M14.9855 27.2347L10.7722 30.2752C10.2944 30.6227 9.59941 30.5358 9.25192 30.0146L1.25964 19.0686C0.912151 18.5908 0.999024 17.8958 1.52026 17.5484L5.73358 14.5078C6.21138 14.1603 6.90636 14.2472 7.25385 14.7684L15.2027 25.7144C15.5502 26.1922 15.4633 26.8872 14.9855 27.2347Z" fill="#BE4095"/>
<path d="M21.1969 3.25776L25.4103 0.21722C25.8881 -0.13027 26.583 -0.0433974 26.9305 0.434402L34.8794 11.4238C35.2269 11.9016 35.14 12.5966 34.6187 12.9441L30.4054 15.9846C29.9276 16.3321 29.2326 16.2452 28.8852 15.724L20.9363 4.77803C20.5888 4.30023 20.7191 3.60525 21.1969 3.25776Z" fill="#BE4095"/>
<path d="M10.1207 35.1398H7.64487C7.03676 35.1398 6.55896 34.662 6.55896 34.0539V26.3657C6.55896 25.7576 7.03676 25.2798 7.64487 25.2798H10.1207C10.7288 25.2798 11.2066 25.7576 11.2066 26.3657V34.0539C11.2066 34.662 10.7288 35.1398 10.1207 35.1398Z" fill="#FCC335"/>
<path d="M41.4383 25.4971H43.9142C44.5223 25.4971 45.0001 25.9749 45.0001 26.583V34.3146C45.0001 34.9228 44.5223 35.4006 43.9142 35.4006H41.4383C40.8302 35.4006 40.3524 34.9228 40.3524 34.3146V26.583C40.3524 25.9749 40.8737 25.4971 41.4383 25.4971Z" fill="#FCC335"/>
<path d="M16.6796 28.1034C16.6796 28.1034 24.585 25.9316 34.7925 28.1034V32.5774C34.7925 32.5774 25.8881 34.1845 16.4624 32.5774L16.6796 28.1034Z" fill="#F4DA58"/>
<path d="M16.2453 38.1805H11.0329C10.4248 38.1805 9.94702 37.7027 9.94702 37.0946V23.5425C9.94702 22.9343 10.4248 22.4565 11.0329 22.4565H16.2453C16.8534 22.4565 17.3312 22.9343 17.3312 23.5425V37.0946C17.3312 37.7027 16.8534 38.1805 16.2453 38.1805Z" fill="#FEE333"/>
<path d="M35.3573 22.4565H40.5696C41.1777 22.4565 41.6555 22.9343 41.6555 23.5425V37.0946C41.6555 37.7027 41.1777 38.1805 40.5696 38.1805H35.3573C34.7492 38.1805 34.2714 37.7027 34.2714 37.0946V23.5425C34.2714 22.9343 34.7492 22.4565 35.3573 22.4565Z" fill="#FEE333"/>
<path opacity="0.1" d="M29.9276 0.695099L28.1033 2.04163L26.9305 0.434481C26.583 -0.043318 25.8881 -0.173627 25.4103 0.173864L21.1969 3.21441C20.7191 3.5619 20.5888 4.25688 20.9363 4.73468L23.5425 8.33989C20.0242 9.94703 17.1574 11.8582 14.8987 13.5522C17.2442 12.5532 19.9807 11.8148 23.1516 11.6411C29.1024 11.337 33.0551 9.33893 35.6178 6.73275L31.4479 0.912281C31.1004 0.434481 30.4054 0.347609 29.9276 0.695099Z" fill="white"/>
<path opacity="0.1" d="M9.03475 17.2009L7.21042 14.725C6.86293 14.2472 6.16795 14.1169 5.69015 14.4644L1.47683 17.5049C0.999031 17.8524 0.868722 18.5474 1.21621 19.0252L2.21525 20.4152L0.434359 21.8051C-0.0434401 22.1526 -0.173749 22.8476 0.173741 23.3254L1.30309 24.8022L2.95366 24.585C2.95366 24.585 4.82142 20.7192 9.03475 17.2009Z" fill="white"/>
<path opacity="0.15" d="M11.0327 38.1807H16.2451C16.8532 38.1807 17.331 37.7029 17.331 37.0948V33.229C14.1602 34.1846 11.7712 35.7483 10.0771 37.5726C10.2509 37.9636 10.5984 38.1807 11.0327 38.1807Z" fill="black"/>
<path opacity="0.15" d="M22.9778 32.3167C21.4141 32.4036 19.9807 32.5773 18.6776 32.8814C25.888 33.7501 32.4035 32.9248 34.2712 32.6642V37.1381C34.2712 37.7462 34.749 38.224 35.3572 38.224H40.5695C41.1776 38.224 41.6554 37.7462 41.6554 37.1381V35.4007H43.9141C44.5222 35.4007 45 34.9229 45 34.3148V26.5831C45 25.975 44.5222 25.4972 43.9141 25.4972H41.6554V23.5426C41.6554 23.1951 41.4817 22.891 41.2211 22.6738C38.4411 26.279 32.6207 31.752 22.9778 32.3167Z" fill="black"/>
</g>
<defs>
<clipPath id="clip0_1000_525">
<rect width="45" height="38.1805" fill="white"/>
</clipPath>
</defs>
</svg>
