<svg width="64" height="70" viewBox="0 0 64 70" fill="none" xmlns="http://www.w3.org/2000/svg">
<path d="M41.3657 6.82715H21.5617L7.55908 20.8325V40.6364L21.5617 54.6391H41.3657L55.3683 40.6364V20.8325L41.3657 6.82715Z" fill="black"/>
<path fill-rule="evenodd" clip-rule="evenodd" d="M19.7269 2.84814H42.7059L58.9531 19.0953V65.0983L58.9592 66.3013L3.48053 66.5848L3.4802 66.52H3.47708V65.9099L3.47363 65.235L3.47708 65.235V41.7812H3.47978V19.0953L19.7269 2.84814ZM4.82686 41.7947V58.0128L57.6033 57.7424V19.6544L42.1468 4.19792H20.286L4.82956 19.6544V41.7947H4.82686ZM57.6033 59.0922L4.82686 59.3626V65.2281L57.6033 64.9584V59.0922Z" fill="black"/>
<path d="M16.3486 27.8794V22.4668H20.3602V23.3819H17.442V24.5806H20.1577V25.493H17.442V26.967H20.4655V27.8794H16.3486Z" fill="white"/>
<path d="M20.8408 27.8787L22.69 25.0549L21.0136 22.4688H22.2905L23.3757 24.2073L24.4393 22.4688H25.7054L24.0236 25.0954L25.8728 27.8787H24.5554L23.3568 26.0079L22.1528 27.8787H20.8408Z" fill="white"/>
<path d="M29.895 25.8891L30.9532 26.2239C30.7912 26.8151 30.5213 27.2524 30.1433 27.5385C29.7654 27.8247 29.2876 27.9678 28.7045 27.9678C27.9864 27.9678 27.3952 27.7221 26.9335 27.2308C26.4719 26.7395 26.2397 26.07 26.2397 25.2169C26.2397 24.3153 26.4719 23.6161 26.9362 23.1194C27.4006 22.6226 28.0134 22.3716 28.7692 22.3716C29.4306 22.3716 29.9678 22.566 30.3809 22.9574C30.6265 23.1895 30.8101 23.5216 30.9343 23.9535L29.8518 24.2127C29.787 23.9319 29.6547 23.7106 29.4522 23.5486C29.2498 23.3866 29.0014 23.3056 28.7125 23.3056C28.3103 23.3056 27.9864 23.4487 27.7353 23.7376C27.4842 24.0264 27.3601 24.4907 27.3601 25.1359C27.3601 25.8189 27.4842 26.3075 27.7299 26.5964C27.9756 26.8879 28.2968 27.031 28.6883 27.031C28.9798 27.031 29.2282 26.9392 29.4387 26.753C29.6547 26.5748 29.8032 26.2832 29.895 25.8891Z" fill="white"/>
<path d="M31.8926 27.8784V22.4658H35.9041V23.381H32.9859V24.5796H35.7017V25.492H32.9859V26.966H36.0094V27.8784H31.8926Z" fill="white"/>
<path d="M36.6572 26.1161L37.7209 26.0135C37.7856 26.3699 37.9152 26.6317 38.1096 26.7991C38.304 26.9665 38.5685 27.0501 38.9006 27.0501C39.2515 27.0501 39.5188 26.9746 39.6969 26.8261C39.8751 26.6776 39.9642 26.5021 39.9642 26.3051C39.9642 26.1782 39.9264 26.0675 39.8508 25.9784C39.7752 25.8893 39.6456 25.8111 39.4567 25.7436C39.3298 25.7004 39.0382 25.6194 38.582 25.506C37.9962 25.3602 37.5859 25.1821 37.3483 24.9715C37.0163 24.6745 36.8489 24.3101 36.8489 23.8836C36.8489 23.6082 36.9272 23.3491 37.0838 23.1115C37.2403 22.8739 37.4644 22.6877 37.7586 22.5635C38.0529 22.4393 38.4065 22.3745 38.8223 22.3745C39.5026 22.3745 40.0128 22.523 40.3556 22.8199C40.6985 23.1169 40.8793 23.5164 40.8955 24.0131L39.8022 24.0617C39.7563 23.7837 39.6564 23.5839 39.5026 23.4624C39.3487 23.341 39.1192 23.2789 38.8115 23.2789C38.4929 23.2789 38.2446 23.3437 38.0664 23.4732C37.9503 23.5569 37.8936 23.6676 37.8936 23.808C37.8936 23.9349 37.9476 24.0455 38.0556 24.1373C38.1933 24.2534 38.528 24.3749 39.0598 24.4991C39.5916 24.6232 39.9831 24.7555 40.2395 24.8878C40.4933 25.0228 40.6931 25.2064 40.8361 25.4385C40.9792 25.6707 41.0521 25.9595 41.0521 26.2997C41.0521 26.6101 40.9657 26.899 40.793 27.1716C40.6202 27.4416 40.3772 27.6441 40.0614 27.7763C39.7455 27.9086 39.3541 27.9734 38.8844 27.9734C38.2014 27.9734 37.675 27.8141 37.3078 27.4983C36.9461 27.1824 36.7274 26.7235 36.6572 26.1161Z" fill="white"/>
<path d="M41.7539 25.2061C41.7539 24.6554 41.8376 24.1938 42.0023 23.8185C42.1264 23.5432 42.2938 23.2948 42.5071 23.0761C42.7204 22.8575 42.9525 22.6955 43.2063 22.5902C43.5437 22.4471 43.9324 22.377 44.3725 22.377C45.1688 22.377 45.8086 22.6253 46.2865 23.1193C46.7643 23.6134 47.0045 24.3017 47.0045 25.1818C47.0045 26.0565 46.767 26.7394 46.2919 27.2308C45.8167 27.7248 45.1823 27.9704 44.3887 27.9704C43.5842 27.9704 42.9444 27.7248 42.4693 27.2335C41.9942 26.7421 41.7539 26.0673 41.7539 25.2061ZM42.8796 25.1683C42.8796 25.7811 43.02 26.2454 43.3035 26.5613C43.5869 26.8771 43.9459 27.0364 44.3806 27.0364C44.8152 27.0364 45.1742 26.8798 45.4523 26.5667C45.7304 26.2535 45.8707 25.7811 45.8707 25.1548C45.8707 24.5339 45.7358 24.0723 45.4631 23.7672C45.1904 23.4622 44.8314 23.3083 44.3806 23.3083C43.9297 23.3083 43.568 23.4622 43.2927 23.7726C43.0173 24.0804 42.8796 24.5447 42.8796 25.1683Z" fill="white"/>
<path d="M16.9505 35.7476L17.9331 36.0608C17.7819 36.6088 17.5309 37.0164 17.1799 37.2837C16.829 37.5509 16.3836 37.6832 15.8464 37.6832C15.1796 37.6832 14.6316 37.4565 14.2023 37.0002C13.7731 36.544 13.5571 35.9204 13.5571 35.1321C13.5571 34.2953 13.7731 33.6474 14.205 33.183C14.637 32.7214 15.2039 32.4893 15.9084 32.4893C16.5239 32.4893 17.0234 32.6701 17.4067 33.0346C17.6362 33.2478 17.8062 33.5583 17.9196 33.9605L16.9154 34.2008C16.856 33.9416 16.7318 33.7338 16.5428 33.5826C16.3539 33.4314 16.1244 33.3558 15.8545 33.3558C15.4819 33.3558 15.1796 33.4908 14.9474 33.7581C14.7152 34.0253 14.5992 34.4572 14.5992 35.0565C14.5992 35.6909 14.7125 36.1445 14.942 36.4144C15.1715 36.6844 15.4684 36.8194 15.8329 36.8194C16.1028 36.8194 16.335 36.733 16.5293 36.5629C16.7237 36.3928 16.8668 36.1148 16.9505 35.7476Z" fill="white"/>
<path d="M23.3348 37.5966H22.2306L21.7933 36.4547H19.7848L19.3691 37.5966H18.292L20.2492 32.5728H21.3209L23.3348 37.5966ZM21.4667 35.6071L20.7756 33.7444L20.098 35.6098H21.4667V35.6071Z" fill="white"/>
<path d="M23.9019 37.5967V32.6133H24.9169V36.749H27.4383V37.5967H23.9019Z" fill="white"/>
<path d="M27.9536 35.1133C27.9536 34.6003 28.0292 34.1711 28.1831 33.8256C28.2965 33.5691 28.453 33.3396 28.6501 33.1372C28.8472 32.9347 29.0631 32.7835 29.3007 32.6837C29.6138 32.5514 29.9756 32.4839 30.3832 32.4839C31.1229 32.4839 31.7168 32.7133 32.1595 33.1723C32.605 33.6312 32.8263 34.271 32.8263 35.089C32.8263 35.8988 32.605 36.5359 32.1649 36.9922C31.7249 37.4511 31.1337 37.6805 30.3967 37.6805C29.6489 37.6805 29.055 37.4538 28.615 36.9976C28.175 36.5413 27.9536 35.915 27.9536 35.1133ZM29.001 35.0809C29.001 35.6505 29.1333 36.0824 29.3952 36.374C29.657 36.6682 29.9918 36.814 30.3967 36.814C30.8016 36.814 31.1337 36.6682 31.3929 36.3767C31.652 36.0851 31.7816 35.6478 31.7816 35.0647C31.7816 34.4897 31.6547 34.0604 31.4037 33.777C31.1526 33.4935 30.8151 33.3531 30.3967 33.3531C29.9783 33.3531 29.6408 33.4962 29.3844 33.7824C29.1279 34.0685 29.001 34.5032 29.001 35.0809Z" fill="white"/>
<path d="M33.623 37.5966V32.5728H35.7584C36.2956 32.5728 36.6844 32.6186 36.9273 32.7077C37.1703 32.7968 37.3646 32.9588 37.5131 33.1883C37.6589 33.4177 37.7318 33.6823 37.7318 33.9792C37.7318 34.3572 37.6211 34.6676 37.3997 34.9133C37.1784 35.1589 36.8463 35.3128 36.4063 35.3776C36.625 35.5045 36.8058 35.6449 36.9489 35.7987C37.092 35.9526 37.2837 36.2226 37.5266 36.614L38.1394 37.5939H36.9273L36.193 36.5006C35.9339 36.1092 35.7557 35.8635 35.6585 35.7609C35.5613 35.6584 35.4615 35.5909 35.3535 35.5531C35.2455 35.5153 35.0754 35.4964 34.8433 35.4964H34.6381V37.5939H33.623V37.5966ZM34.6381 34.6946H35.3886C35.8745 34.6946 36.1795 34.673 36.301 34.6325C36.4225 34.592 36.517 34.5191 36.5845 34.4193C36.652 34.3194 36.6871 34.1925 36.6871 34.0413C36.6871 33.8712 36.6412 33.7363 36.5521 33.631C36.463 33.5284 36.3334 33.4609 36.1687 33.4339C36.0877 33.4231 35.8394 33.4177 35.4291 33.4177H34.6381V34.6946Z" fill="white"/>
<path d="M38.5415 32.2841L39.0139 31.2583H40.0937L39.1516 32.2841H38.5415ZM38.6576 37.5969V32.573H39.6726V37.5969H38.6576Z" fill="white"/>
<path d="M45.1693 37.5966H44.0651L43.6278 36.4547H41.6193L41.2036 37.5966H40.1265L42.0836 32.5728H43.1554L45.1693 37.5966ZM43.3011 35.6071L42.6101 33.7417L41.9325 35.6071H43.3011Z" fill="white"/>
<path d="M45.4497 35.9607L46.4377 35.8635C46.4971 36.1955 46.6186 36.4385 46.7995 36.5924C46.9804 36.749 47.226 36.8245 47.5338 36.8245C47.8604 36.8245 48.1061 36.7544 48.2734 36.6167C48.4381 36.479 48.5218 36.317 48.5218 36.1308C48.5218 36.012 48.4867 35.9121 48.4165 35.8284C48.3463 35.7447 48.2249 35.6718 48.0521 35.6097C47.9333 35.5693 47.6633 35.4964 47.2395 35.3911C46.6969 35.2561 46.3136 35.0914 46.0949 34.8944C45.7872 34.619 45.6333 34.2816 45.6333 33.882C45.6333 33.6256 45.7062 33.388 45.8519 33.1639C45.9977 32.9426 46.2056 32.7725 46.4782 32.6564C46.7509 32.5403 47.0802 32.481 47.4663 32.481C48.098 32.481 48.5704 32.6186 48.8889 32.8967C49.2075 33.172 49.3749 33.5419 49.3911 34.0035L48.376 34.0494C48.3328 33.7902 48.2384 33.6067 48.0953 33.4933C47.9522 33.3799 47.7389 33.3232 47.4528 33.3232C47.1585 33.3232 46.9264 33.3826 46.7617 33.5041C46.6537 33.5824 46.5997 33.685 46.5997 33.8172C46.5997 33.936 46.651 34.0386 46.7509 34.1223C46.8778 34.2303 47.1882 34.341 47.6822 34.457C48.1763 34.5731 48.5407 34.6946 48.7783 34.8188C49.0158 34.943 49.1994 35.113 49.3344 35.329C49.4694 35.545 49.5341 35.8122 49.5341 36.1281C49.5341 36.4169 49.4532 36.6842 49.2939 36.9379C49.1346 37.189 48.9078 37.3753 48.6163 37.4994C48.3247 37.6209 47.9603 37.683 47.523 37.683C46.8886 37.683 46.4 37.5372 46.0598 37.243C45.7197 36.9514 45.5172 36.5222 45.4497 35.9607Z" fill="white"/>
<path d="M4.75098 62.8424L5.38537 62.783C5.42317 62.9909 5.50145 63.1448 5.61754 63.2447C5.73362 63.3445 5.89289 63.3904 6.08996 63.3904C6.30053 63.3904 6.4571 63.3472 6.56508 63.2582C6.67306 63.1691 6.72436 63.0692 6.72436 62.9531C6.72436 62.8775 6.70276 62.8154 6.65687 62.7614C6.61097 62.7075 6.53269 62.6643 6.42201 62.6238C6.34642 62.5968 6.17095 62.5509 5.90099 62.4861C5.55275 62.3997 5.30709 62.2971 5.16401 62.1729C4.96694 61.9975 4.86706 61.7869 4.86706 61.5358C4.86706 61.3739 4.91295 61.2227 5.00743 61.0823C5.10192 60.9419 5.2342 60.834 5.40967 60.7611C5.58514 60.6882 5.79841 60.6504 6.04407 60.6504C6.449 60.6504 6.75405 60.7368 6.95922 60.9122C7.16439 61.0877 7.27237 61.3199 7.28317 61.6114L6.62987 61.6384C6.60288 61.4765 6.54079 61.3577 6.449 61.2875C6.35722 61.2173 6.21954 61.1795 6.03597 61.1795C5.847 61.1795 5.69852 61.2173 5.59054 61.2929C5.52035 61.3415 5.48796 61.4063 5.48796 61.49C5.48796 61.5655 5.52035 61.6303 5.58514 61.6816C5.66613 61.7491 5.8659 61.8193 6.18444 61.8949C6.50299 61.9678 6.73515 62.0434 6.88903 62.1244C7.04021 62.2026 7.15899 62.3106 7.24537 62.4456C7.33176 62.5806 7.37495 62.7506 7.37495 62.9504C7.37495 63.1313 7.32366 63.3014 7.22108 63.4606C7.11849 63.6199 6.97272 63.736 6.78375 63.8143C6.59478 63.8926 6.36262 63.9304 6.08186 63.9304C5.67423 63.9304 5.36108 63.8386 5.13971 63.6523C4.92645 63.466 4.79417 63.1961 4.75098 62.8424Z" fill="black"/>
<path d="M7.92822 63.8741V60.7021H10.3227V61.2394H8.57882V61.9412H10.2013V62.4757H8.57882V63.3396H10.3848V63.8741H7.92822Z" fill="black"/>
<path d="M13.0035 62.7082L13.6352 62.9053C13.538 63.2508 13.3761 63.5073 13.152 63.6773C12.9252 63.8447 12.6391 63.9284 12.2935 63.9284C11.8643 63.9284 11.5107 63.7853 11.2353 63.4965C10.9599 63.2076 10.8223 62.8162 10.8223 62.3168C10.8223 61.7876 10.9599 61.38 11.238 61.0858C11.5161 60.7915 11.8805 60.6484 12.334 60.6484C12.7282 60.6484 13.0494 60.7618 13.2978 60.9913C13.4435 61.1263 13.5542 61.3206 13.6271 61.5744L12.9819 61.7256C12.9441 61.5609 12.8631 61.4313 12.7417 61.3368C12.6202 61.2423 12.4744 61.1937 12.2989 61.1937C12.0587 61.1937 11.8643 61.2774 11.7158 61.4475C11.5673 61.6176 11.4918 61.8902 11.4918 62.2682C11.4918 62.6704 11.5646 62.9539 11.7131 63.1239C11.8589 63.294 12.0506 63.3804 12.2854 63.3804C12.4582 63.3804 12.6067 63.3264 12.7336 63.2184C12.8604 63.1104 12.9495 62.9404 13.0035 62.7082Z" fill="black"/>
<path d="M14.1997 63.8741V60.7021H15.5711C15.9166 60.7021 16.1677 60.7318 16.3243 60.7885C16.4808 60.8452 16.605 60.9478 16.6995 61.0936C16.794 61.2394 16.8399 61.4067 16.8399 61.593C16.8399 61.8306 16.7697 62.0276 16.6266 62.1815C16.4835 62.3354 16.2703 62.4353 15.9868 62.4758C16.1272 62.5567 16.2433 62.6458 16.3351 62.743C16.4268 62.8402 16.551 63.0103 16.7076 63.2586L17.1017 63.8768H16.3216L15.8491 63.1857C15.6818 62.9401 15.5684 62.7835 15.5063 62.7187C15.4442 62.6539 15.3794 62.6107 15.3092 62.5864C15.239 62.5621 15.1311 62.5513 14.9799 62.5513H14.8476V63.8741H14.1997ZM14.8503 62.0438H15.3335C15.6467 62.0438 15.841 62.0303 15.9193 62.006C15.9976 61.979 16.057 61.9358 16.1029 61.8711C16.1488 61.8063 16.1704 61.728 16.1704 61.6335C16.1704 61.5282 16.1407 61.4418 16.084 61.3743C16.0273 61.3069 15.9436 61.2664 15.8383 61.2502C15.7844 61.2421 15.6278 61.2394 15.3632 61.2394H14.853V62.0438H14.8503Z" fill="black"/>
<path d="M17.4551 63.8741V60.7021H19.8496V61.2394H18.1057V61.9412H19.7281V62.4757H18.1057V63.3396H19.9117V63.8741H17.4551Z" fill="black"/>
<path d="M21.1913 63.8741V61.2394H20.2329V60.7021H22.8002V61.2394H21.8445V63.8741H21.1913Z" fill="black"/>
<path d="M25.7995 63.8741H25.0895L24.8088 63.1533H23.5184L23.2511 63.8741H22.5601L23.8181 60.7021H24.5091L25.7995 63.8741ZM24.5982 62.6188L24.1528 61.4418L23.7155 62.6188H24.5982Z" fill="black"/>
<path d="M26.1479 63.8741V60.7021H27.5193C27.8649 60.7021 28.1159 60.7318 28.2725 60.7885C28.4291 60.8452 28.5533 60.9478 28.6477 61.0936C28.7422 61.2394 28.7881 61.4067 28.7881 61.593C28.7881 61.8306 28.7179 62.0276 28.5749 62.1815C28.4318 62.3354 28.2185 62.4353 27.9351 62.4758C28.0754 62.5567 28.1915 62.6458 28.2833 62.743C28.3751 62.8402 28.4993 63.0103 28.6558 63.2586L29.05 63.8768H28.2698L27.7974 63.1857C27.63 62.9401 27.5166 62.7835 27.4545 62.7187C27.3924 62.6539 27.3277 62.6107 27.2575 62.5864C27.1873 62.5621 27.0793 62.5513 26.9281 62.5513H26.7958V63.8741H26.1479ZM26.8012 62.0438H27.2845C27.5976 62.0438 27.792 62.0303 27.8703 62.006C27.9486 61.979 28.0079 61.9358 28.0538 61.8711C28.0997 61.8063 28.1213 61.728 28.1213 61.6335C28.1213 61.5282 28.0916 61.4418 28.0349 61.3743C27.9783 61.3069 27.8946 61.2664 27.7893 61.2502C27.7353 61.2421 27.5787 61.2394 27.3142 61.2394H26.8039V62.0438H26.8012Z" fill="black"/>
<path d="M29.312 60.5214L29.6171 59.8735H30.3108L29.7061 60.5214H29.312ZM29.3849 63.8743V60.7023H30.0382V63.8743H29.3849Z" fill="black"/>
<path d="M33.5715 63.8741H32.8615L32.5808 63.1533H31.2904L31.0231 63.8741H30.332L31.59 60.7021H32.2784L33.5715 63.8741ZM32.3702 62.6188L31.9248 61.4418L31.4874 62.6188H32.3702Z" fill="black"/>
<path d="M35.0022 60.7021H36.1954C36.4654 60.7021 36.6678 60.721 36.8109 60.7615C36.9999 60.8155 37.1619 60.9127 37.2969 61.0531C37.4318 61.1935 37.5344 61.3635 37.6046 61.566C37.6748 61.7685 37.7099 62.0195 37.7099 62.3165C37.7099 62.5783 37.6775 62.8024 37.61 62.9914C37.529 63.2208 37.4129 63.4098 37.2645 63.5529C37.1511 63.6609 36.9999 63.7445 36.8055 63.8066C36.6624 63.8525 36.4681 63.8741 36.2278 63.8741H34.9995V60.7021H35.0022ZM35.6555 61.2394V63.3396H36.1414C36.3223 63.3396 36.4546 63.3288 36.5356 63.3099C36.6409 63.2829 36.7299 63.2397 36.7974 63.1776C36.8676 63.1155 36.9243 63.013 36.9675 62.8726C37.0107 62.7295 37.035 62.5378 37.035 62.2922C37.035 62.0465 37.0134 61.8576 36.9675 61.728C36.9216 61.5984 36.8622 61.4931 36.7812 61.4202C36.7002 61.3473 36.6004 61.296 36.4789 61.2718C36.3871 61.2502 36.2089 61.2421 35.9444 61.2421H35.6555V61.2394Z" fill="black"/>
<path d="M38.2632 63.8741V60.7021H40.6577V61.2394H38.9138V61.9412H40.5362V62.4757H38.9138V63.3396H40.7171V63.8741H38.2632Z" fill="black"/>
<path d="M42.3613 62.8429L42.9957 62.7835C43.0335 62.9914 43.1118 63.1453 43.2279 63.2452C43.344 63.345 43.5032 63.3909 43.7003 63.3909C43.9109 63.3909 44.0702 63.3478 44.1754 63.2587C44.2807 63.1696 44.3347 63.0697 44.3347 62.9536C44.3347 62.878 44.3131 62.8159 44.2672 62.7619C44.2213 62.708 44.143 62.6648 44.0324 62.6243C43.9568 62.5973 43.7813 62.5514 43.5113 62.4866C43.1604 62.4002 42.9174 62.2976 42.7744 62.1734C42.5773 61.998 42.4774 61.7874 42.4774 61.5363C42.4774 61.3744 42.5233 61.2232 42.6178 61.0828C42.7123 60.9424 42.8446 60.8345 43.02 60.7616C43.1955 60.6887 43.4088 60.6509 43.6544 60.6509C44.0594 60.6509 44.3644 60.7373 44.5696 60.9127C44.7747 61.0882 44.8827 61.3204 44.8935 61.6119L44.2402 61.6389C44.2132 61.4769 44.1511 61.3582 44.0594 61.288C43.9676 61.2178 43.8299 61.18 43.6463 61.18C43.4573 61.18 43.3089 61.2178 43.2009 61.2934C43.1307 61.342 43.0983 61.4068 43.0983 61.4904C43.0983 61.566 43.1307 61.6308 43.1955 61.6821C43.2765 61.7496 43.4762 61.8198 43.7948 61.8954C44.1133 61.9683 44.3455 62.0439 44.4994 62.1248C44.6533 62.2058 44.7693 62.3111 44.8557 62.4461C44.9421 62.5811 44.9853 62.7511 44.9853 62.9509C44.9853 63.1318 44.934 63.3019 44.8314 63.4611C44.7288 63.6204 44.5831 63.7365 44.3941 63.8148C44.2051 63.8931 43.973 63.9309 43.6922 63.9309C43.2846 63.9309 42.9714 63.8391 42.7501 63.6528C42.5341 63.4665 42.4045 63.1966 42.3613 62.8429Z" fill="black"/>
<path d="M48.4514 63.8741H47.7414L47.4607 63.1533H46.1703L45.903 63.8741H45.2119L46.4699 60.7021H47.1583L48.4514 63.8741ZM47.2501 62.6188L46.8047 61.4418L46.3673 62.6188H47.2501Z" fill="black"/>
<path d="M48.813 63.8745V60.7295H49.4663V63.34H51.0887V63.8745H48.813Z" fill="black"/>
<path d="M51.5479 60.7021H52.2011V62.4191C52.2011 62.6917 52.2092 62.8699 52.2254 62.9482C52.2524 63.0777 52.3199 63.183 52.4252 63.2613C52.5305 63.3396 52.6736 63.3801 52.8571 63.3801C53.0434 63.3801 53.1811 63.3423 53.2756 63.2694C53.3701 63.1965 53.4267 63.1047 53.4456 62.9968C53.4645 62.8888 53.4753 62.7079 53.4753 62.4569V60.7021H54.1286V62.3678C54.1286 62.7484 54.1097 63.0184 54.0746 63.1749C54.0395 63.3315 53.9747 63.4638 53.8803 63.5718C53.7858 63.6797 53.6589 63.7661 53.4996 63.8309C53.3404 63.8957 53.1325 63.9281 52.8787 63.9281C52.571 63.9281 52.3361 63.893 52.1768 63.8228C52.0176 63.7526 51.8907 63.6608 51.7989 63.5502C51.7071 63.4395 51.645 63.3207 51.6153 63.1992C51.5721 63.0184 51.5506 62.7484 51.5506 62.3948V60.7021H51.5479Z" fill="black"/>
<path d="M54.8089 60.7021H56.0021C56.272 60.7021 56.4745 60.721 56.6176 60.7615C56.8065 60.8155 56.9685 60.9127 57.1035 61.0531C57.2385 61.1935 57.341 61.3635 57.4112 61.566C57.4814 61.7685 57.5165 62.0195 57.5165 62.3165C57.5165 62.5783 57.4841 62.8024 57.4166 62.9914C57.3356 63.2208 57.2196 63.4098 57.0711 63.5529C56.9577 63.6609 56.8065 63.7445 56.6122 63.8066C56.4691 63.8525 56.2747 63.8741 56.0345 63.8741H54.8062V60.7021H54.8089ZM55.4621 61.2394V63.3396H55.9481C56.1289 63.3396 56.2612 63.3288 56.3422 63.3099C56.4475 63.2829 56.5366 63.2397 56.6041 63.1776C56.6742 63.1155 56.7309 63.013 56.7741 62.8726C56.8173 62.7295 56.8416 62.5378 56.8416 62.2922C56.8416 62.0465 56.82 61.8576 56.7741 61.728C56.7282 61.5984 56.6688 61.4931 56.5879 61.4202C56.5069 61.3473 56.407 61.296 56.2855 61.2718C56.1937 61.2502 56.0156 61.2421 55.751 61.2421H55.4621V61.2394Z" fill="black"/>
</svg>
