<svg width="64" height="70" viewBox="0 0 64 70" fill="none" xmlns="http://www.w3.org/2000/svg">
<path d="M42.31 6.82715H22.506L8.50342 20.8325V40.6364L22.506 54.6391H42.31L56.3126 40.6364V20.8325L42.31 6.82715Z" fill="black"/>
<path fill-rule="evenodd" clip-rule="evenodd" d="M20.6713 2.84814H43.6502L59.8974 19.0953V65.0983L59.9035 66.3013L4.42486 66.5848L4.42453 66.52H4.42142V65.9099L4.41797 65.235L4.42142 65.235V41.7812H4.42412V19.0953L20.6713 2.84814ZM5.7712 41.7947V58.0128L58.5476 57.7424V19.6544L43.0911 4.19792H21.2304L5.7739 19.6544V41.7947H5.7712ZM58.5476 59.0922L5.7712 59.3626V65.2281L58.5476 64.9584V59.0922Z" fill="black"/>
<path d="M17.293 27.8789V22.4663H21.3045V23.3815H18.3863V24.5801H21.102V25.4925H18.3863V26.9665H21.4098V27.8789H17.293Z" fill="white"/>
<path d="M21.7852 27.8782L23.6344 25.0544L21.9579 22.4683H23.2348L24.32 24.2068L25.3837 22.4683H26.6498L24.9679 25.0949L26.8171 27.8782H25.4997L24.3011 26.0074L23.0971 27.8782H21.7852Z" fill="white"/>
<path d="M30.8393 25.8886L31.8975 26.2234C31.7356 26.8146 31.4656 27.2519 31.0877 27.5381C30.7097 27.8242 30.2319 27.9673 29.6488 27.9673C28.9307 27.9673 28.3395 27.7216 27.8779 27.2303C27.4162 26.739 27.1841 26.0695 27.1841 25.2164C27.1841 24.3148 27.4162 23.6156 27.8806 23.1189C28.3449 22.6222 28.9577 22.3711 29.7136 22.3711C30.375 22.3711 30.9122 22.5655 31.3252 22.9569C31.5709 23.1891 31.7544 23.5211 31.8786 23.953L30.7961 24.2122C30.7313 23.9314 30.599 23.7101 30.3966 23.5481C30.1941 23.3861 29.9457 23.3051 29.6569 23.3051C29.2547 23.3051 28.9307 23.4482 28.6796 23.7371C28.4286 24.0259 28.3044 24.4902 28.3044 25.1354C28.3044 25.8184 28.4286 26.3071 28.6742 26.5959C28.9199 26.8875 29.2412 27.0305 29.6326 27.0305C29.9241 27.0305 30.1725 26.9387 30.3831 26.7525C30.599 26.5743 30.7475 26.2828 30.8393 25.8886Z" fill="white"/>
<path d="M32.8369 27.878V22.4653H36.8485V23.3805H33.9302V24.5791H36.646V25.4915H33.9302V26.9655H36.9537V27.878H32.8369Z" fill="white"/>
<path d="M37.6016 26.1156L38.6652 26.013C38.73 26.3694 38.8596 26.6312 39.0539 26.7986C39.2483 26.966 39.5129 27.0497 39.8449 27.0497C40.1958 27.0497 40.4631 26.9741 40.6413 26.8256C40.8194 26.6771 40.9085 26.5017 40.9085 26.3046C40.9085 26.1777 40.8707 26.067 40.7951 25.9779C40.7196 25.8889 40.59 25.8106 40.401 25.7431C40.2741 25.6999 39.9826 25.6189 39.5264 25.5055C38.9405 25.3597 38.5302 25.1816 38.2927 24.971C37.9606 24.674 37.7932 24.3096 37.7932 23.8831C37.7932 23.6077 37.8715 23.3486 38.0281 23.111C38.1847 22.8734 38.4087 22.6872 38.703 22.563C38.9972 22.4388 39.3509 22.374 39.7666 22.374C40.4469 22.374 40.9571 22.5225 41.3 22.8195C41.6428 23.1164 41.8237 23.5159 41.8399 24.0127L40.7466 24.0612C40.7007 23.7832 40.6008 23.5834 40.4469 23.4619C40.293 23.3405 40.0636 23.2784 39.7558 23.2784C39.4373 23.2784 39.1889 23.3432 39.0107 23.4727C38.8947 23.5564 38.838 23.6671 38.838 23.8075C38.838 23.9344 38.892 24.0451 38.9999 24.1368C39.1376 24.2529 39.4724 24.3744 40.0042 24.4986C40.536 24.6228 40.9274 24.755 41.1839 24.8873C41.4376 25.0223 41.6374 25.2059 41.7805 25.438C41.9236 25.6702 41.9965 25.959 41.9965 26.2992C41.9965 26.6096 41.9101 26.8985 41.7373 27.1711C41.5645 27.4411 41.3216 27.6436 41.0057 27.7758C40.6899 27.9081 40.2984 27.9729 39.8287 27.9729C39.1457 27.9729 38.6193 27.8136 38.2522 27.4978C37.8904 27.1819 37.6718 26.723 37.6016 26.1156Z" fill="white"/>
<path d="M42.6982 25.2056C42.6982 24.6549 42.7819 24.1933 42.9466 23.818C43.0708 23.5427 43.2382 23.2943 43.4514 23.0757C43.6647 22.857 43.8968 22.695 44.1506 22.5897C44.488 22.4467 44.8768 22.3765 45.3168 22.3765C46.1132 22.3765 46.753 22.6248 47.2308 23.1188C47.7086 23.6129 47.9489 24.3013 47.9489 25.1813C47.9489 26.056 47.7113 26.739 47.2362 27.2303C46.7611 27.7243 46.1267 27.97 45.333 27.97C44.5285 27.97 43.8887 27.7243 43.4136 27.233C42.9385 26.7417 42.6982 26.0668 42.6982 25.2056ZM43.824 25.1678C43.824 25.7806 43.9643 26.2449 44.2478 26.5608C44.5312 26.8766 44.8903 27.0359 45.3249 27.0359C45.7595 27.0359 46.1186 26.8793 46.3966 26.5662C46.6747 26.253 46.8151 25.7806 46.8151 25.1543C46.8151 24.5334 46.6801 24.0718 46.4074 23.7667C46.1348 23.4617 45.7757 23.3078 45.3249 23.3078C44.8741 23.3078 44.5123 23.4617 44.237 23.7721C43.9616 24.0799 43.824 24.5442 43.824 25.1678Z" fill="white"/>
<path d="M5.6958 62.8424L6.3302 62.783C6.36799 62.9909 6.44628 63.1448 6.56236 63.2447C6.67844 63.3446 6.83771 63.3905 7.03478 63.3905C7.24535 63.3905 7.40192 63.3473 7.50991 63.2582C7.61789 63.1691 7.66918 63.0692 7.66918 62.9531C7.66918 62.8775 7.64758 62.8154 7.60169 62.7615C7.5558 62.7075 7.47751 62.6643 7.36683 62.6238C7.29124 62.5968 7.11577 62.5509 6.84581 62.4861C6.49757 62.3997 6.25191 62.2971 6.10883 62.1729C5.91177 61.9975 5.81188 61.7869 5.81188 61.5358C5.81188 61.3739 5.85777 61.2227 5.95226 61.0823C6.04674 60.9419 6.17902 60.834 6.35449 60.7611C6.52997 60.6882 6.74323 60.6504 6.98889 60.6504C7.39382 60.6504 7.69887 60.7368 7.90404 60.9122C8.10921 61.0877 8.21719 61.3199 8.22799 61.6114L7.57469 61.6384C7.5477 61.4765 7.48561 61.3577 7.39382 61.2875C7.30204 61.2173 7.16436 61.1795 6.98079 61.1795C6.79182 61.1795 6.64335 61.2173 6.53536 61.2929C6.46518 61.3415 6.43278 61.4063 6.43278 61.49C6.43278 61.5655 6.46518 61.6303 6.52997 61.6816C6.61095 61.7491 6.81072 61.8193 7.12927 61.8949C7.44782 61.9678 7.67998 62.0434 7.83385 62.1244C7.98503 62.2026 8.10381 62.3106 8.19019 62.4456C8.27658 62.5806 8.31977 62.7507 8.31977 62.9504C8.31977 63.1313 8.26848 63.3014 8.1659 63.4606C8.06332 63.6199 7.91754 63.736 7.72857 63.8143C7.5396 63.8926 7.30744 63.9304 7.02668 63.9304C6.61905 63.9304 6.3059 63.8386 6.08454 63.6523C5.87127 63.466 5.73899 63.1961 5.6958 62.8424Z" fill="black"/>
<path d="M8.87305 63.8741V60.7021H11.2676V61.2394H9.52364V61.9412H11.1461V62.4758H9.52364V63.3396H11.3296V63.8741H8.87305Z" fill="black"/>
<path d="M13.9483 62.7082L14.58 62.9053C14.4828 63.2508 14.3209 63.5073 14.0968 63.6774C13.87 63.8447 13.5839 63.9284 13.2384 63.9284C12.8091 63.9284 12.4555 63.7853 12.1801 63.4965C11.9048 63.2076 11.7671 62.8162 11.7671 62.3168C11.7671 61.7877 11.9048 61.38 12.1828 61.0858C12.4609 60.7915 12.8253 60.6484 13.2788 60.6484C13.673 60.6484 13.9942 60.7618 14.2426 60.9913C14.3884 61.1263 14.499 61.3206 14.5719 61.5744L13.9267 61.7256C13.8889 61.5609 13.808 61.4313 13.6865 61.3368C13.565 61.2423 13.4192 61.1937 13.2438 61.1937C13.0035 61.1937 12.8091 61.2774 12.6606 61.4475C12.5122 61.6176 12.4366 61.8902 12.4366 62.2682C12.4366 62.6704 12.5095 62.9539 12.6579 63.1239C12.8037 63.294 12.9954 63.3804 13.2303 63.3804C13.403 63.3804 13.5515 63.3264 13.6784 63.2184C13.8053 63.1104 13.8943 62.9404 13.9483 62.7082Z" fill="black"/>
<path d="M15.1445 63.8741V60.7021H16.5159C16.8615 60.7021 17.1125 60.7318 17.2691 60.7885C17.4257 60.8452 17.5498 60.9478 17.6443 61.0936C17.7388 61.2394 17.7847 61.4067 17.7847 61.593C17.7847 61.8306 17.7145 62.0276 17.5714 62.1815C17.4284 62.3354 17.2151 62.4353 16.9316 62.4758C17.072 62.5567 17.1881 62.6458 17.2799 62.743C17.3717 62.8402 17.4959 63.0103 17.6524 63.2586L18.0466 63.8768H17.2664L16.794 63.1857C16.6266 62.9401 16.5132 62.7835 16.4511 62.7187C16.389 62.6539 16.3242 62.6107 16.2541 62.5864C16.1839 62.5621 16.0759 62.5513 15.9247 62.5513H15.7924V63.8741H15.1445ZM15.7951 62.0438H16.2783C16.5915 62.0438 16.7859 62.0303 16.8642 62.006C16.9424 61.979 17.0018 61.9358 17.0477 61.8711C17.0936 61.8063 17.1152 61.728 17.1152 61.6335C17.1152 61.5282 17.0855 61.4418 17.0288 61.3743C16.9721 61.3069 16.8884 61.2664 16.7832 61.2502C16.7292 61.2421 16.5726 61.2394 16.308 61.2394H15.7978V62.0438H15.7951Z" fill="black"/>
<path d="M18.3999 63.8741V60.7021H20.7944V61.2394H19.0505V61.9412H20.6729V62.4758H19.0505V63.3396H20.8565V63.8741H18.3999Z" fill="black"/>
<path d="M22.1361 63.8741V61.2394H21.1777V60.7021H23.745V61.2394H22.7894V63.8741H22.1361Z" fill="black"/>
<path d="M26.7444 63.8741H26.0344L25.7536 63.1533H24.4632L24.196 63.8741H23.5049L24.7629 60.7021H25.454L26.7444 63.8741ZM25.543 62.6188L25.0976 61.4418L24.6603 62.6188H25.543Z" fill="black"/>
<path d="M27.0928 63.8741V60.7021H28.4642C28.8097 60.7021 29.0608 60.7318 29.2173 60.7885C29.3739 60.8452 29.4981 60.9478 29.5926 61.0936C29.6871 61.2394 29.7329 61.4067 29.7329 61.593C29.7329 61.8306 29.6628 62.0276 29.5197 62.1815C29.3766 62.3354 29.1633 62.4353 28.8799 62.4758C29.0203 62.5567 29.1363 62.6458 29.2281 62.743C29.3199 62.8402 29.4441 63.0103 29.6007 63.2586L29.9948 63.8768H29.2146L28.7422 63.1857C28.5748 62.9401 28.4615 62.7835 28.3994 62.7187C28.3373 62.6539 28.2725 62.6107 28.2023 62.5864C28.1321 62.5621 28.0241 62.5513 27.8729 62.5513H27.7407V63.8741H27.0928ZM27.7461 62.0438H28.2293C28.5424 62.0438 28.7368 62.0303 28.8151 62.006C28.8934 61.979 28.9528 61.9358 28.9987 61.8711C29.0446 61.8063 29.0662 61.728 29.0662 61.6335C29.0662 61.5282 29.0365 61.4418 28.9798 61.3743C28.9231 61.3069 28.8394 61.2664 28.7341 61.2502C28.6801 61.2421 28.5235 61.2394 28.259 61.2394H27.7488V62.0438H27.7461Z" fill="black"/>
<path d="M30.2568 60.5214L30.5619 59.8735H31.2557L30.651 60.5214H30.2568ZM30.3297 63.8743V60.7023H30.983V63.8743H30.3297Z" fill="black"/>
<path d="M34.5163 63.8741H33.8063L33.5256 63.1533H32.2352L31.9679 63.8741H31.2769L32.5349 60.7021H33.2232L34.5163 63.8741ZM33.315 62.6188L32.8696 61.4418L32.4323 62.6188H33.315Z" fill="black"/>
<path d="M35.947 60.7021H37.1403C37.4102 60.7021 37.6127 60.721 37.7558 60.7615C37.9447 60.8155 38.1067 60.9127 38.2417 61.0531C38.3767 61.1935 38.4792 61.3635 38.5494 61.566C38.6196 61.7685 38.6547 62.0195 38.6547 62.3165C38.6547 62.5783 38.6223 62.8024 38.5548 62.9914C38.4738 63.2208 38.3578 63.4098 38.2093 63.5529C38.0959 63.6609 37.9447 63.7445 37.7504 63.8066C37.6073 63.8525 37.4129 63.8741 37.1726 63.8741H35.9443V60.7021H35.947ZM36.6003 61.2394V63.3396H37.0863C37.2671 63.3396 37.3994 63.3288 37.4804 63.3099C37.5857 63.2829 37.6748 63.2397 37.7423 63.1776C37.8124 63.1155 37.8691 63.013 37.9123 62.8726C37.9555 62.7295 37.9798 62.5378 37.9798 62.2922C37.9798 62.0465 37.9582 61.8576 37.9123 61.728C37.8664 61.5984 37.807 61.4931 37.7261 61.4202C37.6451 61.3473 37.5452 61.296 37.4237 61.2718C37.3319 61.2502 37.1537 61.2421 36.8892 61.2421H36.6003V61.2394Z" fill="black"/>
<path d="M39.208 63.8741V60.7021H41.6025V61.2394H39.8586V61.9412H41.4811V62.4758H39.8586V63.3396H41.6619V63.8741H39.208Z" fill="black"/>
<path d="M43.3062 62.8429L43.9406 62.7835C43.9783 62.9914 44.0566 63.1453 44.1727 63.2452C44.2888 63.345 44.4481 63.3909 44.6451 63.3909C44.8557 63.3909 45.015 63.3477 45.1203 63.2587C45.2255 63.1696 45.2795 63.0697 45.2795 62.9536C45.2795 62.878 45.2579 62.8159 45.212 62.7619C45.1662 62.7079 45.0879 62.6647 44.9772 62.6243C44.9016 62.5973 44.7261 62.5514 44.4562 62.4866C44.1052 62.4002 43.8623 62.2976 43.7192 62.1734C43.5221 61.998 43.4222 61.7874 43.4222 61.5363C43.4222 61.3744 43.4681 61.2232 43.5626 61.0828C43.6571 60.9424 43.7894 60.8344 43.9648 60.7616C44.1403 60.6887 44.3536 60.6509 44.5992 60.6509C45.0042 60.6509 45.3092 60.7373 45.5144 60.9127C45.7196 61.0882 45.8276 61.3204 45.8383 61.6119L45.1851 61.6389C45.1581 61.4769 45.096 61.3582 45.0042 61.288C44.9124 61.2178 44.7747 61.18 44.5911 61.18C44.4022 61.18 44.2537 61.2178 44.1457 61.2934C44.0755 61.342 44.0431 61.4068 44.0431 61.4904C44.0431 61.566 44.0755 61.6308 44.1403 61.6821C44.2213 61.7496 44.4211 61.8198 44.7396 61.8954C45.0582 61.9683 45.2903 62.0439 45.4442 62.1248C45.5981 62.2058 45.7142 62.3111 45.8006 62.4461C45.8869 62.5811 45.9301 62.7511 45.9301 62.9509C45.9301 63.1318 45.8788 63.3018 45.7763 63.4611C45.6737 63.6204 45.5279 63.7365 45.3389 63.8148C45.15 63.893 44.9178 63.9308 44.637 63.9308C44.2294 63.9308 43.9163 63.8391 43.6949 63.6528C43.4789 63.4665 43.3493 63.1966 43.3062 62.8429Z" fill="black"/>
<path d="M49.3962 63.8741H48.6862L48.4055 63.1533H47.1151L46.8478 63.8741H46.1567L47.4147 60.7021H48.1031L49.3962 63.8741ZM48.1949 62.6188L47.7495 61.4418L47.3122 62.6188H48.1949Z" fill="black"/>
<path d="M49.7578 63.8745V60.7295H50.4111V63.34H52.0335V63.8745H49.7578Z" fill="black"/>
<path d="M52.4927 60.7021H53.146V62.4191C53.146 62.6917 53.1541 62.8699 53.1703 62.9482C53.1973 63.0778 53.2648 63.183 53.37 63.2613C53.4753 63.3396 53.6184 63.3801 53.802 63.3801C53.9882 63.3801 54.1259 63.3423 54.2204 63.2694C54.3149 63.1965 54.3716 63.1048 54.3905 62.9968C54.4094 62.8888 54.4202 62.7079 54.4202 62.4569V60.7021H55.0735V62.3678C55.0735 62.7484 55.0546 63.0184 55.0195 63.1749C54.9844 63.3315 54.9196 63.4638 54.8251 63.5718C54.7306 63.6798 54.6037 63.7661 54.4445 63.8309C54.2852 63.8957 54.0773 63.9281 53.8236 63.9281C53.5158 63.9281 53.281 63.893 53.1217 63.8228C52.9624 63.7526 52.8355 63.6609 52.7437 63.5502C52.652 63.4395 52.5899 63.3207 52.5602 63.1992C52.517 63.0184 52.4954 62.7484 52.4954 62.3948V60.7021H52.4927Z" fill="black"/>
<path d="M55.7537 60.7021H56.9469C57.2168 60.7021 57.4193 60.721 57.5624 60.7615C57.7514 60.8155 57.9133 60.9127 58.0483 61.0531C58.1833 61.1935 58.2859 61.3635 58.3561 61.566C58.4262 61.7685 58.4613 62.0195 58.4613 62.3165C58.4613 62.5783 58.4289 62.8024 58.3615 62.9914C58.2805 63.2208 58.1644 63.4098 58.0159 63.5529C57.9025 63.6609 57.7514 63.7445 57.557 63.8066C57.4139 63.8525 57.2195 63.8741 56.9793 63.8741H55.751V60.7021H55.7537ZM56.407 61.2394V63.3396H56.8929C57.0738 63.3396 57.206 63.3288 57.287 63.3099C57.3923 63.2829 57.4814 63.2397 57.5489 63.1776C57.6191 63.1155 57.6758 63.013 57.719 62.8726C57.7622 62.7295 57.7864 62.5378 57.7864 62.2922C57.7864 62.0465 57.7649 61.8576 57.719 61.728C57.6731 61.5984 57.6137 61.4931 57.5327 61.4202C57.4517 61.3473 57.3518 61.296 57.2303 61.2718C57.1386 61.2502 56.9604 61.2421 56.6958 61.2421H56.407V61.2394Z" fill="black"/>
<path d="M21.353 34.7893L22.3411 34.6921C22.4005 35.0242 22.5219 35.2671 22.7028 35.421C22.8837 35.5749 23.1293 35.6532 23.4371 35.6532C23.7637 35.6532 24.0094 35.583 24.1768 35.4453C24.3414 35.3076 24.4251 35.1456 24.4251 34.9594C24.4251 34.8406 24.39 34.7407 24.3198 34.657C24.2497 34.5733 24.1282 34.5005 23.9554 34.4384C23.8366 34.3979 23.5667 34.325 23.1428 34.2197C22.6002 34.0847 22.2169 33.92 21.9982 33.723C21.6905 33.4476 21.5366 33.1102 21.5366 32.7133C21.5366 32.4569 21.6095 32.2193 21.7553 31.9953C21.901 31.7712 22.1089 31.6038 22.3816 31.485C22.6542 31.3663 22.9836 31.3096 23.3696 31.3096C24.0013 31.3096 24.4737 31.4472 24.7923 31.7253C25.1108 32.0034 25.2782 32.3705 25.2944 32.8321L24.2794 32.878C24.2362 32.6189 24.1417 32.4353 24.0013 32.3219C23.8609 32.2085 23.645 32.1518 23.3588 32.1518C23.0645 32.1518 22.8324 32.2112 22.6677 32.3327C22.5597 32.411 22.5057 32.5136 22.5057 32.6459C22.5057 32.7646 22.557 32.8672 22.6569 32.9509C22.7838 33.0589 23.0942 33.1696 23.5883 33.2856C24.0823 33.4017 24.4467 33.5232 24.6843 33.6474C24.9218 33.7716 25.1054 33.9416 25.2404 34.1576C25.3754 34.3736 25.4402 34.6408 25.4402 34.9567C25.4402 35.2455 25.3592 35.5155 25.1999 35.7665C25.0406 36.0176 24.8139 36.2039 24.5223 36.3281C24.2308 36.4495 23.8663 36.5116 23.429 36.5116C22.7946 36.5116 22.306 36.3658 21.9658 36.0716C21.6203 35.78 21.4178 35.3535 21.353 34.7893Z" fill="white"/>
<path d="M26.0854 33.9443C26.0854 33.4314 26.161 33.0022 26.3149 32.6566C26.4283 32.4002 26.5849 32.1707 26.7819 31.9682C26.979 31.7658 27.195 31.6146 27.4325 31.5147C27.7457 31.3824 28.1074 31.3149 28.5151 31.3149C29.2547 31.3149 29.8486 31.5444 30.2914 32.0033C30.7368 32.4623 30.9582 33.1021 30.9582 33.92C30.9582 34.7299 30.7368 35.367 30.2968 35.8232C29.8567 36.2821 29.2655 36.5116 28.5286 36.5116C27.7808 36.5116 27.1869 36.2848 26.7468 35.8286C26.3041 35.3724 26.0854 34.7434 26.0854 33.9443ZM27.1302 33.9092C27.1302 34.4788 27.2625 34.9108 27.5243 35.2023C27.7862 35.4966 28.1209 35.6423 28.5259 35.6423C28.9308 35.6423 29.2628 35.4966 29.522 35.205C29.7811 34.9135 29.9107 34.4761 29.9107 33.893C29.9107 33.318 29.7838 32.8888 29.5328 32.6053C29.2817 32.3219 28.9443 32.1815 28.5259 32.1815C28.1074 32.1815 27.77 32.3246 27.5135 32.6107C27.2571 32.8969 27.1302 33.3315 27.1302 33.9092Z" fill="white"/>
<path d="M31.7466 31.4014H33.6012C34.0196 31.4014 34.3382 31.4338 34.5568 31.4986C34.8511 31.5849 35.1048 31.7388 35.3154 31.9602C35.526 32.1815 35.6853 32.4542 35.7959 32.7754C35.9066 33.0967 35.9606 33.4935 35.9606 33.9633C35.9606 34.3763 35.9093 34.7326 35.8067 35.0323C35.6799 35.3967 35.5017 35.6937 35.2695 35.9204C35.094 36.0905 34.8565 36.2255 34.5568 36.3227C34.3328 36.3929 34.0331 36.428 33.6579 36.428H31.7493V31.4014H31.7466ZM32.7616 32.2517V35.5803H33.5202C33.8037 35.5803 34.0088 35.5641 34.133 35.5317C34.2977 35.4912 34.4354 35.421 34.5433 35.3238C34.6513 35.2267 34.7404 35.0647 34.8079 34.8379C34.8754 34.6139 34.9105 34.3061 34.9105 33.9174C34.9105 33.5286 34.8754 33.2317 34.8079 33.0238C34.7404 32.8159 34.6432 32.654 34.519 32.5379C34.3949 32.4218 34.2383 32.3435 34.0493 32.3003C33.9062 32.2679 33.6309 32.2517 33.2178 32.2517H32.7616Z" fill="white"/>
<path d="M36.7891 36.4253V31.4014H37.8041V36.4253H36.7891Z" fill="white"/>
<path d="M38.563 33.9443C38.563 33.4314 38.6386 33.0022 38.7924 32.6566C38.9058 32.4002 39.0624 32.1707 39.2595 31.9682C39.4565 31.7658 39.6725 31.6146 39.9101 31.5147C40.2232 31.3824 40.585 31.3149 40.9926 31.3149C41.7323 31.3149 42.3262 31.5444 42.7689 32.0033C43.2143 32.4623 43.4357 33.1021 43.4357 33.92C43.4357 34.7299 43.2143 35.367 42.7743 35.8232C42.3343 36.2821 41.7431 36.5116 41.0061 36.5116C40.2583 36.5116 39.6644 36.2848 39.2244 35.8286C38.7844 35.3724 38.563 34.7434 38.563 33.9443ZM39.6077 33.9092C39.6077 34.4788 39.74 34.9108 40.0019 35.2023C40.2637 35.4966 40.5985 35.6423 41.0034 35.6423C41.4083 35.6423 41.7404 35.4966 41.9995 35.205C42.2587 34.9135 42.3883 34.4761 42.3883 33.893C42.3883 33.318 42.2614 32.8888 42.0103 32.6053C41.7593 32.3219 41.4218 32.1815 41.0034 32.1815C40.585 32.1815 40.2475 32.3246 39.9911 32.6107C39.7373 32.8996 39.6077 33.3315 39.6077 33.9092Z" fill="white"/>
</svg>
