<svg width="65" height="70" viewBox="0 0 65 70" fill="none" xmlns="http://www.w3.org/2000/svg">
<path d="M42.3374 6.82715H22.5334L8.53076 20.8325V40.6364L22.5334 54.6391H42.3374L56.34 40.6364V20.8325L42.3374 6.82715Z" fill="black"/>
<path fill-rule="evenodd" clip-rule="evenodd" d="M20.6986 2.84814H43.6776L59.9247 19.0953V65.0983L59.9309 66.3013L4.45221 66.5848L4.45188 66.52H4.44876V65.9099L4.44531 65.235L4.44876 65.235V41.7812H4.45146V19.0953L20.6986 2.84814ZM5.79854 41.7947V58.0128L58.575 57.7424V19.6544L43.1185 4.19792H21.2577L5.80124 19.6544V41.7947H5.79854ZM58.575 59.0922L5.79854 59.3626V65.2281L58.575 64.9584V59.0922Z" fill="black"/>
<path d="M17.3203 27.8789V22.4663H21.3319V23.3815H18.4136V24.5801H21.1294V25.4925H18.4136V26.9665H21.4371V27.8789H17.3203Z" fill="white"/>
<path d="M21.8125 27.8782L23.6617 25.0544L21.9853 22.4683H23.2622L24.3474 24.2068L25.411 22.4683H26.6771L24.9953 25.0949L26.8445 27.8782H25.5271L24.3285 26.0074L23.1245 27.8782H21.8125Z" fill="white"/>
<path d="M30.8666 25.8886L31.9249 26.2234C31.7629 26.8146 31.4929 27.2519 31.115 27.5381C30.7371 27.8242 30.2592 27.9673 29.6761 27.9673C28.958 27.9673 28.3668 27.7216 27.9052 27.2303C27.4436 26.739 27.2114 26.0695 27.2114 25.2164C27.2114 24.3148 27.4436 23.6156 27.9079 23.1189C28.3722 22.6222 28.985 22.3711 29.7409 22.3711C30.4023 22.3711 30.9395 22.5655 31.3526 22.9569C31.5982 23.1891 31.7818 23.5211 31.906 23.953L30.8234 24.2122C30.7587 23.9314 30.6264 23.7101 30.4239 23.5481C30.2214 23.3861 29.9731 23.3051 29.6842 23.3051C29.282 23.3051 28.958 23.4482 28.707 23.7371C28.4559 24.0259 28.3317 24.4902 28.3317 25.1354C28.3317 25.8184 28.4559 26.3071 28.7016 26.5959C28.9472 26.8875 29.2685 27.0305 29.6599 27.0305C29.9515 27.0305 30.1998 26.9387 30.4104 26.7525C30.6264 26.5743 30.7749 26.2828 30.8666 25.8886Z" fill="white"/>
<path d="M32.8643 27.878V22.4653H36.8758V23.3805H33.9576V24.5791H36.6733V25.4915H33.9576V26.9655H36.9811V27.878H32.8643Z" fill="white"/>
<path d="M37.6289 26.1156L38.6925 26.013C38.7573 26.3694 38.8869 26.6312 39.0813 26.7986C39.2756 26.966 39.5402 27.0497 39.8722 27.0497C40.2232 27.0497 40.4904 26.9741 40.6686 26.8256C40.8468 26.6771 40.9359 26.5017 40.9359 26.3046C40.9359 26.1777 40.8981 26.067 40.8225 25.9779C40.7469 25.8889 40.6173 25.8106 40.4284 25.7431C40.3015 25.6999 40.0099 25.6189 39.5537 25.5055C38.9679 25.3597 38.5576 25.1816 38.32 24.971C37.988 24.674 37.8206 24.3096 37.8206 23.8831C37.8206 23.6077 37.8989 23.3486 38.0554 23.111C38.212 22.8734 38.4361 22.6872 38.7303 22.563C39.0246 22.4388 39.3782 22.374 39.794 22.374C40.4742 22.374 40.9845 22.5225 41.3273 22.8195C41.6702 23.1164 41.851 23.5159 41.8672 24.0127L40.7739 24.0612C40.728 23.7832 40.6281 23.5834 40.4742 23.4619C40.3204 23.3405 40.0909 23.2784 39.7832 23.2784C39.4646 23.2784 39.2163 23.3432 39.0381 23.4727C38.922 23.5564 38.8653 23.6671 38.8653 23.8075C38.8653 23.9344 38.9193 24.0451 39.0273 24.1368C39.165 24.2529 39.4997 24.3744 40.0315 24.4986C40.5633 24.6228 40.9548 24.755 41.2112 24.8873C41.465 25.0223 41.6648 25.2059 41.8078 25.438C41.9509 25.6702 42.0238 25.959 42.0238 26.2992C42.0238 26.6096 41.9374 26.8985 41.7646 27.1711C41.5919 27.4411 41.3489 27.6436 41.0331 27.7758C40.7172 27.9081 40.3258 27.9729 39.856 27.9729C39.1731 27.9729 38.6466 27.8136 38.2795 27.4978C37.9178 27.1819 37.6991 26.723 37.6289 26.1156Z" fill="white"/>
<path d="M42.7256 25.2056C42.7256 24.6549 42.8093 24.1933 42.9739 23.818C43.0981 23.5427 43.2655 23.2943 43.4788 23.0757C43.692 22.857 43.9242 22.695 44.1779 22.5897C44.5154 22.4467 44.9041 22.3765 45.3442 22.3765C46.1405 22.3765 46.7803 22.6248 47.2581 23.1188C47.736 23.6129 47.9762 24.3013 47.9762 25.1813C47.9762 26.056 47.7387 26.739 47.2635 27.2303C46.7884 27.7243 46.154 27.97 45.3604 27.97C44.5559 27.97 43.9161 27.7243 43.441 27.233C42.9658 26.7417 42.7256 26.0668 42.7256 25.2056ZM43.8513 25.1678C43.8513 25.7806 43.9917 26.2449 44.2751 26.5608C44.5586 26.8766 44.9176 27.0359 45.3523 27.0359C45.7869 27.0359 46.1459 26.8793 46.424 26.5662C46.702 26.253 46.8424 25.7806 46.8424 25.1543C46.8424 24.5334 46.7074 24.0718 46.4348 23.7667C46.1621 23.4617 45.8031 23.3078 45.3523 23.3078C44.9014 23.3078 44.5397 23.4617 44.2643 23.7721C43.989 24.0799 43.8513 24.5442 43.8513 25.1678Z" fill="white"/>
<path d="M5.72314 62.8424L6.35754 62.783C6.39534 62.9909 6.47362 63.1448 6.5897 63.2447C6.70578 63.3446 6.86506 63.3905 7.06213 63.3905C7.27269 63.3905 7.42927 63.3473 7.53725 63.2582C7.64523 63.1691 7.69652 63.0692 7.69652 62.9531C7.69652 62.8775 7.67493 62.8154 7.62903 62.7615C7.58314 62.7075 7.50485 62.6643 7.39417 62.6238C7.31859 62.5968 7.14311 62.5509 6.87316 62.4861C6.52491 62.3997 6.27925 62.2971 6.13618 62.1729C5.93911 61.9975 5.83923 61.7869 5.83923 61.5358C5.83923 61.3739 5.88512 61.2227 5.9796 61.0823C6.07409 60.9419 6.20637 60.834 6.38184 60.7611C6.55731 60.6882 6.77057 60.6504 7.01623 60.6504C7.42117 60.6504 7.72622 60.7368 7.93139 60.9122C8.13655 61.0877 8.24453 61.3199 8.25533 61.6114L7.60204 61.6384C7.57504 61.4765 7.51295 61.3577 7.42117 61.2875C7.32938 61.2173 7.19171 61.1795 7.00814 61.1795C6.81917 61.1795 6.67069 61.2173 6.56271 61.2929C6.49252 61.3415 6.46012 61.4063 6.46012 61.49C6.46012 61.5655 6.49252 61.6303 6.55731 61.6816C6.6383 61.7491 6.83806 61.8193 7.15661 61.8949C7.47516 61.9678 7.70732 62.0434 7.8612 62.1244C8.01237 62.2026 8.13115 62.3106 8.21754 62.4456C8.30392 62.5806 8.34712 62.7507 8.34712 62.9504C8.34712 63.1313 8.29583 63.3014 8.19324 63.4606C8.09066 63.6199 7.94488 63.736 7.75591 63.8143C7.56694 63.8926 7.33478 63.9304 7.05403 63.9304C6.64639 63.9304 6.33325 63.8386 6.11188 63.6523C5.89862 63.466 5.76634 63.1961 5.72314 62.8424Z" fill="black"/>
<path d="M8.90039 63.8741V60.7021H11.2949V61.2394H9.55099V61.9412H11.1734V62.4758H9.55099V63.3396H11.357V63.8741H8.90039Z" fill="black"/>
<path d="M13.9757 62.7082L14.6074 62.9053C14.5102 63.2508 14.3482 63.5073 14.1242 63.6774C13.8974 63.8447 13.6112 63.9284 13.2657 63.9284C12.8365 63.9284 12.4828 63.7853 12.2075 63.4965C11.9321 63.2076 11.7944 62.8162 11.7944 62.3168C11.7944 61.7877 11.9321 61.38 12.2102 61.0858C12.4882 60.7915 12.8527 60.6484 13.3062 60.6484C13.7003 60.6484 14.0216 60.7618 14.2699 60.9913C14.4157 61.1263 14.5264 61.3206 14.5993 61.5744L13.9541 61.7256C13.9163 61.5609 13.8353 61.4313 13.7138 61.3368C13.5923 61.2423 13.4466 61.1937 13.2711 61.1937C13.0308 61.1937 12.8365 61.2774 12.688 61.4475C12.5395 61.6176 12.4639 61.8902 12.4639 62.2682C12.4639 62.6704 12.5368 62.9539 12.6853 63.1239C12.8311 63.294 13.0227 63.3804 13.2576 63.3804C13.4304 63.3804 13.5788 63.3264 13.7057 63.2184C13.8326 63.1104 13.9217 62.9404 13.9757 62.7082Z" fill="black"/>
<path d="M15.1719 63.8741V60.7021H16.5433C16.8888 60.7021 17.1399 60.7318 17.2964 60.7885C17.453 60.8452 17.5772 60.9478 17.6717 61.0936C17.7662 61.2394 17.812 61.4067 17.812 61.593C17.812 61.8306 17.7419 62.0276 17.5988 62.1815C17.4557 62.3354 17.2424 62.4353 16.959 62.4758C17.0994 62.5567 17.2154 62.6458 17.3072 62.743C17.399 62.8402 17.5232 63.0103 17.6798 63.2586L18.0739 63.8768H17.2937L16.8213 63.1857C16.6539 62.9401 16.5406 62.7835 16.4785 62.7187C16.4164 62.6539 16.3516 62.6107 16.2814 62.5864C16.2112 62.5621 16.1032 62.5513 15.952 62.5513H15.8198V63.8741H15.1719ZM15.8225 62.0438H16.3057C16.6188 62.0438 16.8132 62.0303 16.8915 62.006C16.9698 61.979 17.0292 61.9358 17.0751 61.8711C17.121 61.8063 17.1426 61.728 17.1426 61.6335C17.1426 61.5282 17.1129 61.4418 17.0562 61.3743C16.9995 61.3069 16.9158 61.2664 16.8105 61.2502C16.7565 61.2421 16.5999 61.2394 16.3354 61.2394H15.8252V62.0438H15.8225Z" fill="black"/>
<path d="M18.4272 63.8741V60.7021H20.8218V61.2394H19.0778V61.9412H20.7003V62.4758H19.0778V63.3396H20.8838V63.8741H18.4272Z" fill="black"/>
<path d="M22.1634 63.8741V61.2394H21.2051V60.7021H23.7724V61.2394H22.8167V63.8741H22.1634Z" fill="black"/>
<path d="M26.7717 63.8741H26.0617L25.781 63.1533H24.4906L24.2233 63.8741H23.5322L24.7902 60.7021H25.4813L26.7717 63.8741ZM25.5704 62.6188L25.125 61.4418L24.6876 62.6188H25.5704Z" fill="black"/>
<path d="M27.1201 63.8741V60.7021H28.4915C28.837 60.7021 29.0881 60.7318 29.2447 60.7885C29.4012 60.8452 29.5254 60.9478 29.6199 61.0936C29.7144 61.2394 29.7603 61.4067 29.7603 61.593C29.7603 61.8306 29.6901 62.0276 29.547 62.1815C29.4039 62.3354 29.1907 62.4353 28.9072 62.4758C29.0476 62.5567 29.1637 62.6458 29.2555 62.743C29.3473 62.8402 29.4714 63.0103 29.628 63.2586L30.0221 63.8768H29.242L28.7695 63.1857C28.6022 62.9401 28.4888 62.7835 28.4267 62.7187C28.3646 62.6539 28.2998 62.6107 28.2296 62.5864C28.1594 62.5621 28.0515 62.5513 27.9003 62.5513H27.768V63.8741H27.1201ZM27.7734 62.0438H28.2566C28.5698 62.0438 28.7641 62.0303 28.8424 62.006C28.9207 61.979 28.9801 61.9358 29.026 61.8711C29.0719 61.8063 29.0935 61.728 29.0935 61.6335C29.0935 61.5282 29.0638 61.4418 29.0071 61.3743C28.9504 61.3069 28.8667 61.2664 28.7615 61.2502C28.7075 61.2421 28.5509 61.2394 28.2863 61.2394H27.7761V62.0438H27.7734Z" fill="black"/>
<path d="M30.2842 60.5214L30.5892 59.8735H31.283L30.6783 60.5214H30.2842ZM30.3571 63.8743V60.7023H31.0104V63.8743H30.3571Z" fill="black"/>
<path d="M34.5437 63.8741H33.8337L33.5529 63.1533H32.2625L31.9953 63.8741H31.3042L32.5622 60.7021H33.2506L34.5437 63.8741ZM33.3424 62.6188L32.8969 61.4418L32.4596 62.6188H33.3424Z" fill="black"/>
<path d="M35.9744 60.7021H37.1676C37.4376 60.7021 37.64 60.721 37.7831 60.7615C37.9721 60.8155 38.134 60.9127 38.269 61.0531C38.404 61.1935 38.5066 61.3635 38.5768 61.566C38.647 61.7685 38.6821 62.0195 38.6821 62.3165C38.6821 62.5783 38.6497 62.8024 38.5822 62.9914C38.5012 63.2208 38.3851 63.4098 38.2366 63.5529C38.1232 63.6609 37.9721 63.7445 37.7777 63.8066C37.6346 63.8525 37.4402 63.8741 37.2 63.8741H35.9717V60.7021H35.9744ZM36.6277 61.2394V63.3396H37.1136C37.2945 63.3396 37.4268 63.3288 37.5077 63.3099C37.613 63.2829 37.7021 63.2397 37.7696 63.1776C37.8398 63.1155 37.8965 63.013 37.9397 62.8726C37.9829 62.7295 38.0072 62.5378 38.0072 62.2922C38.0072 62.0465 37.9856 61.8576 37.9397 61.728C37.8938 61.5984 37.8344 61.4931 37.7534 61.4202C37.6724 61.3473 37.5725 61.296 37.4511 61.2718C37.3593 61.2502 37.1811 61.2421 36.9165 61.2421H36.6277V61.2394Z" fill="black"/>
<path d="M39.2354 63.8741V60.7021H41.6299V61.2394H39.8859V61.9412H41.5084V62.4758H39.8859V63.3396H41.6893V63.8741H39.2354Z" fill="black"/>
<path d="M43.3335 62.8429L43.9679 62.7835C44.0057 62.9914 44.084 63.1453 44.2001 63.2452C44.3161 63.345 44.4754 63.3909 44.6725 63.3909C44.8831 63.3909 45.0423 63.3477 45.1476 63.2587C45.2529 63.1696 45.3069 63.0697 45.3069 62.9536C45.3069 62.878 45.2853 62.8159 45.2394 62.7619C45.1935 62.7079 45.1152 62.6647 45.0045 62.6243C44.9289 62.5973 44.7535 62.5514 44.4835 62.4866C44.1326 62.4002 43.8896 62.2976 43.7465 62.1734C43.5495 61.998 43.4496 61.7874 43.4496 61.5363C43.4496 61.3744 43.4955 61.2232 43.59 61.0828C43.6844 60.9424 43.8167 60.8344 43.9922 60.7616C44.1677 60.6887 44.3809 60.6509 44.6266 60.6509C45.0315 60.6509 45.3366 60.7373 45.5417 60.9127C45.7469 61.0882 45.8549 61.3204 45.8657 61.6119L45.2124 61.6389C45.1854 61.4769 45.1233 61.3582 45.0315 61.288C44.9397 61.2178 44.8021 61.18 44.6185 61.18C44.4295 61.18 44.281 61.2178 44.1731 61.2934C44.1029 61.342 44.0705 61.4068 44.0705 61.4904C44.0705 61.566 44.1029 61.6308 44.1677 61.6821C44.2486 61.7496 44.4484 61.8198 44.767 61.8954C45.0855 61.9683 45.3177 62.0439 45.4716 62.1248C45.6254 62.2058 45.7415 62.3111 45.8279 62.4461C45.9143 62.5811 45.9575 62.7511 45.9575 62.9509C45.9575 63.1318 45.9062 63.3018 45.8036 63.4611C45.701 63.6204 45.5552 63.7365 45.3663 63.8148C45.1773 63.893 44.9451 63.9308 44.6644 63.9308C44.2568 63.9308 43.9436 63.8391 43.7222 63.6528C43.5063 63.4665 43.3767 63.1966 43.3335 62.8429Z" fill="black"/>
<path d="M49.4241 63.8741H48.7141L48.4333 63.1533H47.1429L46.8757 63.8741H46.1846L47.4426 60.7021H48.131L49.4241 63.8741ZM48.2228 62.6188L47.7773 61.4418L47.34 62.6188H48.2228Z" fill="black"/>
<path d="M49.7852 63.8745V60.7295H50.4385V63.34H52.0609V63.8745H49.7852Z" fill="black"/>
<path d="M52.52 60.7021H53.1733V62.4191C53.1733 62.6917 53.1814 62.8699 53.1976 62.9482C53.2246 63.0778 53.2921 63.183 53.3974 63.2613C53.5027 63.3396 53.6457 63.3801 53.8293 63.3801C54.0156 63.3801 54.1533 63.3423 54.2478 63.2694C54.3422 63.1965 54.3989 63.1048 54.4178 62.9968C54.4367 62.8888 54.4475 62.7079 54.4475 62.4569V60.7021H55.1008V62.3678C55.1008 62.7484 55.0819 63.0184 55.0468 63.1749C55.0117 63.3315 54.9469 63.4638 54.8525 63.5718C54.758 63.6798 54.6311 63.7661 54.4718 63.8309C54.3125 63.8957 54.1047 63.9281 53.8509 63.9281C53.5432 63.9281 53.3083 63.893 53.149 63.8228C52.9897 63.7526 52.8629 63.6609 52.7711 63.5502C52.6793 63.4395 52.6172 63.3207 52.5875 63.1992C52.5443 63.0184 52.5227 62.7484 52.5227 62.3948V60.7021H52.52Z" fill="black"/>
<path d="M55.781 60.7021H56.9742C57.2442 60.7021 57.4467 60.721 57.5897 60.7615C57.7787 60.8155 57.9407 60.9127 58.0757 61.0531C58.2106 61.1935 58.3132 61.3635 58.3834 61.566C58.4536 61.7685 58.4887 62.0195 58.4887 62.3165C58.4887 62.5783 58.4563 62.8024 58.3888 62.9914C58.3078 63.2208 58.1917 63.4098 58.0433 63.5529C57.9299 63.6609 57.7787 63.7445 57.5843 63.8066C57.4413 63.8525 57.2469 63.8741 57.0066 63.8741H55.7783V60.7021H55.781ZM56.4343 61.2394V63.3396H56.9202C57.1011 63.3396 57.2334 63.3288 57.3144 63.3099C57.4197 63.2829 57.5087 63.2397 57.5762 63.1776C57.6464 63.1155 57.7031 63.013 57.7463 62.8726C57.7895 62.7295 57.8138 62.5378 57.8138 62.2922C57.8138 62.0465 57.7922 61.8576 57.7463 61.728C57.7004 61.5984 57.641 61.4931 57.56 61.4202C57.479 61.3473 57.3792 61.296 57.2577 61.2718C57.1659 61.2502 56.9877 61.2421 56.7232 61.2421H56.4343V61.2394Z" fill="black"/>
<path d="M19.7582 32.7267V31.879H21.9448V33.8794C21.7315 34.0846 21.4238 34.2654 21.0215 34.422C20.6193 34.5786 20.209 34.6569 19.7959 34.6569C19.2695 34.6569 18.8133 34.5462 18.4219 34.3248C18.0304 34.1035 17.7389 33.7903 17.5418 33.38C17.3447 32.9696 17.2476 32.5242 17.2476 32.041C17.2476 31.5173 17.3582 31.053 17.5769 30.6453C17.7956 30.2377 18.1168 29.9272 18.5406 29.7086C18.8619 29.5412 19.2641 29.4575 19.7447 29.4575C20.3683 29.4575 20.8569 29.5871 21.2051 29.849C21.5561 30.1108 21.7801 30.4726 21.8827 30.9342L20.8758 31.1231C20.8056 30.8775 20.6706 30.6804 20.4762 30.5373C20.2819 30.3943 20.0362 30.3241 19.7447 30.3241C19.3019 30.3241 18.9483 30.4645 18.6864 30.7452C18.4246 31.026 18.295 31.4444 18.295 31.9951C18.295 32.5917 18.4273 33.0398 18.6918 33.3368C18.9564 33.6337 19.3046 33.7849 19.7339 33.7849C19.9471 33.7849 20.1604 33.7444 20.3737 33.6607C20.5869 33.577 20.7705 33.4772 20.9244 33.3584V32.7213H19.7582V32.7267Z" fill="white"/>
<path d="M22.8843 34.5732V29.5493H25.0196C25.5568 29.5493 25.9456 29.5952 26.1912 29.6843C26.4369 29.7734 26.6286 29.9354 26.7743 30.1648C26.9201 30.3943 26.993 30.6588 26.993 30.9558C26.993 31.3337 26.8823 31.6442 26.661 31.8898C26.4396 32.1355 26.1076 32.2894 25.6675 32.3542C25.8862 32.481 26.0671 32.6214 26.2101 32.7753C26.3532 32.9292 26.5449 33.1991 26.7878 33.5906L27.4006 34.5705H26.1885L25.4543 33.4772C25.1951 33.0857 25.0169 32.8401 24.9197 32.7375C24.8226 32.6349 24.7227 32.5674 24.6147 32.5269C24.5067 32.4891 24.3366 32.4702 24.1045 32.4702H23.8993V34.5678H22.8843V34.5732ZM23.8993 31.6739H24.6498C25.1357 31.6739 25.4408 31.6523 25.5622 31.6118C25.6837 31.5713 25.7782 31.4984 25.8457 31.3985C25.9132 31.2986 25.9483 31.1718 25.9483 31.0206C25.9483 30.8505 25.9024 30.7155 25.8133 30.6102C25.7242 30.5077 25.5946 30.4402 25.43 30.4132C25.349 30.4024 25.1006 30.397 24.6903 30.397H23.8993V31.6739Z" fill="white"/>
<path d="M32.4813 34.5732H31.3771L30.9398 33.4313H28.9313L28.5156 34.5732H27.4385L29.3957 29.5493H30.4674L32.4813 34.5732ZM30.6132 32.5863L29.9221 30.7209L29.2445 32.5863H30.6132Z" fill="white"/>
<path d="M32.7617 32.9402L33.7498 32.843C33.8091 33.175 33.9306 33.418 34.1115 33.5719C34.2924 33.7284 34.538 33.804 34.8458 33.804C35.1724 33.804 35.4181 33.7338 35.5854 33.5962C35.7501 33.4585 35.8338 33.2965 35.8338 33.1103C35.8338 32.9915 35.7987 32.8916 35.7285 32.8079C35.6583 32.7242 35.5369 32.6513 35.3641 32.5892C35.2453 32.5487 34.9753 32.4759 34.5515 32.3706C34.0089 32.2356 33.6256 32.0709 33.4069 31.8739C33.0992 31.5985 32.9453 31.2611 32.9453 30.8615C32.9453 30.6051 33.0182 30.3675 33.164 30.1434C33.3097 29.9194 33.5176 29.752 33.7902 29.6359C34.0629 29.5198 34.3922 29.4604 34.7783 29.4604C35.41 29.4604 35.8824 29.5981 36.2036 29.8762C36.5222 30.1515 36.6896 30.5214 36.7058 30.983L35.6907 31.0289C35.6475 30.7697 35.5531 30.5862 35.41 30.4728C35.2669 30.3594 35.0536 30.3027 34.7675 30.3027C34.4732 30.3027 34.2411 30.3621 34.0764 30.4836C33.9684 30.5619 33.9144 30.6645 33.9144 30.7967C33.9144 30.9155 33.9657 31.0181 34.0656 31.1018C34.1925 31.2098 34.5029 31.3204 34.9969 31.4365C35.491 31.5526 35.8554 31.6741 36.093 31.7983C36.3305 31.9224 36.5141 32.0925 36.6491 32.3085C36.7814 32.5244 36.8488 32.7917 36.8488 33.1076C36.8488 33.3964 36.7679 33.6664 36.6086 33.9174C36.4493 34.1685 36.2225 34.3547 35.931 34.4789C35.6394 34.6004 35.275 34.6625 34.8377 34.6625C34.2033 34.6625 33.7147 34.5167 33.3745 34.2225C33.0317 33.9309 32.8292 33.5017 32.7617 32.9402Z" fill="white"/>
<path d="M42.2317 34.5732H41.1276L40.6903 33.4313H38.6818L38.2661 34.5732H37.189L39.1461 29.5493H40.2179L42.2317 34.5732ZM40.3636 32.5863L39.6726 30.7209L38.995 32.5863H40.3636Z" fill="white"/>
<path d="M42.5127 32.9402L43.5007 32.843C43.5601 33.175 43.6816 33.418 43.8625 33.5719C44.0433 33.7284 44.289 33.804 44.5968 33.804C44.9234 33.804 45.1691 33.7338 45.3364 33.5962C45.5011 33.4585 45.5848 33.2965 45.5848 33.1103C45.5848 32.9915 45.5497 32.8916 45.4795 32.8079C45.4093 32.7242 45.2878 32.6513 45.1151 32.5892C44.9963 32.5487 44.7263 32.4759 44.3025 32.3706C43.7599 32.2356 43.3766 32.0709 43.1579 31.8739C42.8501 31.5985 42.6963 31.2611 42.6963 30.8615C42.6963 30.6051 42.7692 30.3675 42.9149 30.1434C43.0607 29.9194 43.2686 29.752 43.5412 29.6359C43.8139 29.5198 44.1432 29.4604 44.5293 29.4604C45.161 29.4604 45.6334 29.5981 45.9546 29.8762C46.2732 30.1515 46.4406 30.5214 46.4568 30.983L45.4417 31.0289C45.3985 30.7697 45.304 30.5862 45.161 30.4728C45.0179 30.3594 44.8046 30.3027 44.5185 30.3027C44.2242 30.3027 43.9921 30.3621 43.8274 30.4836C43.7194 30.5619 43.6654 30.6645 43.6654 30.7967C43.6654 30.9155 43.7167 31.0181 43.8166 31.1018C43.9435 31.2098 44.2539 31.3204 44.7479 31.4365C45.242 31.5526 45.6064 31.6741 45.844 31.7983C46.0815 31.9224 46.2651 32.0925 46.4001 32.3085C46.5323 32.5244 46.5998 32.7917 46.5998 33.1076C46.5998 33.3964 46.5188 33.6664 46.3596 33.9174C46.2003 34.1685 45.9735 34.3547 45.682 34.4789C45.3904 34.6004 45.026 34.6625 44.5887 34.6625C43.9543 34.6625 43.4656 34.5167 43.1255 34.2225C42.7826 33.9309 42.5775 33.5017 42.5127 32.9402Z" fill="white"/>
<path d="M11.2437 40.01L12.2317 39.9128C12.2911 40.2449 12.4126 40.4878 12.5934 40.6417C12.7743 40.7956 13.02 40.8739 13.3277 40.8739C13.6544 40.8739 13.9 40.8037 14.0674 40.666C14.2321 40.5283 14.3158 40.3664 14.3158 40.1801C14.3158 40.0613 14.2807 39.9614 14.2105 39.8777C14.1403 39.7941 14.0188 39.7212 13.846 39.6591C13.7272 39.6186 13.4573 39.5457 13.0335 39.4404C12.4908 39.3054 12.1075 39.1408 11.8888 38.9437C11.5811 38.6683 11.4272 38.3309 11.4272 37.9313C11.4272 37.6749 11.5001 37.4373 11.6459 37.2133C11.7917 36.9919 11.9995 36.8218 12.2722 36.7057C12.5448 36.5897 12.8742 36.5303 13.2602 36.5303C13.8919 36.5303 14.3643 36.6679 14.6829 36.946C15.0014 37.2241 15.1688 37.5912 15.185 38.0528L14.17 38.0987C14.1268 37.8396 14.0323 37.656 13.8919 37.5426C13.7488 37.4292 13.5356 37.3725 13.2494 37.3725C12.9552 37.3725 12.723 37.4319 12.5583 37.5534C12.4504 37.6317 12.3964 37.7343 12.3964 37.8666C12.3964 37.9853 12.4477 38.0879 12.5475 38.1716C12.6744 38.2796 12.9849 38.3903 13.4789 38.5064C13.9729 38.6224 14.3373 38.7439 14.5749 38.8681C14.8125 38.9923 14.996 39.1624 15.131 39.3783C15.266 39.5943 15.3308 39.8615 15.3308 40.1774C15.3308 40.4663 15.2498 40.7362 15.0905 40.9873C14.9313 41.2383 14.7045 41.4246 14.4129 41.5488C14.1214 41.6703 13.7569 41.7323 13.3196 41.7323C12.6852 41.7323 12.1966 41.5866 11.8565 41.2923C11.5136 41.0008 11.3111 40.5715 11.2437 40.01Z" fill="white"/>
<path d="M20.7137 41.646H19.6096L19.1722 40.504H17.1638L16.748 41.646H15.6709L17.6281 36.6221H18.6998L20.7137 41.646ZM18.8456 39.6564L18.1545 37.7937L17.4769 39.6591H18.8456V39.6564Z" fill="white"/>
<path d="M21.8613 41.6457V37.4695H20.3711V36.6191H24.3638V37.4695H22.8763V41.643H21.8613V41.6457Z" fill="white"/>
<path d="M25.0112 36.6194H26.0263V39.3406C26.0263 39.7725 26.0398 40.0532 26.0641 40.1801C26.1073 40.3853 26.2098 40.55 26.3745 40.6741C26.5365 40.7983 26.7605 40.8604 27.044 40.8604C27.3329 40.8604 27.5488 40.801 27.6946 40.6849C27.8404 40.5662 27.9295 40.4231 27.9592 40.2503C27.9889 40.0775 28.005 39.7941 28.005 39.3972V36.6167H29.0201V39.2569C29.0201 39.8589 28.9931 40.2854 28.9391 40.5365C28.8851 40.7875 28.7825 40.9954 28.6367 41.1682C28.491 41.3409 28.2912 41.4759 28.0455 41.5785C27.7999 41.6811 27.4759 41.7324 27.0791 41.7324C26.5986 41.7324 26.2368 41.6757 25.9885 41.565C25.7401 41.4543 25.5457 41.3112 25.4 41.1331C25.2569 40.9549 25.1624 40.7713 25.1165 40.5769C25.049 40.2881 25.0166 39.8643 25.0166 39.3028V36.6194H25.0112Z" fill="white"/>
<path d="M30.0894 41.646V36.6221H32.2247C32.7619 36.6221 33.1507 36.668 33.3936 36.757C33.6366 36.8461 33.831 37.0081 33.9794 37.2376C34.1252 37.467 34.1981 37.7316 34.1981 38.0285C34.1981 38.4065 34.0874 38.7169 33.866 38.9626C33.6447 39.2083 33.3126 39.3621 32.8726 39.4269C33.0913 39.5538 33.2721 39.6942 33.4152 39.8481C33.5583 40.0019 33.75 40.2719 33.9929 40.6633L34.6057 41.6433H33.3936L32.6593 40.5499C32.4002 40.1585 32.222 39.9128 32.1248 39.8103C32.0276 39.7077 31.9278 39.6402 31.8198 39.5997C31.7118 39.5619 31.5417 39.543 31.3096 39.543H31.1044V41.6406H30.0894V41.646ZM31.1044 38.7439H31.8549C32.3408 38.7439 32.6458 38.7223 32.7673 38.6818C32.8888 38.6413 32.9833 38.5685 33.0508 38.4686C33.1183 38.3687 33.1534 38.2418 33.1534 38.0906C33.1534 37.9206 33.1075 37.7856 33.0184 37.6803C32.9293 37.5777 32.7997 37.5102 32.635 37.4832C32.5541 37.4724 32.3057 37.467 31.8954 37.467H31.1044V38.7439Z" fill="white"/>
<path d="M39.6863 41.646H38.5822L38.1449 40.504H36.1364L35.7207 41.646H34.6436L36.6007 36.6221H37.6725L39.6863 41.646ZM37.8182 39.6564L37.1271 37.791L36.4496 39.6564H37.8182Z" fill="white"/>
<path d="M40.2207 36.6191H42.0753C42.4937 36.6191 42.8123 36.6515 43.031 36.7163C43.3252 36.8027 43.579 36.9566 43.7895 37.178C44.0001 37.3993 44.1594 37.672 44.2701 37.9905C44.3807 38.3118 44.4347 38.7086 44.4347 39.1783C44.4347 39.5914 44.3834 39.9477 44.2809 40.2473C44.1567 40.6118 43.9758 40.9087 43.7436 41.1355C43.5682 41.3056 43.3306 41.4406 43.031 41.5377C42.8069 41.6079 42.5072 41.643 42.132 41.643H40.2234V36.6191H40.2207ZM41.2357 37.4695V40.7981H41.9943C42.2778 40.7981 42.4829 40.7819 42.6071 40.7495C42.7718 40.709 42.9095 40.6388 43.0175 40.5416C43.1254 40.4444 43.2145 40.2824 43.282 40.0557C43.3495 39.8316 43.3846 39.5239 43.3846 39.1351C43.3846 38.7464 43.3495 38.4494 43.282 38.2416C43.2145 38.0337 43.1173 37.8717 42.9932 37.7557C42.869 37.6396 42.7124 37.5613 42.5234 37.5181C42.3831 37.4857 42.105 37.4695 41.692 37.4695H41.2357Z" fill="white"/>
<path d="M49.823 41.646H48.7189L48.2816 40.504H46.2731L45.8574 41.646H44.7803L46.7375 36.6221H47.8092L49.823 41.646ZM47.9577 39.6564L47.2666 37.791L46.589 39.6564H47.9577Z" fill="white"/>
<path d="M50.104 40.01L51.092 39.9128C51.1514 40.2449 51.2729 40.4878 51.4538 40.6417C51.6347 40.7983 51.8803 40.8739 52.1881 40.8739C52.5147 40.8739 52.7604 40.8037 52.9277 40.666C53.0924 40.5283 53.1761 40.3664 53.1761 40.1801C53.1761 40.0613 53.141 39.9614 53.0708 39.8777C53.0006 39.7941 52.8792 39.7212 52.7064 39.6591C52.5876 39.6186 52.3176 39.5457 51.8938 39.4404C51.3512 39.3054 50.9679 39.1408 50.7492 38.9437C50.4414 38.6683 50.2876 38.3309 50.2876 37.9313C50.2876 37.6749 50.3605 37.4373 50.5035 37.2133C50.6493 36.9919 50.8572 36.8218 51.1298 36.7057C51.4025 36.5897 51.7318 36.5303 52.1179 36.5303C52.7496 36.5303 53.222 36.6679 53.5432 36.946C53.8618 37.2214 54.0292 37.5912 54.0454 38.0528L53.0303 38.0987C52.9871 37.8396 52.8926 37.656 52.7496 37.5426C52.6065 37.4292 52.3932 37.3725 52.1071 37.3725C51.8128 37.3725 51.5807 37.4319 51.416 37.5534C51.308 37.6317 51.254 37.7343 51.254 37.8666C51.254 37.9853 51.3053 38.0879 51.4052 38.1716C51.5321 38.2796 51.8425 38.3903 52.3365 38.5064C52.8306 38.6224 53.195 38.7439 53.4326 38.8681C53.6701 38.9923 53.8537 39.1624 53.9887 39.3783C54.1209 39.5943 54.1884 39.8615 54.1884 40.1774C54.1884 40.4663 54.1102 40.7362 53.9482 40.9873C53.7889 41.2383 53.5621 41.4246 53.2706 41.5488C52.979 41.6703 52.6146 41.7323 52.1773 41.7323C51.5429 41.7323 51.0542 41.5866 50.7141 41.2923C50.374 41.0008 50.1715 40.5715 50.104 40.01Z" fill="white"/>
</svg>
