<svg width="65" height="70" viewBox="0 0 65 70" fill="none" xmlns="http://www.w3.org/2000/svg">
<path d="M42.3237 6.82715H22.5197L8.51709 20.8325V40.6364L22.5197 54.6391H42.3237L56.3263 40.6364V20.8325L42.3237 6.82715Z" fill="black"/>
<path fill-rule="evenodd" clip-rule="evenodd" d="M20.685 2.84814H43.6639L59.9111 19.0953V65.0983L59.9172 66.3013L4.43854 66.5848L4.43821 66.52H4.43509V65.9099L4.43164 65.235L4.43509 65.235V41.7812H4.43779V19.0953L20.685 2.84814ZM5.78487 41.7947V58.0128L58.5613 57.7424V19.6544L43.1048 4.19792H21.2441L5.78757 19.6544V41.7947H5.78487ZM58.5613 59.0922L5.78487 59.3626V65.2281L58.5613 64.9584V59.0922Z" fill="black"/>
<path d="M17.3066 27.8789V22.4663H21.3182V23.3815H18.4V24.5801H21.1157V25.4925H18.4V26.9665H21.4235V27.8789H17.3066Z" fill="white"/>
<path d="M21.7988 27.8782L23.648 25.0544L21.9716 22.4683H23.2485L24.3337 24.2068L25.3973 22.4683H26.6634L24.9816 25.0949L26.8308 27.8782H25.5134L24.3148 26.0074L23.1108 27.8782H21.7988Z" fill="white"/>
<path d="M30.853 25.8886L31.9112 26.2234C31.7492 26.8146 31.4793 27.2519 31.1013 27.5381C30.7234 27.8242 30.2456 27.9673 29.6625 27.9673C28.9444 27.9673 28.3532 27.7216 27.8915 27.2303C27.4299 26.739 27.1978 26.0695 27.1978 25.2164C27.1978 24.3148 27.4299 23.6156 27.8942 23.1189C28.3586 22.6222 28.9714 22.3711 29.7272 22.3711C30.3886 22.3711 30.9259 22.5655 31.3389 22.9569C31.5845 23.1891 31.7681 23.5211 31.8923 23.953L30.8098 24.2122C30.745 23.9314 30.6127 23.7101 30.4102 23.5481C30.2078 23.3861 29.9594 23.3051 29.6706 23.3051C29.2683 23.3051 28.9444 23.4482 28.6933 23.7371C28.4423 24.0259 28.3181 24.4902 28.3181 25.1354C28.3181 25.8184 28.4423 26.3071 28.6879 26.5959C28.9336 26.8875 29.2548 27.0305 29.6463 27.0305C29.9378 27.0305 30.1862 26.9387 30.3967 26.7525C30.6127 26.5743 30.7612 26.2828 30.853 25.8886Z" fill="white"/>
<path d="M32.8506 27.878V22.4653H36.8621V23.3805H33.9439V24.5791H36.6597V25.4915H33.9439V26.9655H36.9674V27.878H32.8506Z" fill="white"/>
<path d="M37.6152 26.1156L38.6789 26.013C38.7437 26.3694 38.8732 26.6312 39.0676 26.7986C39.262 26.966 39.5265 27.0497 39.8586 27.0497C40.2095 27.0497 40.4768 26.9741 40.6549 26.8256C40.8331 26.6771 40.9222 26.5017 40.9222 26.3046C40.9222 26.1777 40.8844 26.067 40.8088 25.9779C40.7332 25.8889 40.6037 25.8106 40.4147 25.7431C40.2878 25.6999 39.9963 25.6189 39.54 25.5055C38.9542 25.3597 38.5439 25.1816 38.3063 24.971C37.9743 24.674 37.8069 24.3096 37.8069 23.8831C37.8069 23.6077 37.8852 23.3486 38.0418 23.111C38.1983 22.8734 38.4224 22.6872 38.7167 22.563C39.0109 22.4388 39.3646 22.374 39.7803 22.374C40.4606 22.374 40.9708 22.5225 41.3136 22.8195C41.6565 23.1164 41.8374 23.5159 41.8536 24.0127L40.7602 24.0612C40.7143 23.7832 40.6145 23.5834 40.4606 23.4619C40.3067 23.3405 40.0772 23.2784 39.7695 23.2784C39.4509 23.2784 39.2026 23.3432 39.0244 23.4727C38.9083 23.5564 38.8516 23.6671 38.8516 23.8075C38.8516 23.9344 38.9056 24.0451 39.0136 24.1368C39.1513 24.2529 39.486 24.3744 40.0178 24.4986C40.5497 24.6228 40.9411 24.755 41.1976 24.8873C41.4513 25.0223 41.6511 25.2059 41.7942 25.438C41.9372 25.6702 42.0101 25.959 42.0101 26.2992C42.0101 26.6096 41.9237 26.8985 41.751 27.1711C41.5782 27.4411 41.3352 27.6436 41.0194 27.7758C40.7035 27.9081 40.3121 27.9729 39.8424 27.9729C39.1594 27.9729 38.633 27.8136 38.2658 27.4978C37.9041 27.1819 37.6854 26.723 37.6152 26.1156Z" fill="white"/>
<path d="M42.7119 25.2056C42.7119 24.6549 42.7956 24.1933 42.9603 23.818C43.0845 23.5427 43.2518 23.2943 43.4651 23.0757C43.6784 22.857 43.9105 22.695 44.1643 22.5897C44.5017 22.4467 44.8905 22.3765 45.3305 22.3765C46.1269 22.3765 46.7667 22.6248 47.2445 23.1188C47.7223 23.6129 47.9626 24.3013 47.9626 25.1813C47.9626 26.056 47.725 26.739 47.2499 27.2303C46.7747 27.7243 46.1403 27.97 45.3467 27.97C44.5422 27.97 43.9024 27.7243 43.4273 27.233C42.9522 26.7417 42.7119 26.0668 42.7119 25.2056ZM43.8376 25.1678C43.8376 25.7806 43.978 26.2449 44.2615 26.5608C44.5449 26.8766 44.904 27.0359 45.3386 27.0359C45.7732 27.0359 46.1323 26.8793 46.4103 26.5662C46.6884 26.253 46.8287 25.7806 46.8287 25.1543C46.8287 24.5334 46.6938 24.0718 46.4211 23.7667C46.1485 23.4617 45.7894 23.3078 45.3386 23.3078C44.8878 23.3078 44.526 23.4617 44.2507 23.7721C43.9753 24.0799 43.8376 24.5442 43.8376 25.1678Z" fill="white"/>
<path d="M5.70947 62.8424L6.34387 62.783C6.38166 62.9909 6.45995 63.1448 6.57603 63.2447C6.69211 63.3446 6.85139 63.3905 7.04845 63.3905C7.25902 63.3905 7.41559 63.3473 7.52358 63.2582C7.63156 63.1691 7.68285 63.0692 7.68285 62.9531C7.68285 62.8775 7.66126 62.8154 7.61536 62.7615C7.56947 62.7075 7.49118 62.6643 7.3805 62.6238C7.30491 62.5968 7.12944 62.5509 6.85949 62.4861C6.51124 62.3997 6.26558 62.2971 6.12251 62.1729C5.92544 61.9975 5.82555 61.7869 5.82555 61.5358C5.82555 61.3739 5.87145 61.2227 5.96593 61.0823C6.06042 60.9419 6.19269 60.834 6.36817 60.7611C6.54364 60.6882 6.7569 60.6504 7.00256 60.6504C7.4075 60.6504 7.71255 60.7368 7.91771 60.9122C8.12288 61.0877 8.23086 61.3199 8.24166 61.6114L7.58837 61.6384C7.56137 61.4765 7.49928 61.3577 7.4075 61.2875C7.31571 61.2173 7.17803 61.1795 6.99446 61.1795C6.80549 61.1795 6.65702 61.2173 6.54904 61.2929C6.47885 61.3415 6.44645 61.4063 6.44645 61.49C6.44645 61.5655 6.47885 61.6303 6.54364 61.6816C6.62462 61.7491 6.82439 61.8193 7.14294 61.8949C7.46149 61.9678 7.69365 62.0434 7.84752 62.1244C7.9987 62.2026 8.11748 62.3106 8.20387 62.4456C8.29025 62.5806 8.33345 62.7507 8.33345 62.9504C8.33345 63.1313 8.28215 63.3014 8.17957 63.4606C8.07699 63.6199 7.93121 63.736 7.74224 63.8143C7.55327 63.8926 7.32111 63.9304 7.04036 63.9304C6.63272 63.9304 6.31957 63.8386 6.09821 63.6523C5.88494 63.466 5.75267 63.1961 5.70947 62.8424Z" fill="black"/>
<path d="M8.88672 63.8741V60.7021H11.2812V61.2394H9.53731V61.9412H11.1597V62.4758H9.53731V63.3396H11.3433V63.8741H8.88672Z" fill="black"/>
<path d="M13.962 62.7082L14.5937 62.9053C14.4965 63.2508 14.3345 63.5073 14.1105 63.6774C13.8837 63.8447 13.5976 63.9284 13.252 63.9284C12.8228 63.9284 12.4691 63.7853 12.1938 63.4965C11.9184 63.2076 11.7808 62.8162 11.7808 62.3168C11.7808 61.7877 11.9184 61.38 12.1965 61.0858C12.4745 60.7915 12.839 60.6484 13.2925 60.6484C13.6867 60.6484 14.0079 60.7618 14.2563 60.9913C14.402 61.1263 14.5127 61.3206 14.5856 61.5744L13.9404 61.7256C13.9026 61.5609 13.8216 61.4313 13.7002 61.3368C13.5787 61.2423 13.4329 61.1937 13.2574 61.1937C13.0172 61.1937 12.8228 61.2774 12.6743 61.4475C12.5258 61.6176 12.4503 61.8902 12.4503 62.2682C12.4503 62.6704 12.5231 62.9539 12.6716 63.1239C12.8174 63.294 13.0091 63.3804 13.2439 63.3804C13.4167 63.3804 13.5652 63.3264 13.6921 63.2184C13.8189 63.1104 13.908 62.9404 13.962 62.7082Z" fill="black"/>
<path d="M15.1582 63.8741V60.7021H16.5296C16.8751 60.7021 17.1262 60.7318 17.2828 60.7885C17.4393 60.8452 17.5635 60.9478 17.658 61.0936C17.7525 61.2394 17.7984 61.4067 17.7984 61.593C17.7984 61.8306 17.7282 62.0276 17.5851 62.1815C17.442 62.3354 17.2288 62.4353 16.9453 62.4758C17.0857 62.5567 17.2018 62.6458 17.2936 62.743C17.3853 62.8402 17.5095 63.0103 17.6661 63.2586L18.0602 63.8768H17.2801L16.8076 63.1857C16.6403 62.9401 16.5269 62.7835 16.4648 62.7187C16.4027 62.6539 16.3379 62.6107 16.2677 62.5864C16.1975 62.5621 16.0896 62.5513 15.9384 62.5513H15.8061V63.8741H15.1582ZM15.8088 62.0438H16.292C16.6052 62.0438 16.7995 62.0303 16.8778 62.006C16.9561 61.979 17.0155 61.9358 17.0614 61.8711C17.1073 61.8063 17.1289 61.728 17.1289 61.6335C17.1289 61.5282 17.0992 61.4418 17.0425 61.3743C16.9858 61.3069 16.9021 61.2664 16.7968 61.2502C16.7428 61.2421 16.5863 61.2394 16.3217 61.2394H15.8115V62.0438H15.8088Z" fill="black"/>
<path d="M18.4136 63.8741V60.7021H20.8081V61.2394H19.0642V61.9412H20.6866V62.4758H19.0642V63.3396H20.8702V63.8741H18.4136Z" fill="black"/>
<path d="M22.1498 63.8741V61.2394H21.1914V60.7021H23.7587V61.2394H22.803V63.8741H22.1498Z" fill="black"/>
<path d="M26.758 63.8741H26.048L25.7673 63.1533H24.4769L24.2096 63.8741H23.5186L24.7765 60.7021H25.4676L26.758 63.8741ZM25.5567 62.6188L25.1113 61.4418L24.674 62.6188H25.5567Z" fill="black"/>
<path d="M27.1064 63.8741V60.7021H28.4778C28.8234 60.7021 29.0744 60.7318 29.231 60.7885C29.3876 60.8452 29.5118 60.9478 29.6062 61.0936C29.7007 61.2394 29.7466 61.4067 29.7466 61.593C29.7466 61.8306 29.6764 62.0276 29.5334 62.1815C29.3903 62.3354 29.177 62.4353 28.8936 62.4758C29.0339 62.5567 29.15 62.6458 29.2418 62.743C29.3336 62.8402 29.4578 63.0103 29.6143 63.2586L30.0085 63.8768H29.2283L28.7559 63.1857C28.5885 62.9401 28.4751 62.7835 28.413 62.7187C28.3509 62.6539 28.2862 62.6107 28.216 62.5864C28.1458 62.5621 28.0378 62.5513 27.8866 62.5513H27.7543V63.8741H27.1064ZM27.7597 62.0438H28.243C28.5561 62.0438 28.7505 62.0303 28.8288 62.006C28.9071 61.979 28.9664 61.9358 29.0123 61.8711C29.0582 61.8063 29.0798 61.728 29.0798 61.6335C29.0798 61.5282 29.0501 61.4418 28.9934 61.3743C28.9367 61.3069 28.8531 61.2664 28.7478 61.2502C28.6938 61.2421 28.5372 61.2394 28.2727 61.2394H27.7624V62.0438H27.7597Z" fill="black"/>
<path d="M30.2705 60.5214L30.5756 59.8735H31.2693L30.6646 60.5214H30.2705ZM30.3434 63.8743V60.7023H30.9967V63.8743H30.3434Z" fill="black"/>
<path d="M34.53 63.8741H33.82L33.5393 63.1533H32.2489L31.9816 63.8741H31.2905L32.5485 60.7021H33.2369L34.53 63.8741ZM33.3287 62.6188L32.8833 61.4418L32.4459 62.6188H33.3287Z" fill="black"/>
<path d="M35.9607 60.7021H37.1539C37.4239 60.7021 37.6263 60.721 37.7694 60.7615C37.9584 60.8155 38.1204 60.9127 38.2553 61.0531C38.3903 61.1935 38.4929 61.3635 38.5631 61.566C38.6333 61.7685 38.6684 62.0195 38.6684 62.3165C38.6684 62.5783 38.636 62.8024 38.5685 62.9914C38.4875 63.2208 38.3714 63.4098 38.223 63.5529C38.1096 63.6609 37.9584 63.7445 37.764 63.8066C37.6209 63.8525 37.4266 63.8741 37.1863 63.8741H35.958V60.7021H35.9607ZM36.614 61.2394V63.3396H37.0999C37.2808 63.3396 37.4131 63.3288 37.4941 63.3099C37.5994 63.2829 37.6884 63.2397 37.7559 63.1776C37.8261 63.1155 37.8828 63.013 37.926 62.8726C37.9692 62.7295 37.9935 62.5378 37.9935 62.2922C37.9935 62.0465 37.9719 61.8576 37.926 61.728C37.8801 61.5984 37.8207 61.4931 37.7397 61.4202C37.6587 61.3473 37.5589 61.296 37.4374 61.2718C37.3456 61.2502 37.1674 61.2421 36.9029 61.2421H36.614V61.2394Z" fill="black"/>
<path d="M39.2217 63.8741V60.7021H41.6162V61.2394H39.8723V61.9412H41.4947V62.4758H39.8723V63.3396H41.6756V63.8741H39.2217Z" fill="black"/>
<path d="M43.3198 62.8429L43.9542 62.7835C43.992 62.9914 44.0703 63.1453 44.1864 63.2452C44.3025 63.345 44.4617 63.3909 44.6588 63.3909C44.8694 63.3909 45.0287 63.3477 45.1339 63.2587C45.2392 63.1696 45.2932 63.0697 45.2932 62.9536C45.2932 62.878 45.2716 62.8159 45.2257 62.7619C45.1798 62.7079 45.1015 62.6647 44.9909 62.6243C44.9153 62.5973 44.7398 62.5514 44.4698 62.4866C44.1189 62.4002 43.8759 62.2976 43.7329 62.1734C43.5358 61.998 43.4359 61.7874 43.4359 61.5363C43.4359 61.3744 43.4818 61.2232 43.5763 61.0828C43.6708 60.9424 43.803 60.8344 43.9785 60.7616C44.154 60.6887 44.3673 60.6509 44.6129 60.6509C45.0179 60.6509 45.3229 60.7373 45.5281 60.9127C45.7332 61.0882 45.8412 61.3204 45.852 61.6119L45.1987 61.6389C45.1717 61.4769 45.1096 61.3582 45.0179 61.288C44.9261 61.2178 44.7884 61.18 44.6048 61.18C44.4158 61.18 44.2674 61.2178 44.1594 61.2934C44.0892 61.342 44.0568 61.4068 44.0568 61.4904C44.0568 61.566 44.0892 61.6308 44.154 61.6821C44.235 61.7496 44.4347 61.8198 44.7533 61.8954C45.0718 61.9683 45.304 62.0439 45.4579 62.1248C45.6118 62.2058 45.7278 62.3111 45.8142 62.4461C45.9006 62.5811 45.9438 62.7511 45.9438 62.9509C45.9438 63.1318 45.8925 63.3018 45.7899 63.4611C45.6873 63.6204 45.5416 63.7365 45.3526 63.8148C45.1636 63.893 44.9315 63.9308 44.6507 63.9308C44.2431 63.9308 43.9299 63.8391 43.7086 63.6528C43.4926 63.4665 43.363 63.1966 43.3198 62.8429Z" fill="black"/>
<path d="M49.4104 63.8741H48.7004L48.4196 63.1533H47.1292L46.862 63.8741H46.1709L47.4289 60.7021H48.1173L49.4104 63.8741ZM48.2091 62.6188L47.7637 61.4418L47.3263 62.6188H48.2091Z" fill="black"/>
<path d="M49.7715 63.8745V60.7295H50.4248V63.34H52.0472V63.8745H49.7715Z" fill="black"/>
<path d="M52.5063 60.7021H53.1596V62.4191C53.1596 62.6917 53.1677 62.8699 53.1839 62.9482C53.2109 63.0778 53.2784 63.183 53.3837 63.2613C53.489 63.3396 53.6321 63.3801 53.8156 63.3801C54.0019 63.3801 54.1396 63.3423 54.2341 63.2694C54.3286 63.1965 54.3853 63.1048 54.4042 62.9968C54.423 62.8888 54.4338 62.7079 54.4338 62.4569V60.7021H55.0871V62.3678C55.0871 62.7484 55.0682 63.0184 55.0332 63.1749C54.9981 63.3315 54.9333 63.4638 54.8388 63.5718C54.7443 63.6798 54.6174 63.7661 54.4581 63.8309C54.2989 63.8957 54.091 63.9281 53.8372 63.9281C53.5295 63.9281 53.2946 63.893 53.1353 63.8228C52.9761 63.7526 52.8492 63.6609 52.7574 63.5502C52.6656 63.4395 52.6035 63.3207 52.5738 63.1992C52.5306 63.0184 52.509 62.7484 52.509 62.3948V60.7021H52.5063Z" fill="black"/>
<path d="M55.7673 60.7021H56.9606C57.2305 60.7021 57.433 60.721 57.5761 60.7615C57.765 60.8155 57.927 60.9127 58.062 61.0531C58.197 61.1935 58.2995 61.3635 58.3697 61.566C58.4399 61.7685 58.475 62.0195 58.475 62.3165C58.475 62.5783 58.4426 62.8024 58.3751 62.9914C58.2941 63.2208 58.1781 63.4098 58.0296 63.5529C57.9162 63.6609 57.765 63.7445 57.5707 63.8066C57.4276 63.8525 57.2332 63.8741 56.993 63.8741H55.7646V60.7021H55.7673ZM56.4206 61.2394V63.3396H56.9066C57.0874 63.3396 57.2197 63.3288 57.3007 63.3099C57.406 63.2829 57.4951 63.2397 57.5626 63.1776C57.6327 63.1155 57.6894 63.013 57.7326 62.8726C57.7758 62.7295 57.8001 62.5378 57.8001 62.2922C57.8001 62.0465 57.7785 61.8576 57.7326 61.728C57.6867 61.5984 57.6273 61.4931 57.5464 61.4202C57.4654 61.3473 57.3655 61.296 57.244 61.2718C57.1522 61.2502 56.9741 61.2421 56.7095 61.2421H56.4206V61.2394Z" fill="black"/>
<path d="M19.7445 32.7267V31.879H21.9311V33.8794C21.7179 34.0846 21.4101 34.2654 21.0079 34.422C20.6056 34.5786 20.1953 34.6569 19.7823 34.6569C19.2559 34.6569 18.7996 34.5462 18.4082 34.3248C18.0168 34.1035 17.7252 33.7903 17.5281 33.38C17.3311 32.9696 17.2339 32.5242 17.2339 32.041C17.2339 31.5173 17.3446 31.053 17.5632 30.6453C17.7819 30.2377 18.1031 29.9272 18.527 29.7086C18.8482 29.5412 19.2505 29.4575 19.731 29.4575C20.3546 29.4575 20.8432 29.5871 21.1914 29.849C21.5424 30.1108 21.7665 30.4726 21.869 30.9342L20.8621 31.1231C20.7919 30.8775 20.6569 30.6804 20.4626 30.5373C20.2682 30.3943 20.0225 30.3241 19.731 30.3241C19.2883 30.3241 18.9346 30.4645 18.6728 30.7452C18.4109 31.026 18.2813 31.4444 18.2813 31.9951C18.2813 32.5917 18.4136 33.0398 18.6782 33.3368C18.9427 33.6337 19.291 33.7849 19.7202 33.7849C19.9334 33.7849 20.1467 33.7444 20.36 33.6607C20.5732 33.577 20.7568 33.4772 20.9107 33.3584V32.7213H19.7445V32.7267Z" fill="white"/>
<path d="M22.8706 34.5732V29.5493H25.006C25.5432 29.5493 25.9319 29.5952 26.1776 29.6843C26.4232 29.7734 26.6149 29.9354 26.7607 30.1648C26.9065 30.3943 26.9793 30.6588 26.9793 30.9558C26.9793 31.3337 26.8687 31.6442 26.6473 31.8898C26.4259 32.1355 26.0939 32.2894 25.6539 32.3542C25.8725 32.481 26.0534 32.6214 26.1965 32.7753C26.3395 32.9292 26.5312 33.1991 26.7742 33.5906L27.387 34.5705H26.1749L25.4406 33.4772C25.1814 33.0857 25.0033 32.8401 24.9061 32.7375C24.8089 32.6349 24.709 32.5674 24.601 32.5269C24.493 32.4891 24.323 32.4702 24.0908 32.4702H23.8856V34.5678H22.8706V34.5732ZM23.8856 31.6739H24.6361C25.122 31.6739 25.4271 31.6523 25.5486 31.6118C25.6701 31.5713 25.7645 31.4984 25.832 31.3985C25.8995 31.2986 25.9346 31.1718 25.9346 31.0206C25.9346 30.8505 25.8887 30.7155 25.7996 30.6102C25.7105 30.5077 25.581 30.4402 25.4163 30.4132C25.3353 30.4024 25.0869 30.397 24.6766 30.397H23.8856V31.6739Z" fill="white"/>
<path d="M32.4676 34.5732H31.3635L30.9261 33.4313H28.9177L28.5019 34.5732H27.4248L29.382 29.5493H30.4537L32.4676 34.5732ZM30.5995 32.5863L29.9084 30.7209L29.2308 32.5863H30.5995Z" fill="white"/>
<path d="M32.748 32.9402L33.7361 32.843C33.7955 33.175 33.917 33.418 34.0978 33.5719C34.2787 33.7284 34.5244 33.804 34.8321 33.804C35.1587 33.804 35.4044 33.7338 35.5718 33.5962C35.7364 33.4585 35.8201 33.2965 35.8201 33.1103C35.8201 32.9915 35.785 32.8916 35.7149 32.8079C35.6447 32.7242 35.5232 32.6513 35.3504 32.5892C35.2316 32.5487 34.9617 32.4759 34.5378 32.3706C33.9952 32.2356 33.6119 32.0709 33.3932 31.8739C33.0855 31.5985 32.9316 31.2611 32.9316 30.8615C32.9316 30.6051 33.0045 30.3675 33.1503 30.1434C33.2961 29.9194 33.5039 29.752 33.7766 29.6359C34.0492 29.5198 34.3786 29.4604 34.7646 29.4604C35.3963 29.4604 35.8687 29.5981 36.19 29.8762C36.5085 30.1515 36.6759 30.5214 36.6921 30.983L35.6771 31.0289C35.6339 30.7697 35.5394 30.5862 35.3963 30.4728C35.2532 30.3594 35.04 30.3027 34.7538 30.3027C34.4596 30.3027 34.2274 30.3621 34.0627 30.4836C33.9547 30.5619 33.9008 30.6645 33.9008 30.7967C33.9008 30.9155 33.952 31.0181 34.0519 31.1018C34.1788 31.2098 34.4893 31.3204 34.9833 31.4365C35.4773 31.5526 35.8417 31.6741 36.0793 31.7983C36.3169 31.9224 36.5004 32.0925 36.6354 32.3085C36.7677 32.5244 36.8352 32.7917 36.8352 33.1076C36.8352 33.3964 36.7542 33.6664 36.5949 33.9174C36.4356 34.1685 36.2089 34.3547 35.9173 34.4789C35.6258 34.6004 35.2613 34.6625 34.824 34.6625C34.1896 34.6625 33.701 34.5167 33.3608 34.2225C33.018 33.9309 32.8155 33.5017 32.748 32.9402Z" fill="white"/>
<path d="M42.2181 34.5732H41.114L40.6766 33.4313H38.6681L38.2524 34.5732H37.1753L39.1325 29.5493H40.2042L42.2181 34.5732ZM40.35 32.5863L39.6589 30.7209L38.9813 32.5863H40.35Z" fill="white"/>
<path d="M42.499 32.9402L43.4871 32.843C43.5465 33.175 43.6679 33.418 43.8488 33.5719C44.0297 33.7284 44.2753 33.804 44.5831 33.804C44.9097 33.804 45.1554 33.7338 45.3228 33.5962C45.4874 33.4585 45.5711 33.2965 45.5711 33.1103C45.5711 32.9915 45.536 32.8916 45.4658 32.8079C45.3956 32.7242 45.2742 32.6513 45.1014 32.5892C44.9826 32.5487 44.7127 32.4759 44.2888 32.3706C43.7462 32.2356 43.3629 32.0709 43.1442 31.8739C42.8365 31.5985 42.6826 31.2611 42.6826 30.8615C42.6826 30.6051 42.7555 30.3675 42.9013 30.1434C43.047 29.9194 43.2549 29.752 43.5276 29.6359C43.8002 29.5198 44.1296 29.4604 44.5156 29.4604C45.1473 29.4604 45.6197 29.5981 45.941 29.8762C46.2595 30.1515 46.4269 30.5214 46.4431 30.983L45.428 31.0289C45.3849 30.7697 45.2904 30.5862 45.1473 30.4728C45.0042 30.3594 44.7909 30.3027 44.5048 30.3027C44.2105 30.3027 43.9784 30.3621 43.8137 30.4836C43.7057 30.5619 43.6517 30.6645 43.6517 30.7967C43.6517 30.9155 43.703 31.0181 43.8029 31.1018C43.9298 31.2098 44.2402 31.3204 44.7343 31.4365C45.2283 31.5526 45.5927 31.6741 45.8303 31.7983C46.0678 31.9224 46.2514 32.0925 46.3864 32.3085C46.5187 32.5244 46.5862 32.7917 46.5862 33.1076C46.5862 33.3964 46.5052 33.6664 46.3459 33.9174C46.1866 34.1685 45.9599 34.3547 45.6683 34.4789C45.3768 34.6004 45.0123 34.6625 44.575 34.6625C43.9406 34.6625 43.452 34.5167 43.1118 34.2225C42.769 33.9309 42.5638 33.5017 42.499 32.9402Z" fill="white"/>
<path d="M21.4667 41.1474V36.9739H19.9766V36.1235H23.9692V36.9739H22.4818V41.1474H21.4667Z" fill="white"/>
<path d="M24.625 41.1464V36.1226H26.7604C27.2976 36.1226 27.6863 36.1685 27.932 36.2575C28.1749 36.3466 28.3693 36.5086 28.5151 36.7381C28.6608 36.9675 28.7337 37.2321 28.7337 37.529C28.7337 37.907 28.623 38.2174 28.4017 38.4631C28.1803 38.7087 27.8483 38.8626 27.4082 38.9274C27.6269 39.0543 27.8078 39.1947 27.9509 39.3485C28.0939 39.5024 28.2856 39.7724 28.5286 40.1638L29.1414 41.1437H27.9293L27.195 40.0504C26.9358 39.659 26.7577 39.4133 26.6605 39.3107C26.5633 39.2082 26.4634 39.1407 26.3554 39.1002C26.2474 39.0624 26.0774 39.0435 25.8452 39.0435H25.64V41.141H24.625V41.1464ZM25.64 38.2471H26.3905C26.8764 38.2471 27.1815 38.2255 27.303 38.185C27.4244 38.1445 27.5189 38.0716 27.5864 37.9718C27.6539 37.8719 27.689 37.745 27.689 37.5938C27.689 37.4237 27.6431 37.2888 27.554 37.1835C27.4649 37.0809 27.3354 37.0134 27.1707 36.9864C27.0897 36.9756 26.8413 36.9702 26.431 36.9702H25.64V38.2471Z" fill="white"/>
<path d="M34.222 41.1464H33.1178L32.6805 40.0045H30.6721L30.2563 41.1464H29.1792L31.1364 36.1226H32.2081L34.222 41.1464ZM32.3539 39.1596L31.6628 37.2942L30.9852 39.1596H32.3539Z" fill="white"/>
<path d="M34.77 41.1464V36.1226H35.7581L37.8151 39.4781V36.1226H38.7573V41.1464H37.7395L35.7149 37.8692V41.1464H34.77Z" fill="white"/>
<path d="M39.5728 39.5134L40.5608 39.4162C40.6202 39.7483 40.7417 39.9912 40.9225 40.1451C41.1034 40.299 41.3491 40.3773 41.6568 40.3773C41.9835 40.3773 42.2291 40.3071 42.3965 40.1694C42.5612 40.0317 42.6448 39.8698 42.6448 39.6835C42.6448 39.5647 42.6098 39.4648 42.5396 39.3811C42.4694 39.2975 42.3479 39.2246 42.1751 39.1625C42.0563 39.122 41.7864 39.0491 41.3626 38.9438C40.8199 38.8088 40.4366 38.6442 40.2179 38.4471C39.9102 38.1717 39.7563 37.8343 39.7563 37.4348C39.7563 37.1783 39.8292 36.9407 39.975 36.7167C40.1208 36.4926 40.3286 36.3252 40.6013 36.2092C40.8739 36.0931 41.2033 36.0337 41.5893 36.0337C42.221 36.0337 42.6934 36.1714 43.0147 36.4494C43.3332 36.7248 43.5006 37.0946 43.5168 37.5562L42.5018 37.6021C42.4586 37.343 42.3641 37.1594 42.2237 37.046C42.0806 36.9326 41.8674 36.876 41.5812 36.876C41.287 36.876 41.0548 36.9353 40.8901 37.0568C40.7822 37.1351 40.7282 37.2377 40.7282 37.37C40.7282 37.4888 40.7795 37.5913 40.8793 37.675C41.0062 37.783 41.3167 37.8937 41.8107 38.0098C42.3047 38.1258 42.6691 38.2473 42.9067 38.3715C43.1443 38.4957 43.3278 38.6658 43.4628 38.8817C43.5978 39.0977 43.6626 39.3649 43.6626 39.6808C43.6626 39.9696 43.5816 40.2396 43.4223 40.4907C43.263 40.7417 43.0363 40.928 42.7447 41.0522C42.4532 41.1736 42.0887 41.2357 41.6514 41.2357C41.017 41.2357 40.5284 41.09 40.1883 40.7957C39.8427 40.5042 39.6375 40.0749 39.5728 39.5134Z" fill="white"/>
</svg>
