<svg width="65" height="70" viewBox="0 0 65 70" fill="none" xmlns="http://www.w3.org/2000/svg">
<path d="M42.352 6.82715H22.548L8.54541 20.8325V40.6364L22.548 54.6391H42.352L56.3546 40.6364V20.8325L42.352 6.82715Z" fill="black"/>
<path fill-rule="evenodd" clip-rule="evenodd" d="M20.7133 2.84814H43.6922L59.9394 19.0953V65.0983L59.9455 66.3013L4.46686 66.5848L4.46653 66.52H4.46341V65.9099L4.45996 65.235L4.46341 65.235V41.7812H4.46611V19.0953L20.7133 2.84814ZM5.81319 41.7947V58.0128L58.5896 57.7424V19.6544L43.1331 4.19792H21.2724L5.81589 19.6544V41.7947H5.81319ZM58.5896 59.0922L5.81319 59.3626V65.2281L58.5896 64.9584V59.0922Z" fill="black"/>
<path d="M17.335 27.8789V22.4663H21.3465V23.3815H18.4283V24.5801H21.144V25.4925H18.4283V26.9665H21.4518V27.8789H17.335Z" fill="white"/>
<path d="M21.8271 27.8782L23.6763 25.0544L21.9999 22.4683H23.2768L24.362 24.2068L25.4257 22.4683H26.6918L25.0099 25.0949L26.8591 27.8782H25.5417L24.3431 26.0074L23.1391 27.8782H21.8271Z" fill="white"/>
<path d="M30.8813 25.8886L31.9395 26.2234C31.7775 26.8146 31.5076 27.2519 31.1296 27.5381C30.7517 27.8242 30.2739 27.9673 29.6908 27.9673C28.9727 27.9673 28.3815 27.7216 27.9199 27.2303C27.4582 26.739 27.2261 26.0695 27.2261 25.2164C27.2261 24.3148 27.4582 23.6156 27.9226 23.1189C28.3869 22.6222 28.9997 22.3711 29.7556 22.3711C30.417 22.3711 30.9542 22.5655 31.3672 22.9569C31.6129 23.1891 31.7964 23.5211 31.9206 23.953L30.8381 24.2122C30.7733 23.9314 30.641 23.7101 30.4386 23.5481C30.2361 23.3861 29.9877 23.3051 29.6989 23.3051C29.2966 23.3051 28.9727 23.4482 28.7216 23.7371C28.4706 24.0259 28.3464 24.4902 28.3464 25.1354C28.3464 25.8184 28.4706 26.3071 28.7162 26.5959C28.9619 26.8875 29.2831 27.0305 29.6746 27.0305C29.9661 27.0305 30.2145 26.9387 30.4251 26.7525C30.641 26.5743 30.7895 26.2828 30.8813 25.8886Z" fill="white"/>
<path d="M32.8789 27.878V22.4653H36.8904V23.3805H33.9722V24.5791H36.688V25.4915H33.9722V26.9655H36.9957V27.878H32.8789Z" fill="white"/>
<path d="M37.6436 26.1156L38.7072 26.013C38.772 26.3694 38.9016 26.6312 39.0959 26.7986C39.2903 26.966 39.5548 27.0497 39.8869 27.0497C40.2378 27.0497 40.5051 26.9741 40.6833 26.8256C40.8614 26.6771 40.9505 26.5017 40.9505 26.3046C40.9505 26.1777 40.9127 26.067 40.8371 25.9779C40.7616 25.8889 40.632 25.8106 40.443 25.7431C40.3161 25.6999 40.0246 25.6189 39.5683 25.5055C38.9825 25.3597 38.5722 25.1816 38.3346 24.971C38.0026 24.674 37.8352 24.3096 37.8352 23.8831C37.8352 23.6077 37.9135 23.3486 38.0701 23.111C38.2267 22.8734 38.4507 22.6872 38.745 22.563C39.0392 22.4388 39.3929 22.374 39.8086 22.374C40.4889 22.374 40.9991 22.5225 41.342 22.8195C41.6848 23.1164 41.8657 23.5159 41.8819 24.0127L40.7885 24.0612C40.7427 23.7832 40.6428 23.5834 40.4889 23.4619C40.335 23.3405 40.1056 23.2784 39.7978 23.2784C39.4793 23.2784 39.2309 23.3432 39.0527 23.4727C38.9366 23.5564 38.88 23.6671 38.88 23.8075C38.88 23.9344 38.9339 24.0451 39.0419 24.1368C39.1796 24.2529 39.5144 24.3744 40.0462 24.4986C40.578 24.6228 40.9694 24.755 41.2259 24.8873C41.4796 25.0223 41.6794 25.2059 41.8225 25.438C41.9656 25.6702 42.0384 25.959 42.0384 26.2992C42.0384 26.6096 41.9521 26.8985 41.7793 27.1711C41.6065 27.4411 41.3636 27.6436 41.0477 27.7758C40.7319 27.9081 40.3404 27.9729 39.8707 27.9729C39.1877 27.9729 38.6613 27.8136 38.2942 27.4978C37.9324 27.1819 37.7137 26.723 37.6436 26.1156Z" fill="white"/>
<path d="M42.7402 25.2056C42.7402 24.6549 42.8239 24.1933 42.9886 23.818C43.1128 23.5427 43.2801 23.2943 43.4934 23.0757C43.7067 22.857 43.9388 22.695 44.1926 22.5897C44.53 22.4467 44.9188 22.3765 45.3588 22.3765C46.1552 22.3765 46.795 22.6248 47.2728 23.1188C47.7506 23.6129 47.9909 24.3013 47.9909 25.1813C47.9909 26.056 47.7533 26.739 47.2782 27.2303C46.8031 27.7243 46.1687 27.97 45.375 27.97C44.5705 27.97 43.9307 27.7243 43.4556 27.233C42.9805 26.7417 42.7402 26.0668 42.7402 25.2056ZM43.8659 25.1678C43.8659 25.7806 44.0063 26.2449 44.2898 26.5608C44.5732 26.8766 44.9323 27.0359 45.3669 27.0359C45.8015 27.0359 46.1606 26.8793 46.4386 26.5662C46.7167 26.253 46.8571 25.7806 46.8571 25.1543C46.8571 24.5334 46.7221 24.0718 46.4494 23.7667C46.1768 23.4617 45.8177 23.3078 45.3669 23.3078C44.9161 23.3078 44.5543 23.4617 44.279 23.7721C44.0036 24.0799 43.8659 24.5442 43.8659 25.1678Z" fill="white"/>
<path d="M5.73779 62.8424L6.37219 62.783C6.40998 62.9909 6.48827 63.1448 6.60435 63.2447C6.72043 63.3446 6.87971 63.3905 7.07677 63.3905C7.28734 63.3905 7.44392 63.3473 7.5519 63.2582C7.65988 63.1691 7.71117 63.0692 7.71117 62.9531C7.71117 62.8775 7.68958 62.8154 7.64368 62.7615C7.59779 62.7075 7.5195 62.6643 7.40882 62.6238C7.33323 62.5968 7.15776 62.5509 6.88781 62.4861C6.53956 62.3997 6.2939 62.2971 6.15083 62.1729C5.95376 61.9975 5.85387 61.7869 5.85387 61.5358C5.85387 61.3739 5.89977 61.2227 5.99425 61.0823C6.08874 60.9419 6.22101 60.834 6.39649 60.7611C6.57196 60.6882 6.78522 60.6504 7.03088 60.6504C7.43582 60.6504 7.74087 60.7368 7.94603 60.9122C8.1512 61.0877 8.25918 61.3199 8.26998 61.6114L7.61669 61.6384C7.58969 61.4765 7.5276 61.3577 7.43582 61.2875C7.34403 61.2173 7.20635 61.1795 7.02278 61.1795C6.83381 61.1795 6.68534 61.2173 6.57736 61.2929C6.50717 61.3415 6.47477 61.4063 6.47477 61.49C6.47477 61.5655 6.50717 61.6303 6.57196 61.6816C6.65294 61.7491 6.85271 61.8193 7.17126 61.8949C7.48981 61.9678 7.72197 62.0434 7.87585 62.1244C8.02702 62.2026 8.1458 62.3106 8.23219 62.4456C8.31857 62.5806 8.36177 62.7507 8.36177 62.9504C8.36177 63.1313 8.31047 63.3014 8.20789 63.4606C8.10531 63.6199 7.95953 63.736 7.77056 63.8143C7.58159 63.8926 7.34943 63.9304 7.06868 63.9304C6.66104 63.9304 6.34789 63.8386 6.12653 63.6523C5.91326 63.466 5.78099 63.1961 5.73779 62.8424Z" fill="black"/>
<path d="M8.91504 63.8741V60.7021H11.3096V61.2394H9.56563V61.9412H11.1881V62.4758H9.56563V63.3396H11.3716V63.8741H8.91504Z" fill="black"/>
<path d="M13.9903 62.7082L14.622 62.9053C14.5248 63.2508 14.3629 63.5073 14.1388 63.6774C13.912 63.8447 13.6259 63.9284 13.2803 63.9284C12.8511 63.9284 12.4975 63.7853 12.2221 63.4965C11.9468 63.2076 11.8091 62.8162 11.8091 62.3168C11.8091 61.7877 11.9468 61.38 12.2248 61.0858C12.5029 60.7915 12.8673 60.6484 13.3208 60.6484C13.715 60.6484 14.0362 60.7618 14.2846 60.9913C14.4304 61.1263 14.541 61.3206 14.6139 61.5744L13.9687 61.7256C13.9309 61.5609 13.85 61.4313 13.7285 61.3368C13.607 61.2423 13.4612 61.1937 13.2857 61.1937C13.0455 61.1937 12.8511 61.2774 12.7026 61.4475C12.5542 61.6176 12.4786 61.8902 12.4786 62.2682C12.4786 62.6704 12.5515 62.9539 12.6999 63.1239C12.8457 63.294 13.0374 63.3804 13.2722 63.3804C13.445 63.3804 13.5935 63.3264 13.7204 63.2184C13.8473 63.1104 13.9363 62.9404 13.9903 62.7082Z" fill="black"/>
<path d="M15.1865 63.8741V60.7021H16.5579C16.9034 60.7021 17.1545 60.7318 17.3111 60.7885C17.4677 60.8452 17.5918 60.9478 17.6863 61.0936C17.7808 61.2394 17.8267 61.4067 17.8267 61.593C17.8267 61.8306 17.7565 62.0276 17.6134 62.1815C17.4704 62.3354 17.2571 62.4353 16.9736 62.4758C17.114 62.5567 17.2301 62.6458 17.3219 62.743C17.4137 62.8402 17.5378 63.0103 17.6944 63.2586L18.0886 63.8768H17.3084L16.836 63.1857C16.6686 62.9401 16.5552 62.7835 16.4931 62.7187C16.431 62.6539 16.3662 62.6107 16.296 62.5864C16.2259 62.5621 16.1179 62.5513 15.9667 62.5513H15.8344V63.8741H15.1865ZM15.8371 62.0438H16.3203C16.6335 62.0438 16.8279 62.0303 16.9061 62.006C16.9844 61.979 17.0438 61.9358 17.0897 61.8711C17.1356 61.8063 17.1572 61.728 17.1572 61.6335C17.1572 61.5282 17.1275 61.4418 17.0708 61.3743C17.0141 61.3069 16.9304 61.2664 16.8252 61.2502C16.7712 61.2421 16.6146 61.2394 16.35 61.2394H15.8398V62.0438H15.8371Z" fill="black"/>
<path d="M18.4419 63.8741V60.7021H20.8364V61.2394H19.0925V61.9412H20.7149V62.4758H19.0925V63.3396H20.8985V63.8741H18.4419Z" fill="black"/>
<path d="M22.1781 63.8741V61.2394H21.2197V60.7021H23.787V61.2394H22.8314V63.8741H22.1781Z" fill="black"/>
<path d="M26.7863 63.8741H26.0764L25.7956 63.1533H24.5052L24.238 63.8741H23.5469L24.8049 60.7021H25.496L26.7863 63.8741ZM25.585 62.6188L25.1396 61.4418L24.7023 62.6188H25.585Z" fill="black"/>
<path d="M27.1348 63.8741V60.7021H28.5061C28.8517 60.7021 29.1027 60.7318 29.2593 60.7885C29.4159 60.8452 29.5401 60.9478 29.6346 61.0936C29.729 61.2394 29.7749 61.4067 29.7749 61.593C29.7749 61.8306 29.7047 62.0276 29.5617 62.1815C29.4186 62.3354 29.2053 62.4353 28.9219 62.4758C29.0623 62.5567 29.1783 62.6458 29.2701 62.743C29.3619 62.8402 29.4861 63.0103 29.6427 63.2586L30.0368 63.8768H29.2566L28.7842 63.1857C28.6168 62.9401 28.5034 62.7835 28.4414 62.7187C28.3793 62.6539 28.3145 62.6107 28.2443 62.5864C28.1741 62.5621 28.0661 62.5513 27.9149 62.5513H27.7827V63.8741H27.1348ZM27.7881 62.0438H28.2713C28.5844 62.0438 28.7788 62.0303 28.8571 62.006C28.9354 61.979 28.9948 61.9358 29.0407 61.8711C29.0865 61.8063 29.1081 61.728 29.1081 61.6335C29.1081 61.5282 29.0784 61.4418 29.0218 61.3743C28.9651 61.3069 28.8814 61.2664 28.7761 61.2502C28.7221 61.2421 28.5655 61.2394 28.301 61.2394H27.7908V62.0438H27.7881Z" fill="black"/>
<path d="M30.2988 60.5214L30.6039 59.8735H31.2977L30.693 60.5214H30.2988ZM30.3717 63.8743V60.7023H31.025V63.8743H30.3717Z" fill="black"/>
<path d="M34.5583 63.8741H33.8483L33.5676 63.1533H32.2772L32.0099 63.8741H31.3188L32.5768 60.7021H33.2652L34.5583 63.8741ZM33.357 62.6188L32.9116 61.4418L32.4743 62.6188H33.357Z" fill="black"/>
<path d="M35.989 60.7021H37.1822C37.4522 60.7021 37.6547 60.721 37.7977 60.7615C37.9867 60.8155 38.1487 60.9127 38.2837 61.0531C38.4186 61.1935 38.5212 61.3635 38.5914 61.566C38.6616 61.7685 38.6967 62.0195 38.6967 62.3165C38.6967 62.5783 38.6643 62.8024 38.5968 62.9914C38.5158 63.2208 38.3997 63.4098 38.2513 63.5529C38.1379 63.6609 37.9867 63.7445 37.7923 63.8066C37.6493 63.8525 37.4549 63.8741 37.2146 63.8741H35.9863V60.7021H35.989ZM36.6423 61.2394V63.3396H37.1283C37.3091 63.3396 37.4414 63.3288 37.5224 63.3099C37.6277 63.2829 37.7168 63.2397 37.7842 63.1776C37.8544 63.1155 37.9111 63.013 37.9543 62.8726C37.9975 62.7295 38.0218 62.5378 38.0218 62.2922C38.0218 62.0465 38.0002 61.8576 37.9543 61.728C37.9084 61.5984 37.849 61.4931 37.768 61.4202C37.6871 61.3473 37.5872 61.296 37.4657 61.2718C37.3739 61.2502 37.1957 61.2421 36.9312 61.2421H36.6423V61.2394Z" fill="black"/>
<path d="M39.25 63.8741V60.7021H41.6445V61.2394H39.9006V61.9412H41.523V62.4758H39.9006V63.3396H41.7039V63.8741H39.25Z" fill="black"/>
<path d="M43.3481 62.8429L43.9825 62.7835C44.0203 62.9914 44.0986 63.1453 44.2147 63.2452C44.3308 63.345 44.4901 63.3909 44.6871 63.3909C44.8977 63.3909 45.057 63.3477 45.1623 63.2587C45.2675 63.1696 45.3215 63.0697 45.3215 62.9536C45.3215 62.878 45.2999 62.8159 45.254 62.7619C45.2081 62.7079 45.1299 62.6647 45.0192 62.6243C44.9436 62.5973 44.7681 62.5514 44.4982 62.4866C44.1472 62.4002 43.9043 62.2976 43.7612 62.1734C43.5641 61.998 43.4642 61.7874 43.4642 61.5363C43.4642 61.3744 43.5101 61.2232 43.6046 61.0828C43.6991 60.9424 43.8314 60.8344 44.0068 60.7616C44.1823 60.6887 44.3956 60.6509 44.6412 60.6509C45.0462 60.6509 45.3512 60.7373 45.5564 60.9127C45.7616 61.0882 45.8695 61.3204 45.8803 61.6119L45.227 61.6389C45.2001 61.4769 45.138 61.3582 45.0462 61.288C44.9544 61.2178 44.8167 61.18 44.6331 61.18C44.4442 61.18 44.2957 61.2178 44.1877 61.2934C44.1175 61.342 44.0851 61.4068 44.0851 61.4904C44.0851 61.566 44.1175 61.6308 44.1823 61.6821C44.2633 61.7496 44.4631 61.8198 44.7816 61.8954C45.1002 61.9683 45.3323 62.0439 45.4862 62.1248C45.6401 62.2058 45.7562 62.3111 45.8425 62.4461C45.9289 62.5811 45.9721 62.7511 45.9721 62.9509C45.9721 63.1318 45.9208 63.3018 45.8183 63.4611C45.7157 63.6204 45.5699 63.7365 45.3809 63.8148C45.1919 63.893 44.9598 63.9308 44.679 63.9308C44.2714 63.9308 43.9582 63.8391 43.7369 63.6528C43.5209 63.4665 43.3913 63.1966 43.3481 62.8429Z" fill="black"/>
<path d="M49.4387 63.8741H48.7287L48.448 63.1533H47.1576L46.8903 63.8741H46.1992L47.4572 60.7021H48.1456L49.4387 63.8741ZM48.2374 62.6188L47.792 61.4418L47.3546 62.6188H48.2374Z" fill="black"/>
<path d="M49.7998 63.8745V60.7295H50.4531V63.34H52.0755V63.8745H49.7998Z" fill="black"/>
<path d="M52.5347 60.7021H53.188V62.4191C53.188 62.6917 53.1961 62.8699 53.2123 62.9482C53.2393 63.0778 53.3067 63.183 53.412 63.2613C53.5173 63.3396 53.6604 63.3801 53.844 63.3801C54.0302 63.3801 54.1679 63.3423 54.2624 63.2694C54.3569 63.1965 54.4136 63.1048 54.4325 62.9968C54.4514 62.8888 54.4622 62.7079 54.4622 62.4569V60.7021H55.1155V62.3678C55.1155 62.7484 55.0966 63.0184 55.0615 63.1749C55.0264 63.3315 54.9616 63.4638 54.8671 63.5718C54.7726 63.6798 54.6457 63.7661 54.4865 63.8309C54.3272 63.8957 54.1193 63.9281 53.8656 63.9281C53.5578 63.9281 53.3229 63.893 53.1637 63.8228C53.0044 63.7526 52.8775 63.6609 52.7857 63.5502C52.6939 63.4395 52.6319 63.3207 52.6022 63.1992C52.559 63.0184 52.5374 62.7484 52.5374 62.3948V60.7021H52.5347Z" fill="black"/>
<path d="M55.7957 60.7021H56.9889C57.2588 60.7021 57.4613 60.721 57.6044 60.7615C57.7933 60.8155 57.9553 60.9127 58.0903 61.0531C58.2253 61.1935 58.3279 61.3635 58.3981 61.566C58.4682 61.7685 58.5033 62.0195 58.5033 62.3165C58.5033 62.5783 58.4709 62.8024 58.4035 62.9914C58.3225 63.2208 58.2064 63.4098 58.0579 63.5529C57.9445 63.6609 57.7933 63.7445 57.599 63.8066C57.4559 63.8525 57.2615 63.8741 57.0213 63.8741H55.793V60.7021H55.7957ZM56.449 61.2394V63.3396H56.9349C57.1158 63.3396 57.248 63.3288 57.329 63.3099C57.4343 63.2829 57.5234 63.2397 57.5909 63.1776C57.6611 63.1155 57.7178 63.013 57.761 62.8726C57.8041 62.7295 57.8284 62.5378 57.8284 62.2922C57.8284 62.0465 57.8068 61.8576 57.761 61.728C57.7151 61.5984 57.6557 61.4931 57.5747 61.4202C57.4937 61.3473 57.3938 61.296 57.2723 61.2718C57.1805 61.2502 57.0024 61.2421 56.7378 61.2421H56.449V61.2394Z" fill="black"/>
<path d="M17.7452 37.0219H16.6437L16.2064 35.88H14.1979L13.7822 37.0219H12.7051L14.6623 31.998H15.734L17.7452 37.0219ZM15.8798 35.035L15.1887 33.1697L14.5111 35.035H15.8798Z" fill="white"/>
<path d="M17.8477 37.0219V36.1068L20.4878 32.8484H18.1473V31.998H21.8241V32.7863L19.0733 36.177H21.9321V37.0246H17.8477V37.0219Z" fill="white"/>
<path d="M22.5635 31.998H23.5785V34.7192C23.5785 35.1511 23.592 35.4319 23.6163 35.5587C23.6595 35.7639 23.7621 35.9286 23.9268 36.0528C24.0887 36.1769 24.3128 36.239 24.5962 36.239C24.8851 36.239 25.1011 36.1796 25.2468 36.0636C25.3926 35.9448 25.4817 35.8017 25.5114 35.6289C25.5411 35.4562 25.5573 35.1727 25.5573 34.7759V31.9953H26.5723V34.6355C26.5723 35.2375 26.5453 35.664 26.4913 35.9151C26.4374 36.1661 26.3348 36.374 26.189 36.5468C26.0432 36.7195 25.8434 36.8545 25.5978 36.9571C25.3521 37.0597 25.0282 37.111 24.6313 37.111C24.1508 37.111 23.7891 37.0543 23.5407 36.9436C23.2924 36.8329 23.098 36.6899 22.9522 36.5117C22.8091 36.3335 22.7147 36.1499 22.6688 35.9556C22.6013 35.6667 22.5689 35.2429 22.5689 34.6814V31.998H22.5635ZM23.9457 31.7119L24.4181 30.686H25.4979L24.5558 31.7119H23.9457Z" fill="white"/>
<path d="M30.8541 35.1756L31.8367 35.4888C31.6855 36.0368 31.4345 36.4444 31.0835 36.7117C30.7326 36.9789 30.2872 37.1112 29.7472 37.1112C29.0804 37.1112 28.5324 36.8844 28.1032 36.4282C27.674 35.972 27.458 35.3484 27.458 34.5574C27.458 33.7206 27.674 33.0727 28.1059 32.6083C28.5378 32.1467 29.1047 31.9146 29.8093 31.9146C30.4248 31.9146 30.9243 32.0954 31.3076 32.4599C31.5371 32.6758 31.7071 32.9836 31.8205 33.3858L30.8163 33.6261C30.7569 33.3669 30.6327 33.159 30.4437 33.0079C30.2548 32.8567 30.0253 32.7811 29.7553 32.7811C29.3828 32.7811 29.0804 32.9161 28.8483 33.1833C28.6161 33.4506 28.5 33.8825 28.5 34.4818C28.5 35.1162 28.6134 35.5697 28.8429 35.8397C29.0724 36.1097 29.3693 36.2446 29.7337 36.2446C30.0037 36.2446 30.2359 36.1583 30.4302 35.9882C30.6246 35.8181 30.7704 35.5428 30.8541 35.1756Z" fill="white"/>
<path d="M37.2415 37.0219H36.1374L35.7 35.88H33.6916L33.2759 37.0219H32.1987L34.1559 31.998H35.2276L37.2415 37.0219ZM35.3734 35.035L34.6823 33.1697L34.0047 35.035H35.3734Z" fill="white"/>
<path d="M37.7812 37.0219V31.998H39.9166C40.4538 31.998 40.8425 32.0439 41.0882 32.133C41.3339 32.2221 41.5255 32.3841 41.6713 32.6135C41.8171 32.843 41.89 33.1076 41.89 33.4045C41.89 33.7824 41.7793 34.0929 41.5579 34.3386C41.3366 34.5842 41.0045 34.7381 40.5645 34.8029C40.7832 34.9298 40.964 35.0701 41.1071 35.224C41.2502 35.3779 41.4418 35.6478 41.6848 36.0393L42.2976 37.0192H41.0855L40.3512 35.9259C40.0921 35.5345 39.9139 35.2888 39.8167 35.1862C39.7195 35.0836 39.6196 35.0161 39.5117 34.9757C39.4037 34.9379 39.2336 34.919 39.0015 34.919H38.7963V37.0165H37.7812V37.0219ZM38.7963 34.1226H39.5468C40.0327 34.1226 40.3377 34.101 40.4592 34.0605C40.5807 34.02 40.6752 33.9471 40.7427 33.8472C40.8102 33.7474 40.8452 33.6205 40.8452 33.4693C40.8452 33.2992 40.7994 33.1643 40.7103 33.059C40.6212 32.9537 40.4916 32.8889 40.3269 32.8619C40.2459 32.8511 39.9976 32.8457 39.5873 32.8457H38.7963V34.1226Z" fill="white"/>
<path d="M42.8457 37.0219V31.998H46.5711V32.8484H43.8607V33.9633H46.3821V34.811H43.8607V36.1797H46.6683V37.0273H42.8457V37.0219Z" fill="white"/>
<path d="M47.2729 35.3887L48.261 35.2915C48.3204 35.6235 48.4419 35.8665 48.6227 36.0204C48.8036 36.1769 49.0493 36.2525 49.357 36.2525C49.6836 36.2525 49.9293 36.1824 50.0967 36.0447C50.2614 35.907 50.345 35.745 50.345 35.5588C50.345 35.44 50.3099 35.3401 50.2398 35.2564C50.1696 35.1727 50.0481 35.0998 49.8753 35.0377C49.7565 34.9972 49.4866 34.9244 49.0628 34.8191C48.5201 34.6841 48.1368 34.5194 47.9181 34.3224C47.6104 34.047 47.4565 33.7096 47.4565 33.31C47.4565 33.0536 47.5294 32.816 47.6752 32.5919C47.821 32.3679 48.0288 32.2005 48.3015 32.0817C48.5741 31.9656 48.9035 31.9062 49.2895 31.9062C49.9212 31.9062 50.3936 32.0439 50.7149 32.322C51.0334 32.5973 51.2008 32.9672 51.217 33.4288L50.202 33.4747C50.1588 33.2155 50.0643 33.032 49.9212 32.9186C49.7781 32.8052 49.5649 32.7485 49.2787 32.7485C48.9845 32.7485 48.7523 32.8079 48.5876 32.9294C48.4796 33.0077 48.4257 33.1103 48.4257 33.2425C48.4257 33.3613 48.4769 33.4639 48.5768 33.5476C48.7037 33.6556 49.0142 33.7662 49.5082 33.8823C50.0022 33.9984 50.3666 34.1199 50.6042 34.2441C50.8418 34.3682 51.0253 34.5383 51.1603 34.7543C51.2926 34.9703 51.3601 35.2375 51.3601 35.5534C51.3601 35.8422 51.2791 36.1122 51.1198 36.3632C50.9605 36.6143 50.7338 36.8005 50.4422 36.9247C50.1507 37.0462 49.7862 37.1083 49.3489 37.1083C48.7145 37.1083 48.2259 36.9625 47.8857 36.6683C47.5402 36.3767 47.3377 35.9502 47.2729 35.3887Z" fill="white"/>
</svg>
