<svg width="311" height="25" viewBox="0 0 311 25" fill="none" xmlns="http://www.w3.org/2000/svg">
<path d="M308.74 3.07227H2.37646V21.8466H308.74V3.07227Z" fill="black"/>
<path d="M308.313 3.49889V21.4199H2.80357V3.49889H308.313ZM309.167 2.64551H1.9502V22.2732H309.167V2.64551Z" fill="black"/>
<path d="M310.021 1.79234V23.9802H1.09752V1.79234H310.021ZM310.874 0.938965H0.244141V24.8336H310.874V0.938965Z" fill="black"/>
<path d="M8.82882 12.7068L10.1942 13.1335C9.98088 13.8845 9.63953 14.4477 9.1531 14.8061C8.66668 15.1731 8.05224 15.3523 7.30127 15.3523C6.37108 15.3523 5.61158 15.0365 5.01421 14.4136C4.41685 13.7906 4.11816 12.9372 4.11816 11.8534C4.11816 10.7099 4.41685 9.81385 5.01421 9.18235C5.61158 8.55085 6.40522 8.22656 7.37807 8.22656C8.23145 8.22656 8.92269 8.47404 9.46032 8.97753C9.77607 9.27622 10.015 9.69437 10.1772 10.2491L8.78615 10.5819C8.70081 10.2235 8.53013 9.94186 8.27412 9.73704C8.01811 9.53223 7.69382 9.42983 7.31834 9.42983C6.79778 9.42983 6.37962 9.60904 6.05533 9.97599C5.73105 10.3429 5.56891 10.9403 5.56891 11.7596C5.56891 12.63 5.73105 13.253 6.0468 13.6199C6.36255 13.9869 6.77217 14.1746 7.2842 14.1746C7.65969 14.1746 7.98397 14.0551 8.24852 13.8247C8.51307 13.5943 8.70934 13.2103 8.82882 12.7068Z" fill="white"/>
<path d="M11.125 11.8364C11.125 11.1366 11.2274 10.5478 11.4407 10.0699C11.6029 9.71998 11.8162 9.40423 12.0893 9.12261C12.3624 8.84099 12.6611 8.63618 12.9939 8.49964C13.4291 8.32043 13.9326 8.22656 14.4958 8.22656C15.5199 8.22656 16.3477 8.54231 16.9621 9.17381C17.5765 9.80531 17.8838 10.6758 17.8838 11.8022C17.8838 12.9116 17.5765 13.7821 16.9621 14.4136C16.3477 15.0451 15.5284 15.3523 14.5044 15.3523C13.4633 15.3523 12.644 15.0365 12.0296 14.4136C11.4152 13.7906 11.125 12.9287 11.125 11.8364ZM12.5757 11.7852C12.5757 12.5617 12.755 13.1591 13.1219 13.5602C13.4889 13.9613 13.9497 14.1661 14.5129 14.1661C15.0761 14.1661 15.537 13.9698 15.8954 13.5687C16.2538 13.1676 16.433 12.5703 16.433 11.7681C16.433 10.9744 16.2538 10.3856 15.9039 10.0016C15.554 9.60904 15.0847 9.42129 14.5044 9.42129C13.9241 9.42129 13.4547 9.61757 13.0963 10.0101C12.7464 10.4027 12.5757 10.9915 12.5757 11.7852Z" fill="white"/>
<path d="M19.001 15.233V8.34619H20.3749L23.2337 12.9459V8.34619H24.5394V15.233H23.1228L20.3066 10.7442V15.233H19.001Z" fill="white"/>
<path d="M27.5942 15.2327V9.50653H25.5205V8.3374H31.0675V9.50653H29.0023V15.2327H27.5942Z" fill="white"/>
<path d="M31.938 15.233V8.34619H33.3461V15.233H31.938Z" fill="white"/>
<path d="M34.6865 15.233V8.34619H39.858V9.51532H36.0946V11.0429H39.5935V12.2035H36.0946V14.0809H39.9945V15.2415H34.6865V15.233Z" fill="white"/>
<path d="M41.2061 15.233V8.34619H42.58L45.4388 12.9459V8.34619H46.7445V15.233H45.3279L42.5117 10.7442V15.233H41.2061Z" fill="white"/>
<path d="M48.2295 15.233V8.34619H53.401V9.51532H49.6376V11.0429H53.1364V12.2035H49.6376V14.0809H53.5375V15.2415H48.2295V15.233Z" fill="white"/>
<path d="M57.4375 15.233V8.34619H62.609V9.51532H58.8456V11.0429H62.3444V12.2035H58.8456V14.0809H62.7455V15.2415H57.4375V15.233Z" fill="white"/>
<path d="M63.9312 8.34619H66.5084C67.0887 8.34619 67.5324 8.38886 67.8396 8.4742C68.2493 8.59367 68.5991 8.80702 68.8893 9.1057C69.1794 9.41292 69.4013 9.77987 69.5549 10.2236C69.7085 10.6674 69.7853 11.205 69.7853 11.8536C69.7853 12.4168 69.7171 12.9118 69.572 13.3214C69.4013 13.8249 69.1453 14.226 68.821 14.5417C68.5735 14.7807 68.2493 14.9599 67.8311 15.0879C67.5239 15.1818 67.1057 15.233 66.5852 15.233H63.9312V8.34619ZM65.3478 9.51532V14.0809H66.3974C66.79 14.0809 67.0716 14.0553 67.2508 14.0126C67.4812 13.9529 67.669 13.859 67.8226 13.7225C67.9762 13.5859 68.0956 13.3641 68.1895 13.0568C68.2834 12.7496 68.3346 12.3315 68.3346 11.7938C68.3346 11.2647 68.2834 10.8551 68.1895 10.565C68.0956 10.2834 67.9591 10.0615 67.7884 9.89934C67.6178 9.7372 67.3959 9.63479 67.1399 9.57506C66.9436 9.53239 66.5596 9.50679 65.9793 9.50679H65.3478V9.51532Z" fill="white"/>
<path d="M70.9722 8.34619H72.3802V12.0755C72.3802 12.6643 72.3973 13.0483 72.4314 13.2275C72.4912 13.5091 72.6363 13.7395 72.8581 13.9102C73.0885 14.0809 73.3958 14.1662 73.7883 14.1662C74.1894 14.1662 74.4881 14.0894 74.6929 13.9273C74.8977 13.7652 75.0172 13.5689 75.0599 13.3299C75.1025 13.091 75.1196 12.707 75.1196 12.1608V8.34619H76.5277V11.9645C76.5277 12.7923 76.4935 13.3726 76.4167 13.7139C76.3399 14.0553 76.2034 14.3454 75.9986 14.5759C75.7938 14.8148 75.5207 15.0025 75.1793 15.1391C74.838 15.2756 74.3857 15.3524 73.8395 15.3524C73.1739 15.3524 72.6704 15.2756 72.3205 15.122C71.9706 14.9684 71.7061 14.7721 71.5013 14.5332C71.305 14.2942 71.1684 14.0382 71.1087 13.7651C71.0148 13.3726 70.9722 12.7838 70.9722 12.0157V8.34619Z" fill="white"/>
<path d="M78.0557 15.233V8.39746H79.4637V14.0724H82.9626V15.233H78.0557Z" fill="white"/>
<path d="M88.4411 12.7068L89.8065 13.1335C89.5932 13.8845 89.2518 14.4477 88.7654 14.8061C88.279 15.1731 87.6645 15.3523 86.9136 15.3523C85.9834 15.3523 85.2239 15.0365 84.6265 14.4136C84.0291 13.7906 83.7305 12.9372 83.7305 11.8534C83.7305 10.7099 84.0291 9.81385 84.6265 9.18235C85.2239 8.55085 86.0175 8.22656 86.9904 8.22656C87.8438 8.22656 88.535 8.47404 89.0726 8.97753C89.3884 9.27622 89.6273 9.69437 89.7895 10.2491L88.3985 10.5819C88.3131 10.2235 88.1424 9.94186 87.8864 9.73704C87.6304 9.53223 87.3061 9.42983 86.9306 9.42983C86.4101 9.42983 85.9919 9.60904 85.6676 9.97599C85.3434 10.3429 85.1812 10.9403 85.1812 11.7596C85.1812 12.63 85.3434 13.253 85.6591 13.6199C85.9749 13.9869 86.3845 14.1746 86.8965 14.1746C87.272 14.1746 87.5963 14.0551 87.8608 13.8247C88.1254 13.5943 88.3216 13.2103 88.4411 12.7068Z" fill="white"/>
<path d="M90.7275 11.8364C90.7275 11.1366 90.8299 10.5478 91.0433 10.0699C91.2054 9.71998 91.4188 9.40423 91.6919 9.12261C91.9649 8.84099 92.2636 8.63618 92.5964 8.49964C93.0317 8.32043 93.5352 8.22656 94.0984 8.22656C95.1224 8.22656 95.9502 8.54231 96.5647 9.17381C97.1791 9.80531 97.4863 10.6758 97.4863 11.8022C97.4863 12.9116 97.1791 13.7821 96.5647 14.4136C95.9502 15.0451 95.131 15.3523 94.1069 15.3523C93.0658 15.3523 92.2466 15.0365 91.6321 14.4136C91.0177 13.7906 90.7275 12.9287 90.7275 11.8364ZM92.1783 11.7852C92.1783 12.5617 92.3575 13.1591 92.7244 13.5602C93.0914 13.9613 93.5522 14.1661 94.1155 14.1661C94.6787 14.1661 95.1395 13.9698 95.4979 13.5687C95.8563 13.1676 96.0356 12.5703 96.0356 11.7681C96.0356 10.9744 95.8564 10.3856 95.5065 10.0016C95.1566 9.60904 94.6872 9.42129 94.1069 9.42129C93.5266 9.42129 93.0573 9.61757 92.6988 10.0101C92.3575 10.4027 92.1783 10.9915 92.1783 11.7852Z" fill="white"/>
<path d="M98.6309 15.233V8.39746H100.039V14.0724H103.538V15.233H98.6309Z" fill="white"/>
<path d="M104.262 11.8364C104.262 11.1366 104.365 10.5478 104.578 10.0699C104.74 9.71998 104.953 9.40423 105.227 9.12261C105.5 8.84099 105.798 8.63618 106.131 8.49964C106.566 8.32043 107.07 8.22656 107.633 8.22656C108.657 8.22656 109.485 8.54231 110.099 9.17381C110.714 9.80531 111.021 10.6758 111.021 11.8022C111.021 12.9116 110.714 13.7821 110.099 14.4136C109.485 15.0451 108.666 15.3523 107.642 15.3523C106.6 15.3523 105.781 15.0365 105.167 14.4136C104.552 13.7906 104.262 12.9287 104.262 11.8364ZM105.713 11.7852C105.713 12.5617 105.892 13.1591 106.259 13.5602C106.626 13.9613 107.087 14.1661 107.65 14.1661C108.213 14.1661 108.674 13.9698 109.033 13.5687C109.391 13.1676 109.57 12.5703 109.57 11.7681C109.57 10.9744 109.391 10.3856 109.041 10.0016C108.691 9.60904 108.222 9.42129 107.642 9.42129C107.061 9.42129 106.592 9.61757 106.234 10.0101C105.892 10.4027 105.713 10.9915 105.713 11.7852Z" fill="white"/>
<path d="M112.131 15.233V8.34619H115.092C115.835 8.34619 116.381 8.40593 116.714 8.53394C117.046 8.66194 117.319 8.87528 117.524 9.19104C117.729 9.50679 117.831 9.86521 117.831 10.2748C117.831 10.7954 117.678 11.2221 117.371 11.5549C117.063 11.8877 116.603 12.1011 115.988 12.1949C116.295 12.3741 116.543 12.5619 116.739 12.7752C116.935 12.9886 117.208 13.3555 117.541 13.8932L118.395 15.2415H116.714L115.707 13.7395C115.348 13.2019 115.101 12.8691 114.964 12.724C114.828 12.5875 114.691 12.4851 114.537 12.4339C114.384 12.3827 114.153 12.3571 113.829 12.3571H113.547V15.233H112.131ZM113.547 11.2647H114.589C115.263 11.2647 115.689 11.2391 115.852 11.1794C116.022 11.1197 116.15 11.0258 116.244 10.8893C116.338 10.7527 116.389 10.582 116.389 10.3687C116.389 10.1383 116.329 9.95054 116.201 9.80547C116.073 9.66039 115.903 9.57506 115.672 9.53239C115.561 9.51532 115.212 9.50679 114.648 9.50679H113.547V11.2647Z" fill="white"/>
<path d="M125.459 15.233H123.923L123.317 13.6713H120.527L119.955 15.233H118.461L121.175 8.34619H122.669L125.459 15.233ZM122.865 12.5107L121.901 9.95055L120.962 12.5107H122.865Z" fill="white"/>
<path d="M126.22 15.233V8.34619H127.594L130.452 12.9459V8.34619H131.758V15.233H130.342L127.525 10.7442V15.233H126.22Z" fill="white"/>
<path d="M134.812 15.2327V9.50653H132.739V8.3374H138.286V9.50653H136.221V15.2327H134.812Z" fill="white"/>
<path d="M139.199 15.233V8.34619H144.371V9.51532H140.607V11.0429H144.106V12.2035H140.607V14.0809H144.507V15.2415H139.199V15.233Z" fill="white"/>
<path d="M145.343 12.9972L146.717 12.8692C146.803 13.3215 146.965 13.6543 147.221 13.8677C147.477 14.081 147.81 14.1834 148.245 14.1834C148.697 14.1834 149.038 14.0895 149.269 13.9018C149.499 13.714 149.61 13.4922 149.61 13.2362C149.61 13.074 149.559 12.9375 149.465 12.818C149.371 12.7071 149.201 12.6047 148.962 12.5193C148.799 12.4596 148.424 12.3657 147.835 12.2206C147.076 12.0329 146.547 11.811 146.248 11.5379C145.821 11.1624 145.608 10.6931 145.608 10.1555C145.608 9.80557 145.71 9.47275 145.906 9.17407C146.111 8.86685 146.401 8.63644 146.777 8.4743C147.152 8.31216 147.613 8.23535 148.151 8.23535C149.03 8.23535 149.687 8.4231 150.131 8.80712C150.574 9.19114 150.805 9.69463 150.83 10.3261L149.422 10.3859C149.363 10.036 149.235 9.77997 149.038 9.62636C148.842 9.47275 148.543 9.39595 148.142 9.39595C147.733 9.39595 147.417 9.48129 147.178 9.64343C147.033 9.74583 146.956 9.89091 146.956 10.0701C146.956 10.2323 147.024 10.3688 147.169 10.4883C147.349 10.6333 147.775 10.787 148.467 10.9491C149.149 11.1112 149.661 11.2734 149.986 11.4441C150.31 11.6147 150.574 11.8451 150.754 12.1438C150.941 12.4425 151.035 12.8095 151.035 13.2447C151.035 13.6372 150.924 14.0127 150.702 14.3541C150.481 14.6954 150.165 14.9514 149.764 15.1221C149.363 15.2928 148.851 15.3696 148.245 15.3696C147.366 15.3696 146.683 15.1648 146.214 14.7637C145.719 14.3541 145.437 13.7653 145.343 12.9972Z" fill="white"/>
<path d="M152.162 13.9189H153.502V14.8662C153.502 15.2502 153.468 15.5489 153.4 15.7708C153.331 15.9927 153.203 16.1889 153.024 16.3681C152.836 16.5474 152.606 16.6839 152.316 16.7778L152.051 16.2316C152.324 16.1463 152.512 16.0268 152.623 15.8732C152.734 15.7196 152.802 15.5062 152.802 15.2417H152.154V13.9189H152.162Z" fill="white"/>
<path d="M157.632 15.233V8.34619H159.006L161.865 12.9459V8.34619H163.17V15.233H161.754L158.938 10.7442V15.233H157.632Z" fill="white"/>
<path d="M164.374 11.8364C164.374 11.1366 164.476 10.5478 164.69 10.0699C164.852 9.71998 165.065 9.40423 165.338 9.12261C165.611 8.84099 165.91 8.63618 166.243 8.49964C166.678 8.32043 167.182 8.22656 167.745 8.22656C168.777 8.22656 169.597 8.54231 170.211 9.17381C170.826 9.80531 171.133 10.6758 171.133 11.8022C171.133 12.9116 170.826 13.7821 170.211 14.4136C169.597 15.0451 168.777 15.3523 167.753 15.3523C166.712 15.3523 165.893 15.0365 165.279 14.4136C164.681 13.7906 164.374 12.9287 164.374 11.8364ZM165.825 11.7852C165.825 12.5617 166.004 13.1591 166.371 13.5602C166.738 13.9613 167.199 14.1661 167.762 14.1661C168.325 14.1661 168.786 13.9698 169.144 13.5687C169.503 13.1676 169.682 12.5703 169.682 11.7681C169.682 10.9744 169.503 10.3856 169.153 10.0016C168.803 9.60904 168.334 9.42129 167.753 9.42129C167.173 9.42129 166.704 9.61757 166.345 10.0101C166.004 10.4027 165.825 10.9915 165.825 11.7852Z" fill="white"/>
<path d="M174.956 15.233V8.34619H177.917C178.66 8.34619 179.206 8.40593 179.539 8.53394C179.88 8.66194 180.145 8.87528 180.349 9.19104C180.554 9.50679 180.657 9.86521 180.657 10.2748C180.657 10.7954 180.503 11.2221 180.196 11.5549C179.889 11.8877 179.428 12.1011 178.813 12.1949C179.121 12.3741 179.368 12.5619 179.564 12.7752C179.761 12.9886 180.034 13.3555 180.366 13.8932L181.22 15.2415H179.539L178.523 13.7395C178.165 13.2019 177.917 12.8691 177.781 12.724C177.644 12.5875 177.508 12.4851 177.354 12.4339C177.2 12.3827 176.97 12.3571 176.646 12.3571H176.364V15.233H174.956ZM176.364 11.2647H177.405C178.079 11.2647 178.506 11.2391 178.668 11.1794C178.839 11.1197 178.967 11.0258 179.061 10.8893C179.155 10.7527 179.206 10.582 179.206 10.3687C179.206 10.1383 179.146 9.95054 179.018 9.80547C178.89 9.66039 178.719 9.57506 178.489 9.53239C178.378 9.51532 178.028 9.50679 177.456 9.50679H176.356V11.2647H176.364Z" fill="white"/>
<path d="M181.988 15.233V8.34619H187.159V9.51532H183.396V11.0429H186.903V12.2035H183.396V14.0809H187.296V15.2415H181.988V15.233Z" fill="white"/>
<path d="M192.954 12.7068L194.319 13.1335C194.106 13.8845 193.765 14.4477 193.278 14.8061C192.792 15.1731 192.177 15.3523 191.426 15.3523C190.496 15.3523 189.737 15.0365 189.139 14.4136C188.542 13.7906 188.243 12.9372 188.243 11.8534C188.243 10.7099 188.542 9.81385 189.139 9.18235C189.737 8.55085 190.53 8.22656 191.503 8.22656C192.356 8.22656 193.048 8.47404 193.585 8.97753C193.901 9.27622 194.14 9.69437 194.302 10.2491L192.911 10.5819C192.826 10.2235 192.655 9.94186 192.391 9.73704C192.126 9.53223 191.81 9.42983 191.435 9.42983C190.914 9.42983 190.496 9.60904 190.172 9.97599C189.848 10.3429 189.685 10.9403 189.685 11.7596C189.685 12.63 189.848 13.253 190.163 13.6199C190.479 13.9869 190.897 14.1746 191.401 14.1746C191.776 14.1746 192.1 14.0551 192.365 13.8247C192.63 13.5943 192.834 13.2103 192.954 12.7068Z" fill="white"/>
<path d="M195.241 11.8364C195.241 11.1366 195.343 10.5478 195.556 10.0699C195.719 9.71998 195.932 9.40423 196.205 9.12261C196.478 8.84099 196.777 8.63618 197.11 8.49964C197.545 8.32043 198.048 8.22656 198.612 8.22656C199.644 8.22656 200.463 8.54231 201.078 9.17381C201.692 9.80531 201.999 10.6758 201.999 11.8022C201.999 12.9116 201.692 13.7821 201.078 14.4136C200.463 15.0451 199.644 15.3523 198.62 15.3523C197.579 15.3523 196.76 15.0365 196.145 14.4136C195.548 13.7906 195.241 12.9287 195.241 11.8364ZM196.691 11.7852C196.691 12.5617 196.871 13.1591 197.238 13.5602C197.605 13.9613 198.065 14.1661 198.629 14.1661C199.192 14.1661 199.653 13.9698 200.011 13.5687C200.37 13.1676 200.549 12.5703 200.549 11.7681C200.549 10.9744 200.37 10.3856 200.02 10.0016C199.67 9.60904 199.2 9.42129 198.62 9.42129C198.04 9.42129 197.57 9.61757 197.212 10.0101C196.871 10.4027 196.691 10.9915 196.691 11.7852Z" fill="white"/>
<path d="M203.092 15.233V8.34619H205.2L206.463 13.0483L207.717 8.34619H209.833V15.233H208.528V9.81401L207.145 15.233H205.788L204.406 9.81401V15.233H203.092Z" fill="white"/>
<path d="M211.233 15.233V8.34619H216.404V9.51532H212.641V11.0429H216.148V12.2035H212.641V14.0809H216.541V15.2415H211.233V15.233Z" fill="white"/>
<path d="M217.746 15.233V8.34619H219.12L221.978 12.9459V8.34619H223.284V15.233H221.867L219.051 10.7442V15.233H217.746Z" fill="white"/>
<path d="M224.768 8.34619H227.345C227.925 8.34619 228.369 8.38886 228.676 8.4742C229.086 8.59367 229.436 8.80702 229.726 9.1057C230.016 9.41292 230.238 9.77987 230.391 10.2236C230.545 10.6674 230.622 11.205 230.622 11.8536C230.622 12.4168 230.553 12.9118 230.408 13.3214C230.238 13.8249 229.982 14.226 229.657 14.5417C229.41 14.7807 229.086 14.9599 228.668 15.0879C228.352 15.1818 227.942 15.233 227.422 15.233H224.768V8.34619ZM226.176 9.51532V14.0809H227.225C227.618 14.0809 227.899 14.0553 228.079 14.0126C228.309 13.9529 228.497 13.859 228.65 13.7225C228.804 13.5859 228.924 13.3641 229.017 13.0568C229.111 12.7496 229.162 12.3315 229.162 11.7938C229.162 11.2647 229.111 10.8551 229.017 10.565C228.924 10.2748 228.787 10.0615 228.616 9.89934C228.446 9.7372 228.224 9.63479 227.968 9.57506C227.771 9.53239 227.387 9.50679 226.807 9.50679H226.176V9.51532Z" fill="white"/>
<path d="M238.098 15.233H236.562L235.956 13.6713H233.165L232.594 15.233H231.1L233.814 8.34619H235.307L238.098 15.233ZM235.504 12.5107L234.539 9.95055L233.601 12.5107H235.504Z" fill="white"/>
<path d="M238.857 8.34619H241.648C242.202 8.34619 242.612 8.37179 242.885 8.41446C243.158 8.45713 243.397 8.551 243.61 8.69608C243.824 8.84115 244.003 9.02889 244.148 9.26784C244.293 9.50679 244.361 9.77987 244.361 10.07C244.361 10.3943 244.276 10.693 244.097 10.9575C243.917 11.2306 243.679 11.4269 243.38 11.5634C243.807 11.6829 244.131 11.8962 244.361 12.1864C244.592 12.4851 244.703 12.8264 244.703 13.2275C244.703 13.5433 244.626 13.842 244.481 14.1406C244.336 14.4393 244.131 14.6697 243.875 14.8489C243.619 15.0282 243.303 15.1391 242.928 15.1732C242.689 15.1988 242.125 15.2159 241.229 15.2244H238.857V8.34619ZM240.265 9.48972V11.0855H241.187C241.733 11.0855 242.074 11.077 242.211 11.0599C242.45 11.0343 242.637 10.949 242.782 10.8125C242.919 10.6759 242.987 10.4967 242.987 10.2748C242.987 10.0615 242.928 9.89081 242.808 9.75427C242.689 9.61773 242.509 9.54092 242.279 9.51532C242.142 9.49825 241.741 9.48972 241.076 9.48972H240.265ZM240.265 12.2376V14.0809H241.571C242.074 14.0809 242.398 14.0638 242.535 14.0382C242.748 14.0041 242.919 13.9102 243.047 13.7651C243.175 13.6201 243.243 13.4238 243.243 13.1763C243.243 12.9715 243.192 12.7923 243.09 12.6472C242.987 12.5021 242.842 12.3997 242.646 12.3315C242.45 12.2632 242.04 12.2291 241.4 12.2291H240.265V12.2376Z" fill="white"/>
<path d="M245.923 15.233V8.39746H247.331V14.0724H250.83V15.233H245.923Z" fill="white"/>
<path d="M251.845 15.233V8.34619H257.017V9.51532H253.253V11.0429H256.761V12.2035H253.253V14.0809H257.153V15.2415H251.845V15.233Z" fill="white"/>
<path d="M261.053 15.233V8.34619H266.225V9.51532H262.461V11.0429H265.969V12.2035H262.461V14.0809H266.361V15.2415H261.053V15.233Z" fill="white"/>
<path d="M267.565 15.233V8.34619H268.939L271.798 12.9459V8.34619H273.103V15.233H271.687L268.871 10.7442V15.233H267.565Z" fill="white"/>
<path d="M277.311 15.233V8.34619H278.684L281.543 12.9459V8.34619H282.849V15.233H281.432L278.616 10.7442V15.233H277.311Z" fill="white"/>
<path d="M284.299 15.233V8.34619H285.707V15.233H284.299Z" fill="white"/>
<path d="M287.065 15.2329V8.3461H288.439L291.298 12.9458V8.3461H292.604V15.2329H291.187L288.371 10.7441V15.2329H287.065ZM288.815 7.97061H288.209C288.209 7.90234 288.2 7.8426 288.2 7.79993C288.2 7.46712 288.277 7.21964 288.439 7.04043C288.601 6.86122 288.806 6.77588 289.062 6.77588C289.173 6.77588 289.276 6.78441 289.37 6.81001C289.463 6.83562 289.634 6.90388 289.89 7.01482C290.146 7.12576 290.342 7.1855 290.479 7.1855C290.581 7.1855 290.667 7.15136 290.735 7.09163C290.803 7.03189 290.846 6.92095 290.863 6.77588H291.477C291.477 7.20257 291.392 7.50125 291.238 7.68046C291.085 7.85967 290.88 7.95354 290.633 7.95354C290.522 7.95354 290.419 7.94501 290.317 7.91941C290.24 7.90234 290.061 7.83407 289.771 7.72313C289.48 7.61219 289.267 7.56099 289.131 7.56099C289.028 7.56099 288.951 7.59512 288.892 7.65486C288.849 7.7146 288.815 7.817 288.815 7.97061Z" fill="white"/>
<path d="M293.798 11.8364C293.798 11.1366 293.901 10.5478 294.114 10.0699C294.276 9.71998 294.49 9.40423 294.763 9.12261C295.036 8.84099 295.334 8.63618 295.667 8.49964C296.102 8.32043 296.606 8.22656 297.169 8.22656C298.202 8.22656 299.021 8.54231 299.635 9.17381C300.25 9.80531 300.557 10.6758 300.557 11.8022C300.557 12.9116 300.25 13.7821 299.635 14.4136C299.021 15.0451 298.202 15.3523 297.178 15.3523C296.137 15.3523 295.317 15.0365 294.703 14.4136C294.106 13.7906 293.798 12.9287 293.798 11.8364ZM295.249 11.7852C295.249 12.5617 295.428 13.1591 295.795 13.5602C296.162 13.9613 296.623 14.1661 297.186 14.1661C297.749 14.1661 298.21 13.9698 298.569 13.5687C298.927 13.1676 299.106 12.5703 299.106 11.7681C299.106 10.9744 298.927 10.3856 298.577 10.0016C298.227 9.60904 297.758 9.42129 297.178 9.42129C296.597 9.42129 296.128 9.61757 295.77 10.0101C295.428 10.4027 295.249 10.9915 295.249 11.7852Z" fill="white"/>
<path d="M301.308 12.9972L302.682 12.8692C302.767 13.3215 302.93 13.6543 303.186 13.8677C303.442 14.081 303.774 14.1834 304.21 14.1834C304.662 14.1834 305.003 14.0895 305.234 13.9018C305.464 13.714 305.575 13.4922 305.575 13.2362C305.575 13.074 305.524 12.9375 305.43 12.818C305.336 12.7071 305.165 12.6047 304.926 12.5193C304.764 12.4596 304.389 12.3657 303.8 12.2206C303.049 12.0329 302.511 11.811 302.213 11.5379C301.786 11.1624 301.573 10.6931 301.573 10.1555C301.573 9.80557 301.675 9.47275 301.871 9.17407C302.068 8.87539 302.366 8.63644 302.742 8.4743C303.117 8.31216 303.578 8.23535 304.116 8.23535C304.995 8.23535 305.652 8.4231 306.096 8.80712C306.539 9.1826 306.77 9.69463 306.795 10.3261L305.387 10.3859C305.328 10.036 305.199 9.77997 304.995 9.62636C304.798 9.47275 304.5 9.39595 304.107 9.39595C303.698 9.39595 303.373 9.48129 303.143 9.64343C302.998 9.74583 302.921 9.89091 302.921 10.0701C302.921 10.2323 302.989 10.3688 303.134 10.4883C303.314 10.6333 303.74 10.787 304.431 10.9491C305.114 11.1112 305.626 11.2734 305.95 11.4441C306.275 11.6147 306.539 11.8451 306.719 12.1438C306.906 12.4425 307 12.8095 307 13.2447C307 13.6372 306.889 14.0127 306.667 14.3541C306.445 14.6954 306.13 14.9514 305.729 15.1221C305.319 15.2928 304.815 15.3696 304.21 15.3696C303.331 15.3696 302.648 15.1648 302.179 14.7637C301.709 14.3626 301.402 13.7653 301.308 12.9972Z" fill="white"/>
</svg>
