<svg width="311" height="25" viewBox="0 0 311 25" fill="none" xmlns="http://www.w3.org/2000/svg">
<path d="M308.74 2.59424H2.37646V21.3686H308.74V2.59424Z" fill="black"/>
<path d="M308.313 3.02086V20.9418H2.80357V3.02086H308.313ZM309.167 2.16748H1.9502V21.7952H309.167V2.16748Z" fill="black"/>
<path d="M310.021 1.31432V23.5022H1.09752V1.31432H310.021ZM310.874 0.460938H0.244141V24.3556H310.874V0.460938Z" fill="black"/>
<path d="M18.1905 13.6799L20.341 14.3626C20.0082 15.5659 19.462 16.4534 18.694 17.0337C17.926 17.614 16.9531 17.9041 15.7754 17.9041C14.3162 17.9041 13.1129 17.4092 12.1742 16.4107C11.2355 15.4123 10.7661 14.0468 10.7661 12.323C10.7661 10.4968 11.2355 9.07165 12.1827 8.05613C13.13 7.04061 14.3674 6.53711 15.912 6.53711C17.2603 6.53711 18.3527 6.9382 19.189 7.73184C19.6925 8.2012 20.0679 8.87537 20.3154 9.75435L18.1137 10.2834C17.9857 9.71168 17.7126 9.25939 17.303 8.93511C16.8934 8.61082 16.3899 8.44014 15.801 8.44014C14.9818 8.44014 14.3247 8.7303 13.8212 9.31913C13.3177 9.90796 13.0617 10.8552 13.0617 12.1609C13.0617 13.5519 13.3092 14.5418 13.8127 15.1306C14.3162 15.7195 14.9647 16.0182 15.7669 16.0182C16.3557 16.0182 16.8678 15.8304 17.2859 15.4549C17.7041 15.0794 18.0028 14.4906 18.1905 13.6799Z" fill="white"/>
<path d="M21.792 12.2972C21.792 11.1793 21.9627 10.2405 22.2955 9.48103C22.543 8.9178 22.8843 8.41431 23.3195 7.97055C23.7548 7.52679 24.2241 7.19398 24.7447 6.98063C25.4274 6.69048 26.221 6.54541 27.1171 6.54541C28.7385 6.54541 30.0356 7.0489 31.0085 8.05589C31.9813 9.06288 32.4678 10.4624 32.4678 12.246C32.4678 14.021 31.9813 15.412 31.017 16.4105C30.0527 17.4089 28.7641 17.9124 27.1427 17.9124C25.5042 17.9124 24.2071 17.4175 23.2427 16.419C22.2784 15.4206 21.792 14.0466 21.792 12.2972ZM24.079 12.2204C24.079 13.4663 24.3692 14.405 24.941 15.0536C25.5127 15.7022 26.2466 16.0179 27.1341 16.0179C28.0217 16.0179 28.747 15.7022 29.3103 15.0621C29.8735 14.4221 30.1636 13.4663 30.1636 12.1948C30.1636 10.9318 29.8906 9.99306 29.3359 9.37863C28.7812 8.7642 28.0473 8.44845 27.1341 8.44845C26.221 8.44845 25.4786 8.76419 24.9239 9.38716C24.3692 10.0101 24.079 10.9574 24.079 12.2204Z" fill="white"/>
<path d="M34.2168 17.7249V6.7334H36.3758L40.8732 14.0725V6.7334H42.9383V17.7249H40.711L36.282 10.5565V17.7249H34.2168Z" fill="white"/>
<path d="M47.7604 17.7247V8.58498H44.5005V6.72461H53.2391V8.58498H49.9877V17.7247H47.7604Z" fill="white"/>
<path d="M54.6045 17.7249V6.7334H56.8233V17.7249H54.6045Z" fill="white"/>
<path d="M58.939 17.7249V6.7334H67.0887V8.59377H61.1577V11.0344H66.6791V12.8863H61.1577V15.8816H67.3021V17.7335H58.939V17.7249Z" fill="white"/>
<path d="M69.2051 17.7249V6.7334H71.3641L75.8614 14.0725V6.7334H77.9266V17.7249H75.6993L71.2703 10.5565V17.7249H69.2051Z" fill="white"/>
<path d="M80.2729 17.7249V6.7334H88.4227V8.59377H82.4917V11.0344H88.0131V12.8863H82.4917V15.8816H88.6361V17.7335H80.2729V17.7249Z" fill="white"/>
<path d="M101.821 13.6799L103.972 14.3626C103.639 15.5659 103.093 16.4534 102.325 17.0337C101.557 17.614 100.584 17.9041 99.4063 17.9041C97.947 17.9041 96.7438 17.4092 95.805 16.4107C94.8663 15.4123 94.397 14.0468 94.397 12.323C94.397 10.4968 94.8663 9.07165 95.8136 8.05613C96.7608 7.04061 97.9982 6.53711 99.5428 6.53711C100.891 6.53711 101.984 6.9382 102.82 7.73184C103.323 8.2012 103.699 8.87537 103.946 9.75435L101.745 10.2834C101.617 9.71168 101.343 9.25939 100.934 8.93511C100.524 8.61082 100.021 8.44014 99.4319 8.44014C98.6127 8.44014 97.9556 8.7303 97.4521 9.31913C96.9486 9.90796 96.6926 10.8552 96.6926 12.1609C96.6926 13.5519 96.94 14.5418 97.4435 15.1306C97.947 15.7195 98.5956 16.0182 99.3978 16.0182C99.9866 16.0182 100.499 15.8304 100.917 15.4549C101.335 15.0794 101.642 14.4906 101.821 13.6799Z" fill="white"/>
<path d="M115.8 17.7249H113.385L112.429 15.2245H108.034L107.129 17.7249H104.774L109.058 6.7334H111.405L115.8 17.7249ZM111.712 13.3727L110.193 9.29354L108.708 13.3727H111.712Z" fill="white"/>
<path d="M116.986 17.7249V6.7334H124.521V8.59377H119.205V11.1966H123.796V13.0569H119.205V17.7335H116.986V17.7249Z" fill="white"/>
<path d="M126.356 17.7249V6.7334H134.506V8.59377H128.575V11.0344H134.097V12.8863H128.575V15.8816H134.72V17.7335H126.356V17.7249Z" fill="white"/>
<path d="M136.281 6.10181L137.314 3.85742H139.678L137.613 6.10181H136.281ZM136.537 17.7248V6.73331H138.756V17.7248H136.537Z" fill="white"/>
<path d="M140.889 17.7249V6.7334H143.048L147.546 14.0725V6.7334H149.611V17.7249H147.383L142.954 10.5565V17.7249H140.889Z" fill="white"/>
<path d="M161.883 17.7249H159.468L158.512 15.2245H154.117L153.213 17.7249H150.857L155.141 6.7334H157.488L161.883 17.7249ZM157.795 13.3727L156.276 9.29354L154.792 13.3727H157.795Z" fill="white"/>
<path d="M166.755 17.7249V6.7334H174.905V8.59377H168.974V11.0344H174.496V12.8863H168.974V15.8816H175.118V17.7335H166.755V17.7249Z" fill="white"/>
<path d="M179.803 17.7249L175.869 6.7334H178.276L181.058 14.8746L183.754 6.7334H186.11L182.167 17.7249H179.803Z" fill="white"/>
<path d="M187.177 17.7249V6.7334H189.396V17.7249H187.177Z" fill="white"/>
<path d="M193.986 17.7247V8.58498H190.726V6.72461H199.465V8.58498H196.213V17.7247H193.986Z" fill="white"/>
<path d="M209.671 17.7249H207.256L206.3 15.2245H201.905L201.001 17.7249H198.646L202.929 6.7334H205.276L209.671 17.7249ZM205.583 13.3727L204.064 9.29354L202.58 13.3727H205.583Z" fill="white"/>
<path d="M210.858 17.7249V6.7334H215.534C216.712 6.7334 217.565 6.83581 218.095 7.03208C218.624 7.22836 219.05 7.57825 219.375 8.08174C219.699 8.58523 219.853 9.16553 219.853 9.8141C219.853 10.6419 219.605 11.3246 219.127 11.8622C218.649 12.3998 217.915 12.7412 216.951 12.8777C217.429 13.1593 217.83 13.4666 218.137 13.7994C218.444 14.1322 218.871 14.7296 219.4 15.5829L220.74 17.7249H218.086L216.482 15.3355C215.91 14.4821 215.526 13.9445 215.313 13.7226C215.099 13.5007 214.877 13.3471 214.647 13.2618C214.417 13.1764 214.041 13.1337 213.529 13.1337H213.077V17.7249H210.858ZM213.077 11.3758H214.724C215.79 11.3758 216.456 11.3331 216.721 11.2392C216.985 11.1454 217.19 10.9918 217.344 10.7784C217.497 10.5651 217.565 10.2835 217.565 9.95064C217.565 9.58369 217.463 9.285 217.267 9.05459C217.071 8.82418 216.789 8.67911 216.43 8.61937C216.251 8.59377 215.714 8.58523 214.809 8.58523H213.077V11.3758Z" fill="white"/>
<path d="M226.21 17.7249V6.7334H234.36V8.59377H228.429V11.0344H233.95V12.8863H228.429V15.8816H234.573V17.7335H226.21V17.7249Z" fill="white"/>
<path d="M236.476 17.7249V6.7334H238.635L243.132 14.0725V6.7334H245.198V17.7249H242.97L238.541 10.5565V17.7249H236.476Z" fill="white"/>
<path d="M251.837 17.7249V6.7334H253.996L258.493 14.0725V6.7334H260.558V17.7249H258.331L253.902 10.5565V17.7249H251.837Z" fill="white"/>
<path d="M262.846 17.7249V6.7334H265.064V17.7249H262.846Z" fill="white"/>
<path d="M267.198 17.7248V6.73326H269.357L273.855 14.0723V6.73326H275.92V17.7248H273.692L269.263 10.5564V17.7248H267.198ZM269.963 6.11883H269.007C268.999 6.00789 268.999 5.91402 268.999 5.84575C268.999 5.31666 269.127 4.91557 269.383 4.63395C269.639 4.35234 269.963 4.20726 270.364 4.20726C270.543 4.20726 270.706 4.22433 270.851 4.267C270.996 4.30967 271.277 4.41207 271.67 4.59128C272.062 4.77049 272.378 4.85583 272.6 4.85583C272.762 4.85583 272.89 4.80463 273.001 4.70222C273.104 4.59982 273.18 4.43768 273.206 4.19873H274.179C274.17 4.8729 274.051 5.35933 273.803 5.64948C273.556 5.93962 273.24 6.0847 272.848 6.0847C272.677 6.0847 272.506 6.06763 272.344 6.03349C272.233 5.99936 271.943 5.89695 271.482 5.72628C271.021 5.5556 270.689 5.46173 270.475 5.46173C270.313 5.46173 270.194 5.51293 270.1 5.6068C270.006 5.70068 269.963 5.87989 269.963 6.11883Z" fill="white"/>
<path d="M277.822 12.2972C277.822 11.1793 277.993 10.2405 278.326 9.48103C278.573 8.9178 278.915 8.41431 279.35 7.97055C279.785 7.52679 280.254 7.19398 280.775 6.98063C281.458 6.69048 282.251 6.54541 283.147 6.54541C284.769 6.54541 286.066 7.0489 287.039 8.05589C288.012 9.06288 288.498 10.4624 288.498 12.246C288.498 14.021 288.012 15.412 287.047 16.4105C286.083 17.4089 284.794 17.9124 283.173 17.9124C281.534 17.9124 280.237 17.4175 279.273 16.419C278.309 15.4206 277.822 14.0466 277.822 12.2972ZM280.109 12.2204C280.109 13.4663 280.399 14.405 280.971 15.0536C281.543 15.7022 282.277 16.0179 283.164 16.0179C284.052 16.0179 284.777 15.7022 285.341 15.0621C285.904 14.4221 286.194 13.4663 286.194 12.1948C286.194 10.9318 285.921 9.99306 285.366 9.37863C284.811 8.7642 284.078 8.44845 283.164 8.44845C282.251 8.44845 281.509 8.76419 280.954 9.38716C280.399 10.0101 280.109 10.9574 280.109 12.2204Z" fill="white"/>
<path d="M289.659 14.149L291.818 13.9357C291.946 14.661 292.211 15.1901 292.612 15.5315C293.004 15.8728 293.542 16.0435 294.216 16.0435C294.933 16.0435 295.471 15.8899 295.829 15.5912C296.188 15.2925 296.375 14.9341 296.375 14.533C296.375 14.277 296.298 14.0551 296.145 13.8674C295.991 13.6882 295.727 13.5261 295.343 13.3895C295.087 13.2956 294.489 13.142 293.568 12.9116C292.381 12.6129 291.545 12.2545 291.059 11.8278C290.385 11.2219 290.043 10.488 290.043 9.61757C290.043 9.05434 290.205 8.53378 290.521 8.04736C290.837 7.56093 291.298 7.18545 291.895 6.92943C292.492 6.67342 293.209 6.54541 294.063 6.54541C295.445 6.54541 296.478 6.84409 297.177 7.44999C297.877 8.05589 298.244 8.8666 298.278 9.87359L296.06 9.96746C295.966 9.40423 295.761 8.99461 295.445 8.74713C295.129 8.49965 294.66 8.37164 294.037 8.37164C293.388 8.37164 292.885 8.50818 292.518 8.77273C292.279 8.94341 292.168 9.17382 292.168 9.45543C292.168 9.71145 292.279 9.94186 292.501 10.1211C292.783 10.36 293.457 10.599 294.54 10.855C295.624 11.111 296.418 11.3755 296.939 11.6486C297.459 11.9217 297.86 12.2972 298.15 12.7665C298.44 13.2359 298.586 13.8247 298.586 14.516C298.586 15.1475 298.406 15.7363 298.056 16.2825C297.707 16.8286 297.212 17.2383 296.572 17.5113C295.931 17.7844 295.138 17.9124 294.182 17.9124C292.791 17.9124 291.724 17.5881 290.982 16.9481C290.239 16.3081 289.804 15.3779 289.659 14.149Z" fill="white"/>
</svg>
