<svg width="33" height="33" viewBox="0 0 33 33" fill="none" xmlns="http://www.w3.org/2000/svg">
<path d="M1.25435 1.25435C0.813991 1.68136 0.533765 2.29519 0.533765 2.94905V30.0376C0.533765 30.7048 0.800647 31.3053 1.241 31.7457C1.68136 32.186 2.28184 32.4529 2.94905 32.4529H30.0376C30.7048 32.4529 31.3053 32.186 31.7456 31.7457C32.186 31.3053 32.4529 30.7048 32.4529 30.0376V2.94905C32.4529 2.28184 32.186 1.68136 31.7456 1.241C31.3053 0.800647 30.7048 0.533765 30.0376 0.533765H2.94905C2.29519 0.533765 1.68136 0.813991 1.25435 1.25435ZM2.94905 33C1.33441 33 0 31.6789 0 30.0509V2.96239C0 1.33441 1.33441 0 2.94905 0H30.0376C31.6656 0 32.9866 1.33441 32.9866 2.94905V30.0376C32.9866 31.6656 31.6522 32.9867 30.0376 32.9867H2.94905V33Z" fill="black"/>
<path d="M1.25427 1.25427C0.813918 1.68129 0.533691 2.29511 0.533691 2.94898V30.0375C0.533691 30.7047 0.800574 31.3052 1.24093 31.7456C1.68129 32.1859 2.28177 32.4528 2.94898 32.4528H30.0375C30.7047 32.4528 31.3052 32.1859 31.7456 31.7456C32.1859 31.3052 32.4528 30.7047 32.4528 30.0375V2.94898C32.4528 2.28177 32.1859 1.68129 31.7456 1.24093C31.3052 0.800574 30.7047 0.533691 30.0375 0.533691H2.94898C2.29511 0.533691 1.68129 0.813918 1.25427 1.25427Z" fill="white"/>
<path d="M0.26709 24.0327V30.0776C0.26709 31.5588 1.4814 32.7598 2.94926 32.7598H30.0912C31.5724 32.7598 32.7734 31.5454 32.7734 30.0776V24.0327H0.26709Z" fill="black"/>
<path d="M17.5209 10.7422C19.9362 10.542 23.6058 10.6888 24.8068 10.4353C25.9944 10.1951 24.3397 8.16678 23.3656 8.16678C20.4166 8.15343 15.9596 8.39363 14.4918 8.1134C14.305 8.07337 13.7312 6.44539 13.491 7.24603C12.6103 10.3152 15.0389 10.9424 17.5209 10.7422Z" fill="black"/>
<path d="M20.6302 13.0108C21.6844 12.6238 22.5518 11.8499 21.9513 11.156C21.3508 10.4621 20.6035 12.2502 19.7228 11.5163C18.1082 10.1552 18.0548 11.9299 18.7621 12.5037C19.4826 13.0775 20.2699 13.1442 20.6302 13.0108Z" fill="black"/>
<path d="M3.68297 14.0915C6.80549 13.5711 9.20743 13.1841 13.184 12.1833C13.264 12.17 13.1439 9.55452 13.0105 9.54118C9.78123 9.34101 6.52526 9.30098 3.36271 9.3677C1.86817 9.40773 2.18843 14.3451 3.68297 14.0915Z" fill="black"/>
<path d="M17.7742 15.8796C18.1879 15.6261 19.0019 15.0123 19.5089 14.1049C18.2946 13.3843 17.6007 12.7571 17.3605 11.2359C16.3731 11.1959 15.5457 11.1825 14.7718 11.2359C13.7576 12.8639 16.253 15.7595 17.7742 15.8796Z" fill="black"/>
<path d="M19.6828 16.5468C22.8854 15.8796 28.6233 15.0256 29.2639 14.9856C29.9044 14.9322 29.6775 15.5594 30.6116 15.4659C30.6517 14.0114 30.9452 12.4635 29.3573 12.1166C27.5692 11.7163 25.701 11.4494 23.8595 11.396C22.2715 12.5436 20.6169 14.4918 19.0556 16.0264C18.6553 16.4134 19.0823 16.6669 19.6828 16.5468Z" fill="black"/>
<path d="M16.5734 19.3358C19.042 18.5752 21.5107 17.8279 23.9794 17.0673C23.9794 16.4401 22.3247 17.0139 21.7109 17.0006C19.8827 16.9739 16.3599 17.2808 16.1063 19.3358C16.0797 19.4559 16.4533 19.3358 16.5734 19.3358Z" fill="black"/>
<path d="M5.41793 19.4557C6.44543 19.3089 13.758 15.4791 14.2117 15.1856C14.6787 14.892 13.8381 13.2773 13.5712 13.2773C11.7297 13.3174 6.79237 14.7986 4.39043 15.2122C4.15024 15.2523 3.65651 15.3857 3.53641 15.6126C2.97596 16.7868 4.40378 19.6158 5.41793 19.4557Z" fill="black"/>
<path d="M11.0753 22.1913C12.0761 22.1245 16.5464 17.3207 16.453 17.1605C16.0794 16.5867 15.3187 15.5859 14.6248 15.9729C12.0761 17.3607 8.43318 19.1355 5.83108 20.7901C5.47079 21.017 6.11131 21.9644 6.52497 22.1112C7.39234 22.3914 10.1012 22.2446 11.0753 22.1913Z" fill="black"/>
<path d="M27.222 29.8907C27.1153 29.9308 27.0085 29.9441 26.8884 29.9441C26.6082 29.9441 26.3547 29.824 26.1679 29.6372C26.1545 29.6238 26.1412 29.5972 26.1145 29.5838C25.9944 29.4504 25.9143 29.2769 25.8876 29.0901C25.8743 29.0367 25.8743 28.97 25.8743 28.9166C25.8743 28.8632 25.8743 28.8099 25.8876 28.7698C25.9277 28.5029 26.0744 28.2627 26.2879 28.1026C26.4614 27.9692 26.6749 27.8891 26.9018 27.8891C26.9818 27.8891 27.0619 27.9024 27.1286 27.9158C27.3688 27.9692 27.5823 28.116 27.7291 28.3161C27.8492 28.4896 27.9293 28.7031 27.9293 28.9299C27.9293 29.2235 27.8092 29.4904 27.609 29.6772C27.4889 29.7706 27.3555 29.8373 27.222 29.8907ZM29.2637 28.7031C29.2503 28.583 29.237 28.4629 29.197 28.3428C29.1302 28.0893 29.0235 27.8624 28.89 27.6623C28.7166 27.3954 28.4764 27.1552 28.1962 26.9817C27.8225 26.7415 27.3688 26.5947 26.8884 26.5947C25.8743 26.5947 25.0203 27.2086 24.6733 28.0893C24.66 28.1426 24.6333 28.1827 24.6199 28.2361C24.5666 28.4229 24.5265 28.623 24.5132 28.8365C24.5132 28.8632 24.5132 28.9033 24.5132 28.9433C24.5132 28.9967 24.5132 29.05 24.5265 29.1034C24.5265 29.1701 24.5399 29.2235 24.5399 29.2902C24.5666 29.4904 24.6199 29.6772 24.7 29.864C24.8201 30.1309 24.9802 30.3711 25.1804 30.5713C25.3405 30.7314 25.5273 30.8648 25.7275 30.9849C26.0744 31.1718 26.4748 31.2919 26.8884 31.2919C27.5423 31.2919 28.1294 31.0383 28.5564 30.6113L28.5831 30.598C28.6765 30.5046 28.7699 30.3978 28.8367 30.291C28.9434 30.1443 29.0368 29.9841 29.1036 29.8107C29.2103 29.5438 29.2637 29.2502 29.2637 28.9566C29.277 28.8365 29.277 28.7698 29.2637 28.7031Z" fill="white"/>
<path d="M20.363 30.2776V26.728H19.4023H18.9619V31.185H20.363V30.2776Z" fill="white"/>
<path d="M24.4598 30.478C24.3798 30.1711 24.2997 29.8242 24.2997 29.8242L24.2463 29.8375C23.8994 29.9443 23.4857 29.9976 23.2188 29.9576C23.0187 29.9309 22.8452 29.8642 22.7118 29.7708C22.6317 29.7307 22.4716 29.5439 22.4582 29.5439C22.3381 29.3838 22.2714 29.1703 22.2714 28.9301C22.2714 28.3563 22.605 27.996 23.2188 27.8893C23.4857 27.8492 23.9127 27.8893 24.2463 28.0094L24.2997 28.0227C24.2997 28.0227 24.4999 27.0086 24.5532 26.7817C24.2196 26.6483 23.8193 26.5815 23.3523 26.5815C21.8177 26.5815 20.7902 27.5557 20.7769 28.9168V28.9301C20.7769 29.1436 20.8035 29.3438 20.8569 29.5439C20.8569 29.5573 20.9103 29.7174 20.937 29.7708C21.0571 30.091 21.2439 30.3713 21.4974 30.5848L21.6042 30.6782C22.0445 31.0385 22.645 31.252 23.3656 31.2653C24.0462 31.2787 24.3531 31.1586 24.6333 31.0385C24.5799 30.9451 24.5132 30.7316 24.4598 30.478Z" fill="white"/>
<path d="M9.83475 30.6645L9.75469 30.3042L9.52784 29.1967L9.02076 26.728H7.4595L6.84567 28.9298L6.23184 26.728L4.72396 26.7414L4.20354 29.1967L3.96335 30.3042L3.88328 30.6645L3.76318 31.185H5.21769L5.63136 29.1967L5.68474 28.8898L6.03168 30.0374L6.36529 31.185H7.32606L7.65966 30.0374L8.00661 28.8898L8.05999 29.1967L8.47366 31.185H9.94151L9.83475 30.6645Z" fill="white"/>
<path d="M13.1705 28.3164H12.1564H11.8361H11.4892C11.5559 27.9562 11.7961 27.7293 12.103 27.6492C12.1831 27.6226 12.2765 27.6226 12.3565 27.6226C12.7435 27.6092 13.1038 27.8894 13.1705 28.3164ZM12.4499 29.2238H12.7035H14.5717V29.0637C14.5717 27.716 13.9178 26.8219 12.7702 26.6351C12.6768 26.6217 12.57 26.6084 12.4633 26.6084C12.4099 26.6084 12.3699 26.6084 12.3165 26.6084C12.2898 26.6084 12.2765 26.6084 12.2498 26.6084C12.0897 26.6084 11.9429 26.6217 11.7961 26.6618C10.7286 26.8619 9.99463 27.7026 9.99463 28.9836C9.99463 29.6375 10.1948 30.1713 10.5284 30.5583C10.8753 30.9586 11.3557 31.2121 11.9162 31.2922C12.0763 31.3189 12.2498 31.3322 12.4233 31.3322C13.3573 31.3322 14.2914 30.8518 14.5183 29.811H13.1038C12.9437 30.1046 12.7302 30.2113 12.4233 30.2113H12.4099C12.0096 30.2113 11.716 30.0512 11.5692 29.7576C11.5425 29.7042 11.5159 29.6509 11.5025 29.5975C11.4758 29.5174 11.4625 29.4373 11.4625 29.3306C11.4625 29.2906 11.4625 29.2505 11.4625 29.2105H12.103L12.4499 29.2238Z" fill="white"/>
<path d="M12.2497 26.5148L12.3698 26.4481L12.6234 26.3147L12.9703 26.1279L13.7443 25.7142L12.957 24.7534L11.6626 25.8877L12.0763 26.3414L12.2497 26.5148Z" fill="white"/>
<path d="M17.7743 29.7038L17.3206 28.9698L17.7743 28.1959L18.655 26.728H18.5749H17.0671L16.8669 27.115L16.4399 27.9157L16.0129 27.1284L15.8127 26.728H14.2114L15.0921 28.1959L15.5592 28.9698L15.1055 29.7038L14.2248 31.185H15.8127L16.0129 30.798L16.4399 30.0107L16.8669 30.798L17.0804 31.185H18.6684L17.7743 29.7038Z" fill="white"/>
<path d="M8.32673 2.72217V3.70963H9.27416V2.72217H9.84796V5.28424H9.27416V4.21671H8.32673V5.28424H7.75293V2.72217H8.32673Z" fill="black"/>
<path d="M8.32703 2.72231H8.22028V3.81653H9.38122V2.82907H9.74151V5.17763H9.38122V4.1101H8.22028V5.17763H7.85999V2.82907H8.32703V2.72231H8.22028H8.32703V2.62891H7.64648V5.39114H8.43379V4.32361H9.16771V5.39114H9.95502V2.62891H9.16771V3.60303H8.43379V2.62891H8.32703V2.72231Z" fill="black"/>
<path d="M11.9434 4.20337H11.0093V4.8172H12.0502V5.28424H10.4355V2.72217H11.9968V3.20256H11.0093V3.73632H11.9434V4.20337Z" fill="black"/>
<path d="M11.9433 4.20351V4.09676H10.9024V4.91075H11.9433V5.17763H10.5421V2.82907H11.8899V3.09595H10.9024V3.84322H11.8365V4.20351H11.9433V4.09676V4.20351H12.0367V3.62971H11.1159V3.30946H12.1034V2.62891H10.3286V5.39114H12.1434V4.71059H11.1159V4.31026H12.0367V4.20351H11.9433Z" fill="black"/>
<path d="M14.3716 5.21735C14.2648 5.27073 14.0246 5.33745 13.7177 5.33745C12.837 5.33745 12.3833 4.777 12.3833 4.05641C12.3833 3.1757 12.9971 2.69531 13.7711 2.69531C14.0647 2.69531 14.2915 2.76203 14.3983 2.81541L14.2782 3.26911C14.1581 3.21573 13.9979 3.1757 13.7978 3.1757C13.3441 3.1757 12.9838 3.45593 12.9838 4.02972C12.9838 4.5368 13.2907 4.8704 13.7978 4.8704C13.9713 4.8704 14.1581 4.83037 14.2782 4.79034L14.3716 5.21735Z" fill="black"/>
<path d="M14.3716 5.21782L14.3182 5.12442C14.2782 5.1511 14.1981 5.17779 14.0913 5.19114C13.9846 5.21783 13.8511 5.23117 13.7044 5.23117C13.2907 5.23117 12.9838 5.09773 12.7836 4.89757C12.5834 4.68406 12.4767 4.40383 12.4767 4.05689C12.4767 3.64322 12.6235 3.3363 12.8503 3.1228C13.0772 2.90929 13.3974 2.80254 13.7577 2.80254C13.9045 2.80254 14.0246 2.81588 14.118 2.84257C14.2114 2.86926 14.2915 2.89595 14.3315 2.90929L14.4116 2.80254L14.3048 2.77585L14.1847 3.22955L14.2915 3.25624L14.3315 3.16283C14.1981 3.10945 14.0246 3.05608 13.8111 3.05608C13.5576 3.05608 13.3307 3.13614 13.1706 3.29627C12.9971 3.4564 12.9037 3.6966 12.9037 4.00351C12.9037 4.28374 12.9838 4.52393 13.1439 4.68406C13.304 4.85753 13.5442 4.9376 13.8111 4.9376C13.9979 4.9376 14.1981 4.89757 14.3315 4.84419L14.2915 4.75078L14.1847 4.76413L14.2648 5.21782H14.3716L14.3182 5.12442L14.3716 5.21782L14.4783 5.20448L14.3716 4.63068L14.2515 4.68406C14.1581 4.72409 13.9712 4.76413 13.8111 4.76413C13.5709 4.76413 13.4108 4.6974 13.2907 4.56396C13.1706 4.44387 13.1039 4.25705 13.1039 4.0302C13.1039 3.76332 13.1839 3.58984 13.304 3.46975C13.4241 3.34965 13.5976 3.28293 13.8111 3.28293C13.9979 3.28293 14.1447 3.32296 14.2515 3.37634L14.3582 3.42971L14.5317 2.77585L14.465 2.73582C14.3982 2.70913 14.3182 2.6691 14.1981 2.65575C14.0913 2.62907 13.9445 2.61572 13.7978 2.61572C13.3974 2.61572 13.0238 2.74916 12.7436 2.98936C12.4767 3.2429 12.3032 3.61653 12.3032 4.07023C12.3032 4.45721 12.4233 4.80416 12.6635 5.0577C12.9037 5.31123 13.2773 5.45802 13.731 5.45802C13.8912 5.45802 14.038 5.44467 14.1581 5.41799C14.2781 5.3913 14.3716 5.36461 14.4383 5.33792L14.505 5.29789L14.4917 5.21782H14.3716Z" fill="black"/>
<path d="M15.4127 2.72217V3.70963H16.3601V2.72217H16.9339V5.28424H16.3601V4.21671H15.4127V5.28424H14.8389V2.72217H15.4127Z" fill="black"/>
<path d="M15.4125 2.72231H15.3057V3.81653H16.4667V2.82907H16.8403V5.17763H16.4667V4.1101H15.3057V5.17763H14.9454V2.82907H15.4125V2.72231H15.3057H15.4125V2.62891H14.7319V5.39114H15.5192V4.32361H16.2665V5.39114H17.0405V2.62891H16.2665V3.60303H15.5192V2.62891H15.4125V2.72231Z" fill="black"/>
<path d="M18.0145 4.0167C18.0145 4.52378 18.2547 4.87072 18.6417 4.87072C19.0287 4.87072 19.2556 4.49709 19.2556 4.00336C19.2556 3.54966 19.042 3.14933 18.6417 3.14933C18.2414 3.14933 18.0145 3.52297 18.0145 4.0167ZM19.8694 3.97667C19.8694 4.81735 19.3623 5.32442 18.615 5.32442C17.8544 5.32442 17.4141 4.75063 17.4141 4.0167C17.4141 3.24274 17.9078 2.66895 18.6551 2.66895C19.429 2.68229 19.8694 3.26943 19.8694 3.97667Z" fill="black"/>
<path d="M18.0142 4.01636H17.9075C17.9075 4.28324 17.9742 4.52344 18.0943 4.69691C18.2144 4.87038 18.4145 4.97714 18.6414 4.97714C18.7615 4.97714 18.8682 4.95045 18.9483 4.89707C19.0817 4.81701 19.1885 4.69691 19.2552 4.53678C19.3219 4.37665 19.3486 4.20318 19.362 4.00302C19.362 3.76282 19.3086 3.52263 19.1885 3.34915C19.1351 3.25575 19.055 3.18902 18.9616 3.13565C18.8682 3.08227 18.7615 3.05558 18.6414 3.05558C18.5213 3.05558 18.4145 3.08227 18.3345 3.13565C18.201 3.21571 18.0943 3.33581 18.0276 3.49594C17.9608 3.65607 17.9208 3.82954 17.9208 4.0297H18.0142H18.121C18.121 3.78951 18.1743 3.60269 18.2677 3.46925C18.3078 3.40253 18.3612 3.34915 18.4279 3.32247C18.4946 3.28243 18.5613 3.26909 18.6414 3.26909C18.7214 3.26909 18.7882 3.28243 18.8549 3.32247C18.9483 3.37584 19.0284 3.46925 19.0684 3.58935C19.1218 3.70945 19.1485 3.85623 19.1485 4.01636C19.1485 4.25655 19.0951 4.44337 19.0017 4.57681C18.9616 4.64353 18.9083 4.69691 18.8415 4.7236C18.7748 4.76363 18.7081 4.77697 18.628 4.77697C18.4679 4.77697 18.3478 4.71025 18.2544 4.57681C18.161 4.44337 18.1076 4.25655 18.1076 4.01636H18.0142ZM19.869 3.97633H19.7623C19.7623 4.37665 19.6422 4.68357 19.442 4.89707C19.2419 5.11058 18.9616 5.23067 18.6147 5.23067C18.2677 5.23067 17.9875 5.09723 17.8007 4.88373C17.6139 4.67022 17.5071 4.37665 17.5071 4.0297C17.5071 3.66941 17.6272 3.3625 17.814 3.13565C18.0142 2.92214 18.2944 2.7887 18.6414 2.7887C19.0017 2.7887 19.2819 2.92214 19.4687 3.13565C19.6555 3.34915 19.7623 3.64272 19.7623 3.97633H19.869H19.9758C19.9758 3.60269 19.869 3.25575 19.6422 2.98886C19.4153 2.73532 19.0817 2.5752 18.6681 2.5752C18.2677 2.5752 17.9208 2.73532 17.6806 2.98886C17.4404 3.25575 17.3203 3.61604 17.3203 4.01636C17.3203 4.40334 17.4404 4.75029 17.6673 5.01717C17.8941 5.27071 18.2277 5.43084 18.628 5.43084C19.0284 5.43084 19.3753 5.2974 19.6155 5.04386C19.8557 4.79032 19.9891 4.41668 19.9891 3.97633H19.869Z" fill="black"/>
<path d="M22.6049 4.20337H21.6842V4.8172H22.7117V5.28424H21.1104V2.72217H22.6583V3.20256H21.6842V3.73632H22.6049V4.20337Z" fill="black"/>
<path d="M22.6047 4.20351V4.09676H21.5772V4.91075H22.6181V5.17763H21.2169V2.82907H22.5647V3.09595H21.5772V3.84322H22.498V4.20351H22.6047V4.09676V4.20351H22.7115V3.62971H21.7774V3.30946H22.7648V2.62891H21.0034V5.39114H22.8182V4.71059H21.7774V4.31026H22.7115V4.20351H22.6047Z" fill="black"/>
<path d="M23.1924 5.28424V2.72217H23.8596L24.3934 3.65626C24.5401 3.92314 24.7003 4.2434 24.807 4.53697H24.8204C24.7803 4.20337 24.767 3.85642 24.767 3.46944V2.72217H25.3008V5.28424H24.6869L24.1398 4.29677C23.993 4.01655 23.8196 3.69629 23.6995 3.38937H23.6861C23.6995 3.72298 23.7128 4.08327 23.7128 4.51028V5.28424H23.1924Z" fill="black"/>
<path d="M23.1922 5.28455H23.299V2.82923H23.806L24.2998 3.70994C24.4466 3.97682 24.5933 4.29708 24.7134 4.57731L24.7401 4.64403H24.8202H24.9403L24.9269 4.52393C24.8869 4.19033 24.8736 3.84338 24.8736 3.46975V2.82923H25.1938V5.17779H24.7535L24.233 4.2437C24.0863 3.97682 23.9128 3.64322 23.7927 3.34965L23.7527 3.25624L23.6459 3.29627L23.5792 3.32296V3.40303C23.5925 3.73663 23.6059 4.09692 23.6059 4.51059V5.17779H23.1789V5.28455H23.2856H23.1922V5.3913H23.8194V4.51059C23.8194 4.09692 23.806 3.72328 23.7927 3.38968H23.6859L23.726 3.48309H23.7393L23.6993 3.38968L23.6059 3.42971C23.7393 3.73663 23.8994 4.07023 24.0596 4.35046L24.6334 5.3913H25.4073V2.62907H24.6734V3.46975C24.6734 3.85673 24.6867 4.20367 24.7268 4.55062L24.8202 4.53728V4.43052H24.8068V4.53728L24.9003 4.49724C24.7802 4.20367 24.6334 3.88341 24.4732 3.60319L23.9128 2.61572H23.0854V5.37795H23.1922V5.28455Z" fill="black"/>
</svg>
