<svg width="45" height="42" viewBox="0 0 45 42" fill="none" xmlns="http://www.w3.org/2000/svg">
<path d="M31.3936 0.0463867H13.8597C8.69718 0.0463867 4.46484 4.23221 4.46484 9.39473V24.3242H40.7885V9.39473C40.742 4.23221 36.5562 0.0463867 31.3936 0.0463867Z" fill="#18B1E7"/>
<path d="M40.6955 14.8361C38.3236 14.8361 36.3702 16.7429 36.3702 19.1149V27.6261H8.60419V19.1149C8.60419 16.7429 6.69732 14.7896 4.32535 14.7896C1.95339 14.7896 0 16.6964 0 19.0684C0 20.6032 0.837168 22.045 2.13942 22.7891V34.0443H42.7884V22.8356C44.8348 21.6729 45.5325 19.0219 44.3697 16.9755C43.6721 15.6267 42.2303 14.8361 40.6955 14.8361Z" fill="#53C5FB"/>
<path d="M36.6493 24.3706H8.41823C7.53455 24.3706 6.79041 25.0682 6.79041 25.9984C6.79041 26.9286 7.48804 27.6728 8.37171 27.6728H8.41823H36.6493C37.6725 27.6728 38.5096 26.6961 38.2306 25.5798C38.0911 25.0217 37.626 24.5566 37.0679 24.4171C36.9283 24.3706 36.7888 24.3706 36.6493 24.3706Z" fill="white"/>
<path d="M5.30202 41.7653H2.97656L5.39504 34.0913H9.53435L5.30202 41.7653Z" fill="#FEE333"/>
<path d="M39.7653 41.7653H42.0908L39.6723 34.0913H35.533L39.7653 41.7653Z" fill="#FEE333"/>
<path opacity="0.2" d="M22.3244 9.95296C30.324 9.44136 35.0214 6.23223 37.6724 2.32546C35.9981 0.883674 33.8587 0 31.4867 0H13.9527C8.79023 0 4.5579 4.18582 4.5579 9.34834V14.7434C4.51139 14.7434 4.51139 14.7434 4.46488 14.7434C2.09291 14.7434 0.139526 16.6503 0.139526 19.0222C0.139526 20.185 0.604619 21.3012 1.44178 22.0919C3.76724 18.5572 10.232 10.7436 22.3244 9.95296Z" fill="white"/>
<path opacity="0.05" d="M39.7654 41.7653H42.0908L39.6723 34.0913H42.8349V22.8361C44.4628 21.9059 45.2534 20.0921 44.9279 18.3247C41.4397 21.0687 36.5097 23.4872 29.9984 23.8593C20.185 24.4174 15.255 29.1148 13.0691 34.0913H35.533L39.7654 41.7653Z" fill="black"/>
</svg>
