<svg width="55" height="72" viewBox="0 0 55 72" fill="none" xmlns="http://www.w3.org/2000/svg">
<path d="M14.5809 70.3464H10.7319V63.3033H9.45654V71.5194H14.5809V70.3464Z" fill="#2E3A44"/>
<path d="M21.4134 70.3578H17.4733V67.8924H21.2027V66.7879H17.4733V64.4648H21.4134V63.3033H16.1979V71.5194H21.4134V70.3578Z" fill="#2E3A44"/>
<path d="M26.6289 71.7186C28.4622 71.7186 29.8117 70.6368 30.0394 69.0141H28.7697C28.542 69.9422 27.7164 70.5286 26.6289 70.5286C25.1485 70.5286 24.2261 69.3273 24.2261 67.4142C24.2261 65.4954 25.1485 64.294 26.6232 64.294C27.705 64.294 28.5306 64.9431 28.7697 65.9509H30.0394C29.8344 64.2769 28.4338 63.104 26.6232 63.104C24.34 63.104 22.9222 64.7495 22.9222 67.4142C22.9222 70.0731 24.3457 71.7186 26.6289 71.7186Z" fill="#2E3A44"/>
<path d="M38.4832 71.5194V63.3033H37.2135V66.7537H32.9945V63.3033H31.7191V71.5194H32.9945V67.9152H37.2135V71.5194H38.4832Z" fill="#2E3A44"/>
<path d="M45.7598 70.3578H41.8198V67.8924H45.5492V66.7879H41.8198V64.4648H45.7598V63.3033H40.5444V71.5194H45.7598V70.3578Z" fill="#2E3A44"/>
<path d="M27.5 55C42.6878 55 55 42.6878 55 27.5C55 12.3122 42.6878 0 27.5 0C12.3122 0 0 12.3122 0 27.5C0 42.6878 12.3122 55 27.5 55Z" fill="#FC0762"/>
<path opacity="0.1" d="M27.5538 55.0001C42.7108 55.0001 55.0003 42.6506 55.0003 27.4195C55.0003 20.6273 52.5833 14.4525 48.5278 9.63623C45.0868 15.07 38.2457 20.3803 26.3249 24.1263C15.6741 27.4607 8.30039 33.8413 3.26172 40.2219C7.84978 48.99 16.9849 55.0001 27.5538 55.0001Z" fill="black"/>
<path d="M14.991 29.893C14.991 26.0235 14.991 22.154 14.991 18.2845C14.991 17.9963 15.0734 17.7905 15.238 17.5435C16.3495 16.1439 17.4198 14.7443 18.49 13.3447C18.5724 13.2212 18.6547 13.0153 18.6547 12.8507C18.6959 12.3567 18.6547 11.8627 18.6547 11.3276C18.6547 10.8748 18.8605 10.6689 19.2722 10.6689C24.7883 10.6689 30.3456 10.6689 35.8617 10.6689C36.2733 10.6689 36.4792 10.8748 36.4792 11.2864C36.4792 11.5334 36.5203 11.7392 36.4792 11.9862C36.3557 12.8095 36.685 13.427 37.179 14.0445C38.1258 15.1971 39.0314 16.3909 39.937 17.5847C40.0605 17.7493 40.1428 17.9963 40.1428 18.2021C40.1428 24.9532 40.1428 31.6631 40.1428 38.4141C40.1428 38.7846 40.0194 38.9905 39.6489 39.1551C37.3025 40.1431 34.9149 41.1722 32.5685 42.2013C32.4038 42.2837 32.2392 42.2837 32.0745 42.2837C26.5584 42.2837 21.0834 42.2837 15.5673 42.2837C15.0734 42.2837 14.9087 42.119 14.9087 41.5839C14.991 37.6732 14.991 33.8037 14.991 29.893ZM31.7863 37.0146C31.7863 32.2806 31.7863 27.5466 31.7863 22.8126C26.5172 22.8126 21.3304 22.8126 16.0613 22.8126C16.0613 27.5466 16.0613 32.2806 16.0613 37.0146C21.3304 37.0146 26.5584 37.0146 31.7863 37.0146ZM16.6376 17.5435C16.7611 17.5435 16.8023 17.5435 16.8846 17.5435C21.8656 17.5435 26.8877 17.5435 31.8687 17.5435C31.9922 17.5435 32.198 17.4612 32.2803 17.3377C33.0213 16.4321 33.7211 15.4852 34.4621 14.5384C34.6267 14.3326 34.7914 14.1268 34.9561 13.8798C34.7914 13.8798 34.6679 13.8798 34.5444 13.8798C29.7281 13.8798 24.953 13.8798 20.1366 13.8798C19.6427 13.8798 19.3545 14.0033 19.0664 14.415C18.2842 15.4029 17.4609 16.4321 16.6376 17.5435ZM35.4912 14.9089C35.3677 15.0324 35.3265 15.1148 35.2854 15.1559C34.5444 16.1027 33.8034 17.0495 33.0625 17.9963C32.939 18.161 32.8566 18.3668 32.8566 18.5726C32.8566 25.5707 32.8566 32.5687 32.8566 39.6079C32.8566 39.6903 32.8566 39.7726 32.8566 39.9373C32.9801 39.7726 33.0213 39.6903 33.1036 39.6079C33.8446 38.4142 34.5856 37.2615 35.3265 36.0678C35.4089 35.9031 35.4912 35.6973 35.4912 35.5326C35.4912 28.7815 35.4912 22.0305 35.4912 15.2794C35.4912 15.1559 35.4912 15.0736 35.4912 14.9089ZM39.1549 37.5497C39.1549 37.4262 39.1549 37.385 39.1549 37.3439C39.1549 31.0456 39.1549 24.7474 39.1549 18.4491C39.1549 18.3256 39.0726 18.161 38.9902 18.0375C38.2493 17.0495 37.5083 16.1027 36.7261 15.1148C36.685 15.0324 36.6027 14.9913 36.5203 14.8678C36.5203 15.0736 36.5203 15.1559 36.5203 15.2794C36.5203 18.2021 36.5203 21.1249 36.5203 24.0476C36.5203 27.8348 36.5203 31.5808 36.5203 35.368C36.5203 35.4914 36.5615 35.6561 36.6438 35.7384C37.5083 36.3559 38.2904 36.9322 39.1549 37.5497ZM31.7863 18.6138C26.5172 18.6138 21.2893 18.6138 16.0613 18.6138C16.0613 19.6841 16.0613 20.7132 16.0613 21.7423C21.3304 21.7423 26.5584 21.7423 31.7863 21.7423C31.7863 20.7132 31.7863 19.6841 31.7863 18.6138ZM31.7863 38.0848C26.5172 38.0848 21.2893 38.0848 16.0613 38.0848C16.0613 39.1551 16.0613 40.1431 16.0613 41.2134C21.3304 41.2134 26.5584 41.2134 31.7863 41.2134C31.7863 40.1843 31.7863 39.1551 31.7863 38.0848ZM35.4912 11.7804C30.2221 11.7804 24.9941 11.7804 19.7662 11.7804C19.7662 12.1509 19.7662 12.4802 19.7662 12.8095C25.0353 12.8095 30.2221 12.8095 35.4912 12.8095C35.4912 12.439 35.4912 12.1097 35.4912 11.7804ZM33.7623 40.5136L33.8034 40.5547C35.4089 39.8549 36.9731 39.1963 38.6197 38.4965C37.7553 37.879 36.9731 37.3027 36.1498 36.7264C35.3677 38.0025 34.5444 39.2786 33.7623 40.5136Z" fill="white"/>
<path d="M20.795 27.1761C20.9185 27.0526 21.0008 26.9291 21.0832 26.7644C20.6303 26.1881 20.3422 25.5707 20.2599 24.8708C20.2599 24.7473 20.2187 24.5827 20.2187 24.4592C20.2187 24.1299 20.4245 23.8829 20.7127 23.8829C21.0008 23.8829 21.2478 24.0887 21.2478 24.418C21.2478 24.9532 21.4125 25.4471 21.7006 25.8588C21.7418 25.9 21.783 25.9823 21.8241 26.0235C23.1826 25.2413 24.541 25.2002 25.8995 26.0235C26.2699 25.5706 26.4346 25.0767 26.4758 24.5003C26.5169 24.0887 26.6816 23.8417 27.0109 23.8829C27.3402 23.8829 27.5461 24.1299 27.5049 24.5415C27.5049 25.2825 27.2579 25.8588 26.6816 26.7644C26.7639 26.8879 26.8463 27.0114 26.9286 27.0937C27.4637 26.8879 27.9165 26.6821 28.4105 26.5586C29.028 26.4351 29.6043 26.5586 30.1395 26.8879C30.7158 27.2584 30.8393 27.7112 30.5099 28.2875C30.016 29.2343 28.8633 29.8106 27.7519 29.646C27.7107 29.646 27.6284 29.646 27.5461 29.6048C27.5461 30.0165 27.5461 30.387 27.5461 30.7574C27.5461 31.4161 27.5049 32.0335 27.2991 32.651C27.2579 32.7333 27.2991 32.8568 27.3402 32.9392C27.9989 34.4211 27.0109 35.9854 25.4055 35.9854C24.3764 35.9854 23.3472 35.9854 22.3181 35.9854C20.7538 35.9854 19.7659 34.38 20.4245 32.9804C20.4657 32.898 20.5068 32.7745 20.5068 32.6922C20.2187 31.9512 20.2187 31.2102 20.2187 30.4693C20.2187 30.2223 20.2187 29.9341 20.2187 29.7695C19.7247 29.7283 19.2307 29.6872 18.7367 29.6048C18.0369 29.4402 17.5018 28.9462 17.2136 28.3287C16.9255 27.7935 17.049 27.3819 17.543 27.0114C18.3663 26.4351 19.5189 26.4763 20.4657 27.0937C20.6303 27.0114 20.7127 27.0937 20.795 27.1761ZM26.4758 31.8689C26.5169 31.7042 26.5581 31.4572 26.5581 31.2514C26.5581 30.5516 26.5581 29.8106 26.5581 29.1108C26.5581 27.6289 25.4055 26.4763 23.9647 26.4763C22.5239 26.4763 21.3301 27.6289 21.3301 29.1108C21.3301 29.8518 21.3301 30.5516 21.3301 31.2926C21.3301 31.4984 21.3713 31.7454 21.4125 31.8689C23.1002 31.7042 24.7468 31.7042 26.4758 31.8689ZM23.9235 34.9151C24.4175 34.9151 24.9115 34.9151 25.4466 34.9151C26.1053 34.9151 26.5581 34.4623 26.5581 33.886C26.5581 33.2685 26.1053 32.8157 25.4466 32.8157C24.4587 32.8157 23.4296 32.8157 22.4416 32.8157C21.783 32.8157 21.3301 33.2685 21.3301 33.886C21.3301 34.4623 21.783 34.9151 22.4416 34.9151C22.9356 34.9151 23.4296 34.9151 23.9235 34.9151ZM29.6455 27.7936C29.028 27.4231 28.1224 27.5466 27.6696 28.0817C27.4637 28.3287 27.5049 28.4522 27.793 28.5757C28.4929 28.7815 29.3162 28.411 29.6455 27.7936ZM18.2428 27.7524C18.5721 28.411 19.3954 28.7403 20.0952 28.5345C20.4245 28.4522 20.4245 28.2875 20.2187 28.0406C19.7247 27.5466 18.8602 27.4231 18.2428 27.7524Z" fill="white"/>
<path d="M22.8535 34.3798C22.5653 34.3798 22.3183 34.1328 22.3595 33.8447C22.3595 33.5565 22.6065 33.3095 22.8946 33.3507C23.1828 33.3507 23.4298 33.5977 23.3886 33.8858C23.3886 34.174 23.1416 34.3798 22.8535 34.3798Z" fill="white"/>
<path d="M25.5291 33.8446C25.5291 34.1327 25.2821 34.3797 25.0351 34.3797C24.747 34.3797 24.5 34.1739 24.5 33.8857C24.5 33.5976 24.747 33.3506 25.0351 33.3506C25.2821 33.3506 25.5291 33.5976 25.5291 33.8446Z" fill="white"/>
</svg>
