<svg width="130" height="30" viewBox="0 0 130 30" fill="none" xmlns="http://www.w3.org/2000/svg">
<g clip-path="url(#clip0_1000_397)">
<path d="M0.000829448 3.32524C-0.00176469 3.18157 0.047736 3.04182 0.140182 2.93182C0.193234 2.87476 0.25841 2.83033 0.330909 2.8018C0.403408 2.77327 0.481383 2.76137 0.559091 2.76697H4.29018C4.43806 2.77437 4.57999 2.82752 4.69635 2.91907C4.76366 2.96307 4.81875 3.02339 4.85649 3.0944C4.89422 3.16542 4.91338 3.24483 4.91217 3.32524V21.0545C4.91217 21.4275 4.70484 21.6128 4.29018 21.6128H0.559091C0.186917 21.6128 0.000829448 21.4275 0.000829448 21.0545V3.32524Z" fill="#F2055C"/>
<path d="M8.29996 5.72192C8.39951 5.63419 8.51966 5.5731 8.64919 5.54433C8.76399 5.51968 8.88101 5.50686 8.99843 5.50609H10.9145C11.0427 5.50218 11.1701 5.52782 11.2868 5.58101C11.4035 5.6342 11.5064 5.71352 11.5875 5.81284C11.6643 5.9086 11.7262 6.01547 11.771 6.12978C11.8178 6.24789 11.862 6.37025 11.9044 6.49601L12.1713 7.60998C12.3285 7.30684 12.5366 7.03293 12.7865 6.8002C13.1006 6.49918 13.4552 6.24349 13.8401 6.04056C14.3007 5.79675 14.7884 5.60795 15.2931 5.47805C15.894 5.32413 16.5125 5.24957 17.1327 5.25627C18.0957 5.25627 18.9565 5.4418 19.715 5.81284C20.4599 6.17477 21.1181 6.69296 21.6447 7.33212C22.1866 7.99843 22.5957 8.76255 22.8496 9.58302C23.1292 10.4711 23.2685 11.3974 23.2626 12.3284V20.6403C23.2626 20.9624 23.1929 21.2063 23.0535 21.3703C22.9142 21.5342 22.6916 21.6175 22.3865 21.6175H19.455C19.0913 21.6175 18.8418 21.5563 18.7064 21.434C18.5713 21.3116 18.5033 21.072 18.5033 20.7168V12.4491C18.504 12.0897 18.4193 11.7352 18.2561 11.415C18.0907 11.0904 17.8686 10.798 17.6001 10.5517C17.3299 10.3032 17.0185 10.1037 16.6798 9.96199C16.3488 9.82075 15.9929 9.74736 15.633 9.74616C15.3108 9.74929 14.9927 9.81841 14.6983 9.94924C14.3767 10.0867 14.0808 10.2778 13.8231 10.5143C13.5532 10.7582 13.3257 11.0454 13.1501 11.364C12.9691 11.6896 12.8637 12.0517 12.8417 12.4236V20.6726C12.8399 20.8205 12.8111 20.9668 12.7567 21.1043C12.7099 21.2369 12.6236 21.352 12.5094 21.434C12.4131 21.4956 12.3084 21.5428 12.1984 21.5742C12.0871 21.6006 11.973 21.6131 11.8586 21.6116H8.99843C8.63475 21.6116 8.37247 21.5229 8.21159 21.3456C8.04359 21.1479 7.95729 20.8935 7.97027 20.6344V6.44417C7.96823 6.28986 8.00536 6.13754 8.07819 6.00147C8.14635 5.87026 8.2496 5.76053 8.37643 5.68453L8.29996 5.72192Z" fill="#B22A8B"/>
<path d="M27.3361 5.72369C27.3326 4.95391 27.5071 4.19374 27.8459 3.50254C28.18 2.8151 28.6413 2.19721 29.2055 1.6816C29.7778 1.15734 30.4398 0.740287 31.1598 0.450364C31.8929 0.1512 32.6775 -0.00178465 33.4693 1.57072e-05H33.7242C34.0114 1.57072e-05 34.2341 0.0849869 34.3904 0.260028C34.5468 0.435069 34.6258 0.672139 34.6258 0.977186V3.40142C34.6353 3.68223 34.5477 3.95774 34.3777 4.18146C34.3012 4.28143 34.2021 4.36178 34.0885 4.41586C33.9749 4.46994 33.85 4.49619 33.7242 4.49245H33.4693C33.2948 4.49117 33.1218 4.52348 32.9595 4.58762C32.802 4.64932 32.656 4.73724 32.5278 4.84763C32.4024 4.95596 32.2991 5.08753 32.2236 5.2351C32.1461 5.38615 32.1067 5.5539 32.1089 5.72369V7.18265H34.1015C34.3887 7.18265 34.6113 7.26082 34.7677 7.41717C34.924 7.57351 35.003 7.82163 35.003 8.15982V10.4821C35.003 10.8458 34.9246 11.1123 34.7677 11.2817C34.6108 11.451 34.3887 11.536 34.1015 11.5366H32.1072V20.6345C32.1072 20.9568 31.9996 21.2001 31.7843 21.3644C31.5839 21.5234 31.3358 21.6105 31.0799 21.6116H28.3387C28.0858 21.6243 27.8381 21.5361 27.6503 21.3662C27.4624 21.1963 27.3497 20.9588 27.3369 20.7058C27.3357 20.6821 27.3357 20.6582 27.3369 20.6345V11.5374H26.0284C25.7655 11.5492 25.5084 11.4578 25.3121 11.2825C25.1294 11.1126 25.0393 10.8466 25.0393 10.4829V8.15982C25.0393 7.81993 25.1294 7.57436 25.3121 7.41717C25.5141 7.25391 25.7689 7.17046 26.0284 7.18265H27.3361V5.72369Z" fill="#B22A8B"/>
<path d="M35.8001 13.5655C35.794 12.0734 36.1861 10.6068 36.9362 9.31692C37.2941 8.70531 37.729 8.14216 38.2303 7.64128C38.7317 7.13996 39.2971 6.70711 39.9119 6.35397C41.2022 5.61633 42.664 5.23126 44.1503 5.23744C45.2408 5.23113 46.3219 5.44031 47.3314 5.85298C48.3409 6.26565 49.259 6.87367 50.0328 7.64213C50.7877 8.4011 51.3907 9.29715 51.8096 10.2822C52.2499 11.3192 52.4723 12.4356 52.463 13.5621C52.4656 14.3191 52.3653 15.0729 52.1648 15.8028C51.972 16.502 51.6904 17.1737 51.3269 17.8013C50.5955 19.0544 49.5473 20.093 48.2877 20.8131C47.028 21.5331 45.6012 21.9092 44.1503 21.9037C43.394 21.9062 42.6407 21.8079 41.9104 21.6114C39.8145 21.0497 38.0261 19.6811 36.9362 17.8047C36.5724 17.1772 36.2908 16.5055 36.0984 15.8062C35.8971 15.0764 35.7967 14.3225 35.8001 13.5655ZM40.4319 13.5655C40.4278 14.0992 40.516 14.6296 40.6928 15.1332C40.8526 15.5984 41.1027 16.0275 41.4286 16.3959C41.7506 16.7548 42.1443 17.0423 42.5842 17.2397C43.0655 17.453 43.5874 17.5592 44.1137 17.5506C44.6277 17.5583 45.1369 17.4521 45.605 17.2397C46.0366 17.041 46.4214 16.7535 46.7342 16.3959C47.0511 16.0253 47.2924 15.5964 47.4446 15.1332C47.7743 14.1207 47.7743 13.0298 47.4446 12.0173C47.2897 11.5458 47.0488 11.1071 46.7342 10.7232C46.4159 10.3378 46.0147 10.0292 45.5606 9.82045C45.1064 9.61168 44.611 9.5081 44.1112 9.51745C43.5838 9.50813 43.061 9.61761 42.5817 9.83779C42.1383 10.0461 41.7445 10.3468 41.4269 10.7198C41.1036 11.1018 40.854 11.5407 40.6911 12.0139C40.5162 12.5124 40.4285 13.0372 40.4319 13.5655Z" fill="#29BBEF"/>
<path d="M124.834 1.28141C124.834 0.909233 125.041 0.723145 125.456 0.723145H128.756C129.128 0.723145 129.314 0.909233 129.314 1.28141V14.9618C129.319 15.1079 129.269 15.2506 129.174 15.362C129.12 15.4173 129.055 15.4601 128.982 15.4876C128.91 15.515 128.833 15.5264 128.756 15.5209H125.454C125.306 15.5135 125.164 15.46 125.048 15.368C124.98 15.3245 124.925 15.2643 124.887 15.1932C124.849 15.122 124.83 15.0423 124.832 14.9618L124.834 1.28141ZM124.834 17.9698C124.83 17.8958 124.841 17.8218 124.866 17.752C124.892 17.6823 124.93 17.6183 124.98 17.5636C125.035 17.5111 125.099 17.4704 125.17 17.4442C125.241 17.418 125.317 17.4069 125.392 17.4115H128.743C128.89 17.4131 129.031 17.467 129.142 17.5636C129.202 17.6126 129.25 17.6747 129.282 17.7452C129.314 17.8156 129.329 17.8925 129.327 17.9698V21.0407C129.327 21.1901 129.273 21.3346 129.174 21.4468C129.12 21.5068 129.053 21.5539 128.979 21.5846C128.904 21.6154 128.823 21.6289 128.743 21.6244H125.395C125.023 21.6244 124.837 21.4298 124.837 21.0407L124.834 17.9698Z" fill="#FFD900"/>
<path d="M0.384033 23.5186H0.753659L2.86945 26.6362L4.98523 23.5186H5.35401V28.7868H4.96229V24.2128L2.87709 27.2471H2.8465L0.760456 24.2128V28.791H0.384033V23.5186Z" fill="#B3B3B3"/>
<path d="M9.3833 27.6773V27.662C9.3833 26.8633 10.069 26.4121 11.0623 26.4121C11.4911 26.4083 11.9184 26.4641 12.3318 26.5778V26.4121C12.3318 25.6363 11.8577 25.2369 11.0666 25.2369C10.6477 25.2412 10.2362 25.3473 9.86764 25.5462L9.73253 25.2225C10.1542 25.0089 10.6194 24.8955 11.0921 24.8911C11.6112 24.8911 12.0268 25.0339 12.3046 25.316C12.5595 25.5709 12.6963 25.9261 12.6963 26.4002V28.7947H12.3318V28.1549C12.1655 28.3874 11.9447 28.5756 11.6887 28.7029C11.4326 28.8302 11.1493 28.8926 10.8635 28.8848C10.1514 28.8814 9.3833 28.4752 9.3833 27.6773ZM12.3429 27.3536V26.9177C11.9178 26.8048 11.48 26.7477 11.0402 26.7477C10.2271 26.7477 9.77502 27.1089 9.77502 27.6433V27.6586C9.77502 28.216 10.3018 28.5398 10.8898 28.5398C11.6724 28.5321 12.3429 28.0538 12.3429 27.3536Z" fill="#B3B3B3"/>
<path d="M16.8839 24.9513H17.2527V26.0432C17.5543 25.3575 18.1942 24.8604 18.9521 24.891V25.2972H18.9147C18.0259 25.2972 17.2501 25.9676 17.2501 27.2175V28.7912H16.8813L16.8839 24.9513Z" fill="#B3B3B3"/>
<path d="M22.3057 26.8861V26.8708C22.3057 25.7942 23.1647 24.8604 24.26 24.8604C24.9823 24.8604 25.4343 25.1917 25.7954 25.5682L25.532 25.8392C25.2006 25.4993 24.8242 25.207 24.2524 25.207C23.3789 25.207 22.7008 25.9369 22.7008 26.8563V26.8708C22.7008 27.797 23.4009 28.5354 24.2821 28.5354C24.8242 28.5354 25.2465 28.2567 25.5703 27.8955L25.8252 28.1207C25.4335 28.5651 24.967 28.8812 24.2592 28.8812C23.1571 28.8812 22.3057 27.9627 22.3057 26.8861Z" fill="#B3B3B3"/>
<path d="M29.4111 27.6773V27.662C29.4111 26.8633 30.096 26.4121 31.0902 26.4121C31.5206 26.4081 31.9496 26.4638 32.3647 26.5778V26.4121C32.3647 25.6363 31.8897 25.2369 31.0995 25.2369C30.6786 25.2394 30.2647 25.3456 29.8946 25.5462L29.7587 25.2225C30.1805 25.0093 30.6456 24.8959 31.1182 24.8911C31.6382 24.8911 32.0529 25.0339 32.3307 25.316C32.5857 25.5709 32.7225 25.9261 32.7225 26.4002V28.7947H32.3613V28.1549C32.1947 28.3871 31.9738 28.5751 31.7179 28.7023C31.4619 28.8295 31.1788 28.8922 30.893 28.8848C30.1835 28.8814 29.4111 28.4752 29.4111 27.6773ZM32.3707 27.3536V26.9177C31.9454 26.8048 31.5072 26.7477 31.0672 26.7477C30.254 26.7477 29.8028 27.1089 29.8028 27.6433V27.6586C29.8028 28.216 30.3297 28.5398 30.9168 28.5398C31.7054 28.5321 32.3724 28.0538 32.3724 27.3502L32.3707 27.3536Z" fill="#B3B3B3"/>
<path d="M36.5845 28.3092L36.8028 28.0152C37.193 28.3326 37.6782 28.5103 38.1811 28.5199C38.7003 28.5199 39.1073 28.2336 39.1073 27.79V27.7747C39.1073 27.3227 38.6246 27.157 38.0876 27.01C37.4631 26.829 36.7697 26.6412 36.7697 25.9555V25.9402C36.7697 25.3233 37.2897 24.8789 38.0349 24.8789C38.5189 24.8909 38.9898 25.0381 39.3945 25.3038L39.199 25.6131C38.8497 25.3744 38.4391 25.2411 38.0162 25.229C37.4894 25.229 37.1436 25.5145 37.1436 25.8986V25.9139C37.1436 26.343 37.6628 26.501 38.2125 26.6591C38.8303 26.829 39.4777 27.0584 39.4777 27.7365V27.7509C39.4777 28.4367 38.8897 28.8734 38.1522 28.8734C37.5822 28.8608 37.0318 28.6627 36.5845 28.3092Z" fill="#B3B3B3"/>
<path d="M51.8438 27.9368C51.5124 28.4416 51.0229 28.8851 50.2624 28.8851C49.3362 28.8851 48.3931 28.1399 48.3931 26.89V26.8747C48.3931 25.6248 49.3345 24.8643 50.2624 24.8643C51.0272 24.8643 51.5277 25.301 51.8438 25.7828V24.9552H52.2125V29.9999H51.8438V27.9368ZM51.8667 26.8823V26.867C51.8667 25.8814 51.102 25.2186 50.2998 25.2186C49.4646 25.2186 48.7941 25.8287 48.7941 26.8602V26.8747C48.7941 27.8841 49.4943 28.5316 50.2998 28.5316C51.1054 28.5316 51.8667 27.857 51.8667 26.8781V26.8823Z" fill="#B3B3B3"/>
<path d="M56.397 27.2998V24.9512H56.7657V27.2327C56.7657 28.0229 57.2101 28.5429 57.9859 28.5429C58.7388 28.5429 59.3191 27.9702 59.3191 27.1723V24.9512H59.6879V28.791H59.3208V28.0756C59.1893 28.3269 58.9894 28.5358 58.7442 28.6784C58.4989 28.8209 58.2184 28.8912 57.935 28.8811C56.962 28.8811 56.397 28.2192 56.397 27.2998Z" fill="#B3B3B3"/>
<path d="M63.687 26.8784V26.8631C63.687 25.7492 64.4704 24.8604 65.5096 24.8604C66.5862 24.8604 67.272 25.7339 67.272 26.8708C67.2728 26.9213 67.2702 26.9718 67.2643 27.022H64.0796C64.1476 27.978 64.8324 28.5354 65.5853 28.5354C66.1801 28.5354 66.5871 28.272 66.9032 27.9329L67.1581 28.1589C66.7664 28.5838 66.3084 28.8812 65.5691 28.8812C64.5605 28.8812 63.687 28.0757 63.687 26.8784ZM66.8726 26.6906C66.8199 25.9148 66.3755 25.1994 65.4944 25.1994C64.7296 25.1994 64.1467 25.8392 64.0787 26.6906H66.8726Z" fill="#B3B3B3"/>
<path d="M76.0671 26.8861V26.8708C76.0671 25.7942 76.9262 24.8604 78.0215 24.8604C78.7446 24.8604 79.1966 25.1917 79.5578 25.5682L79.2944 25.8392C78.963 25.4993 78.5865 25.207 78.0147 25.207C77.1412 25.207 76.4631 25.9369 76.4631 26.8563V26.8708C76.4631 27.797 77.1633 28.5354 78.0444 28.5354C78.5865 28.5354 79.008 28.2567 79.3317 27.8955L79.5867 28.1207C79.1949 28.5651 78.7284 28.8812 78.0198 28.8812C76.9186 28.8812 76.0671 27.9627 76.0671 26.8861Z" fill="#B3B3B3"/>
<path d="M83.113 26.8861V26.8708C83.113 25.7942 83.9483 24.8604 85.0937 24.8604C86.2392 24.8604 87.0583 25.7789 87.0583 26.8563V26.8708C87.0583 27.9482 86.223 28.8812 85.0784 28.8812C83.9339 28.8812 83.113 27.9627 83.113 26.8861ZM86.6598 26.8861V26.8708C86.6598 25.9446 85.9664 25.207 85.0784 25.207C84.1675 25.207 83.5115 25.9522 83.5115 26.8563V26.8708C83.5115 27.797 84.2049 28.5354 85.0937 28.5354C86.0021 28.5354 86.6606 27.7902 86.6606 26.8861H86.6598Z" fill="#B3B3B3"/>
<path d="M91.0613 24.9512H91.4301V25.6667C91.5614 25.4152 91.7612 25.206 92.0065 25.0633C92.2517 24.9206 92.5324 24.8502 92.8159 24.8603C93.7871 24.8603 94.3522 25.5231 94.3522 26.4416V28.7911H93.9826V26.5096C93.9826 25.7194 93.5382 25.1994 92.7632 25.1994C92.0095 25.1994 91.4301 25.7721 91.4301 26.57V28.7911H91.0613V24.9512Z" fill="#B3B3B3"/>
<path d="M98.2754 26.8784V26.8631C98.2754 25.7492 99.0588 24.8604 100.098 24.8604C101.175 24.8604 101.86 25.7339 101.86 26.8708C101.861 26.9213 101.859 26.9718 101.853 27.022H98.6629C98.7308 27.978 99.4157 28.5354 100.169 28.5354C100.763 28.5354 101.17 28.272 101.486 27.9329L101.741 28.1589C101.35 28.5838 100.892 28.8812 100.152 28.8812C99.1489 28.8812 98.2754 28.0757 98.2754 26.8784ZM101.461 26.6906C101.408 25.9148 100.964 25.1994 100.083 25.1994C99.318 25.1994 98.7351 25.8392 98.6671 26.6906H101.461Z" fill="#B3B3B3"/>
<path d="M105.535 26.8861V26.8708C105.535 25.7942 106.393 24.8604 107.489 24.8604C108.213 24.8604 108.664 25.1917 109.026 25.5682L108.762 25.8392C108.431 25.4993 108.055 25.207 107.482 25.207C106.608 25.207 105.931 25.9369 105.931 26.8563V26.8708C105.931 27.797 106.631 28.5354 107.512 28.5354C108.055 28.5354 108.476 28.2567 108.8 27.8955L109.055 28.1207C108.663 28.5651 108.196 28.8812 107.489 28.8812C106.386 28.8812 105.535 27.9627 105.535 26.8861Z" fill="#B3B3B3"/>
<path d="M113.164 27.8048V25.2897H112.606V24.9498H113.164V23.7236H113.533V24.9515H114.88V25.2914H113.533V27.7674C113.533 28.3172 113.856 28.5126 114.297 28.5126C114.493 28.511 114.686 28.4648 114.862 28.3775V28.7234C114.667 28.816 114.453 28.8626 114.237 28.8593C113.646 28.8593 113.164 28.5322 113.164 27.8048Z" fill="#B3B3B3"/>
<path d="M118.518 27.6773V27.662C118.518 26.8633 119.203 26.4121 120.197 26.4121C120.628 26.4081 121.057 26.4638 121.472 26.5778V26.4121C121.472 25.6363 120.998 25.2369 120.206 25.2369C119.786 25.2402 119.372 25.3464 119.002 25.5462L118.866 25.2225C119.288 25.0089 119.753 24.8955 120.226 24.8911C120.745 24.8911 121.161 25.0339 121.439 25.316C121.693 25.5709 121.829 25.9261 121.829 26.4002V28.7947H121.468V28.1549C121.302 28.3874 121.081 28.5756 120.825 28.7029C120.569 28.8302 120.286 28.8926 120 28.8848C119.286 28.8814 118.518 28.4752 118.518 27.6773ZM121.478 27.3536V26.9177C121.053 26.8048 120.615 26.7477 120.175 26.7477C119.362 26.7477 118.91 27.1089 118.91 27.6433V27.6586C118.91 28.216 119.437 28.5398 120.024 28.5398C120.807 28.5321 121.478 28.0538 121.478 27.3536Z" fill="#B3B3B3"/>
<path d="M126.019 24.9512H126.387V25.6667C126.519 25.4152 126.719 25.206 126.964 25.0633C127.209 24.9206 127.49 24.8502 127.773 24.8603C128.744 24.8603 129.31 25.5231 129.31 26.4416V28.7911H128.941V26.5096C128.941 25.7194 128.496 25.1994 127.721 25.1994C126.968 25.1994 126.387 25.7721 126.387 26.57V28.7911H126.019V24.9512Z" fill="#B3B3B3"/>
<path d="M65.5162 7.43276C65.8493 7.22033 66.0958 7.06398 66.1009 7.05974C66.1246 7.04189 68.1886 5.73928 69.7232 4.77655C69.7521 4.67366 69.7427 4.56378 69.6968 4.46726C69.6434 4.36335 69.5673 4.27275 69.4742 4.20215C68.3696 4.89297 65.0387 7.00026 65.0183 7.0147C65.0183 7.0147 64.8883 7.09967 64.6929 7.22203C64.9526 7.26398 65.2084 7.32736 65.4576 7.41152L65.5162 7.43276Z" fill="#29BBEF"/>
<path d="M67.177 21.3465L64.61 17.1294C64.3658 17.165 64.1193 17.1829 63.8725 17.1829C63.8173 17.1829 63.7629 17.1829 63.7085 17.1787L66.4055 21.5836C66.5584 21.5437 66.7105 21.4986 66.8609 21.4536C66.9674 21.4196 67.0728 21.3839 67.177 21.3465Z" fill="#29BBEF"/>
<path d="M59.0382 16.3076C59.0382 16.3076 58.7875 15.9082 58.7875 15.9048C58.2461 15.025 57.9929 13.9979 58.0634 12.9672C58.134 11.9365 58.5247 10.9535 59.181 10.1556C59.2736 10.0426 59.3721 9.93387 59.475 9.83021C59.5778 9.72654 59.6721 9.63817 59.7766 9.54895C59.9628 9.2174 60.1872 8.90883 60.4453 8.62956C60.8708 8.1707 61.3855 7.8035 61.9578 7.55043C62.4125 7.34865 62.8974 7.22347 63.393 7.17995L64.6259 6.39566C64.6463 6.38037 67.1513 4.7982 68.7895 3.7692C68.5907 3.65619 68.3902 3.54912 68.1862 3.44971C66.9584 4.22125 63.5731 6.36423 63.5587 6.37527C63.5442 6.38632 60.8481 8.09764 60.8396 8.10699C60.8311 8.11634 59.486 8.9703 59.4801 8.9754C59.2574 9.11985 59.017 9.2694 58.8207 9.40705C58.6203 9.55229 58.4319 9.71341 58.2573 9.88884C57.7333 10.4215 57.3512 11.077 57.1457 11.7954C56.9403 12.5138 56.9181 13.2723 57.0813 14.0015C57.1372 14.2572 57.2174 14.507 57.3209 14.7475C57.4124 14.9624 57.5201 15.17 57.643 15.3686L61.5228 21.586C61.825 21.6643 62.131 21.7272 62.4396 21.7746L59.0382 16.3076Z" fill="#29BBEF"/>
<path d="M54.2654 12.2081C54.261 13.0806 54.3753 13.9496 54.6053 14.7912C54.8269 15.6011 55.1556 16.3778 55.5825 17.1007C56.0038 17.8134 56.5134 18.4701 57.0992 19.0551C57.3154 19.2719 57.5423 19.4778 57.779 19.672L55.4848 16.0275L55.2052 15.5831C54.5999 14.6117 54.3153 13.4745 54.3915 12.3325C54.4678 11.1904 54.901 10.1012 55.6301 9.21878C55.7338 9.09388 55.8425 8.97322 55.9572 8.8585C56.1717 8.64161 56.4036 8.44268 56.6506 8.2637C56.9055 8.08526 57.1375 7.94676 57.378 7.79211C57.378 7.79211 58.8046 6.88547 58.8072 6.88207C58.8097 6.87867 61.6614 5.07048 61.6682 5.06538C61.675 5.06028 63.8043 3.72028 65.5522 2.61566C65.2752 2.57147 64.9931 2.53748 64.7025 2.51709C63.0506 3.56309 60.6315 5.09767 60.6239 5.10022C60.6162 5.10277 57.6278 7.00273 57.6218 7.00528C57.6159 7.00783 56.1238 7.95696 56.1229 7.95866C55.8774 8.1167 55.6131 8.2807 55.3947 8.43025C55.1942 8.5738 55.005 8.7326 54.8288 8.90524C54.7438 9.14231 54.6657 9.38278 54.5977 9.62919C54.3702 10.4697 54.2584 11.3373 54.2654 12.2081Z" fill="#29BBEF"/>
<path d="M57.262 16.1677L56.9969 15.7429C56.3785 14.7517 56.1146 13.5802 56.2483 12.4196C56.3619 11.4157 56.7636 10.4661 57.4047 9.68525C57.5033 9.56629 57.6069 9.453 57.7157 9.34537C57.9197 9.13955 58.1402 8.95084 58.3751 8.78116C58.6198 8.61121 58.8373 8.47866 59.0659 8.33081C59.0659 8.32571 60.4204 7.46835 60.4255 7.46325C60.4306 7.45815 63.136 5.74088 63.1445 5.73323C63.153 5.72559 65.6087 4.17316 67.3336 3.08723C67.1688 3.0252 67.0023 2.96657 66.834 2.91728C66.7703 2.89689 66.7057 2.87905 66.6411 2.86035C65.166 3.79504 62.1011 5.73408 62.0917 5.74088C62.0824 5.74768 59.2359 7.54822 59.2359 7.55502C59.2359 7.56182 57.8109 8.46166 57.8083 8.46506C57.5738 8.61716 57.3206 8.77351 57.115 8.91711C56.3707 9.45479 55.8004 10.1989 55.4747 11.0573C55.1489 11.9157 55.082 12.8508 55.2821 13.7469C55.3422 14.0155 55.4276 14.2778 55.537 14.5303C55.6337 14.7564 55.7473 14.9748 55.8769 15.1838L59.3608 20.7417C59.7072 20.9291 60.0651 21.0946 60.4323 21.2371L57.262 16.1677Z" fill="#29BBEF"/>
<path d="M69.6875 19.9853L67.9116 17.0113C67.9116 17.0053 67.7348 16.7215 67.7357 16.7156C67.6559 16.5814 67.5852 16.442 67.5241 16.2984C67.4559 16.1925 67.3508 16.1156 67.2293 16.0826C67.1273 16.0656 67.0004 16.1035 66.8486 16.1964C66.7466 16.2729 66.643 16.3451 66.5359 16.4139L68.9907 20.4926C69.1377 20.4076 69.2822 20.315 69.4249 20.2198C69.5274 20.1602 69.6167 20.0804 69.6875 19.9853Z" fill="#29BBEF"/>
<path d="M66.1408 16.8686C66.1408 16.8686 66.0856 16.7752 66.0346 16.6919C65.8514 16.7802 65.6629 16.8574 65.4704 16.923C65.3956 16.9485 65.3192 16.9714 65.2427 16.9935L67.7511 21.1232C68.006 21.0161 68.2524 20.8997 68.4954 20.7722L66.1408 16.8686Z" fill="#29BBEF"/>
<path d="M55.5654 7.33741L55.6895 7.25839C55.6895 7.25839 57.1884 6.30841 57.1892 6.30671C57.1901 6.30501 60.187 4.40675 60.1904 4.4042L63.1644 2.51953C62.7536 2.55299 62.3454 2.61345 61.9425 2.70052L59.1674 4.46113L56.2511 6.31181C56.0086 6.62864 55.7853 6.95978 55.5824 7.30342L55.5654 7.33741Z" fill="#29BBEF"/>
<path d="M64.1762 21.8871L60.8139 16.4489C60.8139 16.4489 60.5786 16.0708 60.5786 16.0674C60.4802 15.9069 60.3917 15.7406 60.3134 15.5694C59.9475 15.1427 59.6572 14.6564 59.4552 14.1317C59.2148 13.5108 59.0943 12.85 59.1001 12.1842C59.1001 12.0057 59.1086 11.8307 59.1238 11.6582C58.7722 12.4774 58.6869 13.3863 58.88 14.2566C58.9326 14.4989 59.0083 14.7357 59.106 14.9636C59.1919 15.1691 59.293 15.3679 59.4085 15.5584L63.3265 21.8735C63.5356 21.8862 63.7463 21.8922 63.9587 21.893C64.0326 21.8913 64.1049 21.8888 64.1762 21.8871Z" fill="#29BBEF"/>
<path d="M62.8967 17.0884C62.5727 17.0241 62.2569 16.9238 61.9552 16.7893C61.8915 16.7604 61.8286 16.7298 61.7666 16.6992L64.9377 21.8425C65.2114 21.8162 65.4807 21.7797 65.7458 21.7304L62.8967 17.0884Z" fill="#29BBEF"/>
<path d="M66.8836 8.16512C67.266 7.92125 67.5685 7.72921 67.5762 7.72326L67.8056 7.57711L68.7734 6.20312C67.6365 6.92028 66.4945 7.64254 66.4792 7.65359L66.2888 7.77935C66.4776 7.88577 66.6593 8.00442 66.8326 8.13453C66.8491 8.14553 66.8662 8.15574 66.8836 8.16512Z" fill="#29BBEF"/>
<path d="M82.0086 11.467C82.0409 11.4611 82.6374 11.105 82.6697 11.1025C82.702 11.0999 83.2416 10.777 83.2722 10.777L84.2918 10.2256L84.4533 10.1406L86.0235 9.29599C85.8695 9.03199 85.701 8.77669 85.5188 8.53125L83.5721 9.62313L83.4251 9.7081L82.0052 10.5034C81.9882 10.5034 81.7027 10.6734 81.5022 10.7881C81.6746 11.0066 81.8236 11.2428 81.9466 11.4925C81.9661 11.4814 81.987 11.4729 82.0086 11.467Z" fill="#4BE26F"/>
<path d="M71.1934 10.2401C71.6114 9.97157 71.9972 9.72515 72.0116 9.71495C72.0796 9.66482 76.0053 7.1981 76.0903 7.18621C76.1107 7.18621 77.098 6.57101 77.1193 6.56931C77.1405 6.56761 78.0353 6.01275 78.054 6.01275L79.3285 5.25396C79.1747 5.24631 79.0209 5.24121 78.8646 5.24121C78.5087 5.24117 78.1532 5.26245 77.7999 5.30494L76.6485 6.00086C76.6324 6.00086 75.6093 6.63729 75.594 6.63814C75.5787 6.63899 74.6594 7.2117 74.6458 7.21425C74.6067 7.22019 73.0118 8.21861 71.9054 8.91367C71.8205 9.04623 71.7355 9.1819 71.6505 9.32069C71.478 9.61675 71.3253 9.92388 71.1934 10.2401Z" fill="#4BE26F"/>
<path d="M82 21.3021L80.3473 17.9882C80.3473 17.9781 80.2742 17.8514 80.2742 17.8404C80.1942 17.6792 80.137 17.5076 80.1043 17.3306C79.6964 17.4812 79.2645 17.5563 78.8297 17.5523H78.8145C78.824 17.576 78.8357 17.5988 78.8493 17.6203L80.9557 21.6488L81.0831 21.6157C81.3943 21.5281 81.7004 21.4235 82 21.3021Z" fill="#4BE26F"/>
<path d="M81.5582 10.1958C81.5879 10.1958 82.1989 9.82445 82.2269 9.82361L83.3622 9.19397L83.5414 9.0954L85.2239 8.16071C85.0735 7.98228 84.9171 7.80893 84.7514 7.64324C84.7022 7.59481 84.6512 7.54807 84.601 7.50049L82.6611 8.61191L82.4988 8.70453L80.9354 9.59928C80.9201 9.59928 80.6431 9.76413 80.4255 9.89243C80.6935 10.0328 80.9413 10.2085 81.1622 10.415C81.3475 10.3096 81.5421 10.1966 81.5582 10.1958Z" fill="#4BE26F"/>
<path d="M75.3715 21.1619L73.2472 17.4282C73.2472 17.4206 73.1146 17.2039 73.1146 17.1954C72.806 16.6474 72.6823 16.0145 72.762 15.3906C72.8301 14.8478 73.0458 14.334 73.3857 13.9053C73.4384 13.8399 73.4928 13.777 73.5505 13.7158C73.6584 13.6025 73.7749 13.4977 73.8989 13.4023C74.0272 13.308 74.1428 13.2323 74.2634 13.1474C74.2787 13.127 74.9679 12.6809 74.9857 12.6613C75.0035 12.6418 75.1157 12.5696 75.2831 12.46C75.3188 12.31 75.3622 12.1619 75.4131 12.0164C75.5248 11.6981 75.6746 11.3946 75.8592 11.1123C75.5193 11.3247 75.2763 11.4785 75.2576 11.4921C75.2211 11.5185 73.6916 12.4965 73.6627 12.5313C73.6474 12.5483 72.8869 13.0412 72.8742 13.059C72.7433 13.1508 72.6031 13.2451 72.4884 13.3335C72.3724 13.4212 72.2638 13.5184 72.1638 13.6241C71.8619 13.9446 71.6415 14.333 71.5212 14.7565C71.4008 15.18 71.384 15.6263 71.4721 16.0576C71.5023 16.2087 71.5464 16.3566 71.6039 16.4995C71.6549 16.6263 71.7145 16.7495 71.7823 16.8683L73.6686 20.1235C73.9738 20.3652 74.2958 20.5847 74.6322 20.7804C74.8716 20.9207 75.1184 21.048 75.3715 21.1619Z" fill="#4BE26F"/>
<path d="M79.8221 9.65095C80.0549 9.51415 80.4288 9.28982 80.4483 9.28897C80.4679 9.28812 81.1579 8.87091 81.1833 8.87091L82.4324 8.16225L82.6296 8.05094L84.2118 7.15534C83.9739 6.95745 83.7251 6.77306 83.4665 6.60303L81.7535 7.60399L81.5768 7.70681L79.8688 8.70182C79.8459 8.70182 79.048 9.1904 79.0276 9.19125C79.0072 9.1921 78.6631 9.40538 78.4438 9.53624C78.5713 9.52434 78.6988 9.51754 78.8347 9.51754C79.1684 9.51591 79.5008 9.56082 79.8221 9.65095Z" fill="#4BE26F"/>
<path d="M79.0684 21.9038L76.7954 17.7121C76.7954 17.7028 76.6926 17.5311 76.6934 17.5218C76.5745 17.2997 76.491 17.0602 76.4462 16.8123C76.4385 16.7672 76.4326 16.7231 76.4275 16.678C76.3284 16.591 76.2347 16.4979 76.1471 16.3993C75.8212 16.0307 75.5709 15.6017 75.4104 15.1366C75.3883 15.0746 75.3679 15.0126 75.3492 14.9497C75.0585 15.4384 74.9584 16.0172 75.0679 16.5752C75.0917 16.7002 75.1267 16.8227 75.1724 16.9414C75.2127 17.0467 75.2604 17.1489 75.3152 17.2473L77.8796 21.8519C78.2067 21.8874 78.5355 21.9047 78.8644 21.9038H79.0684Z" fill="#4BE26F"/>
<path d="M77.3648 21.7749L75.0204 17.5705C75.0204 17.562 74.9023 17.3682 74.9023 17.3589C74.7662 17.1123 74.6704 16.8455 74.6185 16.5687C74.5467 16.1857 74.5578 15.7918 74.651 15.4135C74.7443 15.0352 74.9174 14.6813 75.1589 14.3756C75.1742 14.356 75.1912 14.3382 75.2074 14.3195C75.1689 14.0707 75.1498 13.8192 75.1504 13.5675C75.1504 13.4264 75.1572 13.2871 75.1683 13.1494C74.9754 13.2794 74.559 13.5522 74.548 13.5683C74.429 13.6533 74.3007 13.7383 74.1962 13.8232C74.0912 13.9045 73.9926 13.9937 73.9013 14.09C73.6266 14.3843 73.426 14.7399 73.316 15.1272C73.2061 15.5145 73.19 15.9224 73.2692 16.3171C73.2962 16.4553 73.3357 16.5907 73.3873 16.7216C73.4323 16.8387 73.486 16.9523 73.5479 17.0615L76.0358 21.4316C76.2296 21.5001 76.4278 21.5619 76.6306 21.6168C76.8702 21.678 77.1158 21.7341 77.3648 21.7749Z" fill="#4BE26F"/>
<path d="M70.8166 15.8067C71.0085 16.5062 71.2901 17.178 71.6545 17.8052C71.8651 18.1689 72.1041 18.5156 72.3691 18.8418L71.4718 17.2886C71.4718 17.2818 71.3248 17.0422 71.3248 17.0337C70.9835 16.4368 70.8449 15.7454 70.9297 15.0632C71.0011 14.4693 71.2365 13.907 71.6094 13.4394C71.6664 13.368 71.7267 13.2992 71.7904 13.2337C71.9085 13.1103 72.0364 12.9966 72.1728 12.8939C72.3147 12.7902 72.4413 12.7086 72.5738 12.6177C72.5883 12.599 73.3505 12.1079 73.3666 12.0892C73.3981 12.0535 74.9293 11.0755 74.9683 11.0474C75.0533 10.9854 78.3562 8.91804 78.4581 8.90275C78.4836 8.89765 79.3146 8.38867 79.3401 8.38697C79.3656 8.38527 80.1185 7.92303 80.1423 7.92303L81.5018 7.13619L81.7168 7.01213L82.9531 6.29922C82.6798 6.14648 82.3984 6.00863 82.1102 5.88626L82.0686 5.87012L80.8373 6.59832L80.6453 6.71133L78.7938 7.79897C78.7734 7.79897 77.9007 8.33769 77.8812 8.33854C77.8616 8.33939 77.079 8.82372 77.0603 8.82712C76.9864 8.83732 73.8561 10.8036 73.794 10.8477C73.7609 10.8715 72.0861 11.9422 72.0589 11.9728C72.0453 11.9889 71.2092 12.5268 71.1999 12.5438C71.0571 12.6415 70.9042 12.7435 70.7793 12.8378C70.6936 12.9031 70.6116 12.9732 70.5337 13.0476C70.5243 13.2176 70.5184 13.3875 70.5184 13.5634C70.515 14.3213 70.6153 15.076 70.8166 15.8067Z" fill="#4BE26F"/>
<path d="M75.7207 5.83496C75.3451 5.98113 74.9807 6.15466 74.6305 6.35414C74.1601 6.62499 73.7183 6.9427 73.3118 7.30242C74.1615 6.7739 74.8778 6.33034 74.9084 6.3261C74.9203 6.32695 75.397 6.03209 75.7207 5.83496Z" fill="#4BE26F"/>
<path d="M83.2958 20.6446L82.1232 18.1295C82.1232 18.1184 82.0645 18.0139 82.0645 18.0029C81.9972 17.8541 81.9517 17.6964 81.9294 17.5347C81.8667 17.0794 81.9854 16.6177 82.26 16.2491C82.2864 16.213 82.3147 16.1784 82.3449 16.1454C82.3988 16.083 82.4573 16.0247 82.52 15.9712C82.5846 15.9177 82.6432 15.8735 82.7044 15.8259C82.7256 15.7962 83.0443 15.5786 83.0723 15.5514C83.1216 15.4971 83.7742 15.0688 83.837 15.0255C83.9654 14.9312 85.4014 14.0602 85.5594 14.0364C85.5985 14.0279 85.9613 13.8248 86.0013 13.8214C86.0412 13.818 86.3658 13.6353 86.4032 13.6353L87.083 13.3193L87.1773 13.2759C87.1681 12.9367 87.1397 12.5982 87.0923 12.2622L86.3123 12.6556L86.2103 12.7066L85.2229 13.2037C85.1898 13.2037 84.7675 13.4476 84.7369 13.4484C84.7063 13.4493 84.329 13.6693 84.2993 13.6753C84.1812 13.6914 82.6746 14.6151 82.5769 14.6847C82.5548 14.7009 82.407 14.7978 82.237 14.9108C82.2158 14.9855 82.1928 15.0603 82.1682 15.1334C82.016 15.5966 81.7747 16.0255 81.4578 16.3961C81.1757 16.7193 80.8338 16.985 80.4509 17.1787C80.4524 17.2338 80.4587 17.2886 80.4696 17.3426C80.4835 17.4294 80.5051 17.5147 80.5342 17.5976C80.5579 17.6696 80.5863 17.74 80.6192 17.8083L82.2999 21.1783C82.5638 21.06 82.8213 20.9281 83.0715 20.7831L83.2958 20.6446Z" fill="#4BE26F"/>
<path d="M83.899 18.2696C83.899 18.2577 83.8549 18.1762 83.8557 18.1643C83.8047 18.0404 83.7715 17.91 83.7571 17.7768C83.7415 17.6413 83.7447 17.5044 83.7665 17.3698C83.8041 17.1342 83.8964 16.9107 84.0358 16.7172C84.0562 16.6875 84.0792 16.6594 84.1021 16.6322C84.1458 16.5802 84.193 16.5311 84.2432 16.4852C84.2942 16.441 84.3417 16.4003 84.391 16.3629C84.4131 16.3314 84.6621 16.1589 84.6884 16.13C84.7403 16.0723 85.2467 15.7358 85.3096 15.6899C85.4455 15.5896 86.5697 14.9184 86.7371 14.8929C86.7787 14.8844 87.0583 14.7348 87.1042 14.7297C87.1497 14.3831 87.175 14.0341 87.1798 13.6846L87.1305 13.7075L86.2876 14.1043C86.2519 14.1043 85.9044 14.2989 85.8721 14.3006C85.8398 14.3023 85.5322 14.4774 85.4991 14.4833C85.3733 14.5003 84.1395 15.248 84.0333 15.3254C83.9772 15.3653 83.3263 15.7919 83.2804 15.8445C83.2583 15.8709 82.9406 16.0884 82.9193 16.1173C82.8573 16.1683 82.7919 16.2218 82.7375 16.2728C82.6855 16.3184 82.6369 16.3679 82.5922 16.4207C82.4322 16.6118 82.3228 16.8399 82.274 17.0843C82.2252 17.3287 82.2384 17.5814 82.3126 17.8193C82.3323 17.8806 82.3561 17.9405 82.384 17.9986L83.5447 20.4874C83.8845 20.2568 84.2066 20.0012 84.5083 19.7226L83.899 18.2696Z" fill="#4BE26F"/>
<path d="M78.5714 17.8492C78.5714 17.839 78.4864 17.6903 78.4864 17.6792C78.4618 17.6308 78.4388 17.5807 78.4176 17.5305C78.0328 17.4966 77.6565 17.3981 77.3045 17.2391C77.1724 17.1791 77.0441 17.111 76.9204 17.0352C76.9332 17.0759 76.945 17.1201 76.9603 17.1558C76.9955 17.2501 77.0373 17.3418 77.0853 17.4303L79.4967 21.8802C79.868 21.8547 80.2371 21.8036 80.6013 21.7273L78.5714 17.8492Z" fill="#4BE26F"/>
<path d="M85.6691 18.3913C85.6591 18.3704 85.6514 18.3484 85.6462 18.3259C85.6123 18.2268 85.5917 18.1236 85.585 18.0191C85.563 17.7239 85.6428 17.43 85.811 17.1864C85.8271 17.1626 85.8441 17.1397 85.8611 17.1176C85.8938 17.0755 85.9293 17.0358 85.9673 16.9986C86.0056 16.9621 86.0413 16.9306 86.0787 16.8975C86.116 16.8643 86.2783 16.7377 86.3055 16.7072C86.4266 16.6059 86.5534 16.5117 86.6854 16.425C86.7584 16.2228 86.8247 16.0172 86.8833 15.8065C86.942 15.5957 86.9938 15.368 87.0354 15.1445C87.0283 15.1476 87.0209 15.1498 87.0133 15.1513C86.9802 15.1513 86.7372 15.2839 86.704 15.2907C86.5715 15.3085 85.6062 15.8855 85.4966 15.9637C85.4363 16.0061 84.9324 16.3401 84.884 16.3962C84.8602 16.4242 84.6129 16.5958 84.5934 16.6264C84.5424 16.6715 84.4906 16.7173 84.4464 16.7624C84.4048 16.8008 84.3662 16.8423 84.3308 16.8864C84.2222 17.0213 84.1422 17.177 84.0958 17.3438C84.0493 17.5106 84.0374 17.6852 84.0606 17.8568C84.0688 17.9163 84.0813 17.9751 84.098 18.0327C84.1125 18.0834 84.1304 18.1331 84.1515 18.1814L84.7149 19.5214L84.7514 19.4866C85.0886 19.1489 85.3957 18.7824 85.6691 18.3913Z" fill="#4BE26F"/>
<path d="M82.3484 14.3654H82.3535C82.4742 14.2805 84.2229 13.2056 84.3707 13.1835C84.4081 13.1758 84.8482 12.9218 84.8856 12.9192C84.923 12.9167 85.3198 12.6864 85.3538 12.6856L86.15 12.2921L86.2758 12.2301L87.0159 11.8639C86.9512 11.5476 86.8678 11.2355 86.7661 10.9292L85.3938 11.6532L85.2765 11.7143L84.1455 12.3091C84.1149 12.3091 83.617 12.6023 83.5881 12.6031C83.5592 12.604 83.1148 12.8682 83.0868 12.8733C82.8499 12.9877 82.62 13.1163 82.3985 13.2583C82.4045 13.3619 82.4087 13.4664 82.4087 13.5718C82.4084 13.8375 82.3882 14.1028 82.3484 14.3654Z" fill="#4BE26F"/>
<path d="M70.6223 12.2562L70.8883 12.0777C70.901 12.0599 71.738 11.5229 71.7516 11.5067C71.7805 11.4744 73.4587 10.4021 73.4935 10.3783C73.5683 10.3231 77.1847 8.05602 77.2781 8.04158C77.3011 8.03733 78.2128 7.47737 78.2332 7.47567C78.2536 7.47397 79.0829 6.96584 79.1025 6.96584L80.5776 6.09913L80.8104 5.96318L81.3984 5.62329C81.0403 5.51136 80.6749 5.42448 80.3048 5.36328L79.9309 5.58676L79.7245 5.71081L77.7276 6.90041C77.7089 6.90041 76.7615 7.48842 76.7445 7.48927C76.7275 7.49012 75.8761 8.01864 75.86 8.02204C75.7928 8.03053 72.3914 10.171 72.3362 10.2109C72.3149 10.2253 71.4159 10.7998 70.8696 11.1532C70.8534 11.2085 70.8364 11.2637 70.8211 11.3232C70.7363 11.6299 70.6699 11.9415 70.6223 12.2562Z" fill="#4BE26F"/>
<path d="M86.4712 16.9639C86.4211 17.0081 86.286 17.1083 86.2673 17.1338C86.2282 17.1712 86.1882 17.2103 86.1543 17.2494C85.9964 17.4113 85.895 17.6199 85.8654 17.8442C85.8519 17.9311 85.8499 18.0193 85.8594 18.1067C85.9231 18.0065 85.986 17.9062 86.0455 17.8034C86.2035 17.532 86.3457 17.2517 86.4712 16.9639Z" fill="#4BE26F"/>
<path d="M82.3484 12.7906C82.7732 12.5357 83.1309 12.3317 83.187 12.3233C83.2219 12.3165 83.7402 12.0114 83.775 12.0089C83.8099 12.0063 84.2781 11.7302 84.3103 11.7293L85.2195 11.2569L85.3631 11.1821L86.6233 10.5287C86.5918 10.4437 86.5604 10.3655 86.5264 10.2856C86.4363 10.0766 86.3378 9.87523 86.2349 9.67725L84.482 10.6349L84.3494 10.7071L83.0749 11.4022C83.046 11.4022 82.4733 11.742 82.4469 11.742C82.3369 11.7946 82.2302 11.8539 82.1274 11.9196L82.1614 12.014C82.2453 12.2672 82.3078 12.527 82.3484 12.7906Z" fill="#4BE26F"/>
<path d="M88.2964 14.2325L93.0199 12.2722C93.0446 12.1872 93.0709 12.1022 93.1049 12.0173C93.2684 11.5428 93.5204 11.1037 93.8475 10.7232C93.9121 10.6475 93.981 10.5762 94.0515 10.5073C93.9908 10.5166 93.9309 10.5302 93.8722 10.5481C93.7985 10.5711 93.7267 10.5995 93.6572 10.6331L88.2862 13.1644C88.2811 13.2978 88.2777 13.4312 88.2777 13.5654C88.2703 13.788 88.2765 14.0107 88.2964 14.2325Z" fill="#4BE26F"/>
<path d="M96.394 17.5484L97.74 21.4978C97.74 21.508 97.7629 21.5548 97.7621 21.565C97.7659 21.5863 97.7712 21.6073 97.7782 21.6278C98.0366 21.5394 98.2882 21.4324 98.5311 21.3075C98.6942 21.2225 98.8506 21.1333 99.0018 21.0381L97.4553 17.4438C97.1444 17.5159 96.8262 17.5518 96.5071 17.5509C96.4688 17.5509 96.4314 17.5492 96.394 17.5484Z" fill="#4BE26F"/>
<path d="M104.458 4.38466C104.458 4.40166 104.851 5.03555 105.01 5.30321V3.73123C104.894 3.5375 104.465 2.85008 104.462 2.83733C104.462 2.80505 103.766 1.70042 103.135 0.697754H102.187C102.843 1.74205 104.448 4.31499 104.458 4.38466Z" fill="#4BE26F"/>
<path d="M100.137 2.5082C100.366 2.86508 100.578 3.19731 100.592 3.21516C100.652 3.30013 102.734 6.6378 102.748 6.74062C102.753 6.76611 103.264 7.60223 103.266 7.62857C103.267 7.65491 103.729 8.40946 103.73 8.43325L104.494 9.7571L104.635 10.0001L105.014 10.6603V8.90314L104.978 8.84196L103.878 6.98789C103.878 6.96664 103.338 6.09314 103.337 6.07445C103.336 6.05575 102.851 5.27486 102.848 5.25617C102.837 5.18309 100.879 2.07569 100.835 2.01536C100.822 1.99922 100.547 1.57011 100.27 1.14355C100.182 1.30218 100.138 1.48131 100.141 1.66273L100.137 2.5082Z" fill="#4BE26F"/>
<path d="M100.644 0.790236C100.934 1.24143 101.239 1.72067 101.252 1.73937C101.308 1.81669 103.591 5.46961 103.603 5.56308C103.603 5.58602 104.17 6.49776 104.172 6.52411C104.174 6.55045 104.682 7.37382 104.682 7.39591L105.01 7.95927V6.30063L104.781 5.91231C104.781 5.89362 104.191 4.94534 104.186 4.92834C104.181 4.91135 103.657 4.06333 103.653 4.04634C103.644 3.98856 101.986 1.35359 101.567 0.697616H101.127C100.961 0.693538 100.796 0.725123 100.644 0.790236Z" fill="#4BE26F"/>
<path d="M97.7517 17.3613L99.2073 20.9029C99.3016 20.8383 99.3942 20.7729 99.4834 20.7049C99.7353 20.5112 99.9762 20.3035 100.205 20.0829L98.7008 16.916C98.4902 17.0494 98.2678 17.1632 98.0364 17.2559C97.9434 17.2959 97.8483 17.3311 97.7517 17.3613Z" fill="#4BE26F"/>
<path d="M93.5257 10.348C93.5385 10.348 93.6472 10.2877 93.6591 10.2877C93.8077 10.2214 93.9651 10.177 94.1265 10.156C94.2445 10.1407 94.3638 10.1373 94.4825 10.1458C94.6476 10.0304 94.8218 9.92869 95.0034 9.84161C95.3484 9.67863 95.7189 9.5763 96.0986 9.53911C96.0852 9.51895 96.0699 9.50017 96.0528 9.48303C95.995 9.40996 95.9364 9.33348 95.8828 9.26975C95.8286 9.20689 95.7701 9.14784 95.7078 9.09301C95.4532 8.87289 95.1387 8.73382 94.8045 8.69365C94.6386 8.67279 94.4704 8.67708 94.3057 8.70639C94.234 8.71873 94.1633 8.73634 94.0942 8.75908C94.0065 8.78699 93.9213 8.82194 93.8393 8.86359L88.4861 11.5606C88.4005 11.9544 88.3414 12.3535 88.3093 12.7553L93.5257 10.348Z" fill="#4BE26F"/>
<path d="M99.9485 15.6109L102.897 21.6116H103.982C104.074 21.6124 104.165 21.6056 104.256 21.5912L100.432 14.3687C100.371 14.6696 100.276 14.9625 100.147 15.2413C100.087 15.3682 100.021 15.4914 99.9485 15.6109Z" fill="#4BE26F"/>
<path d="M101.892 7.91857C101.897 7.94662 102.357 8.70456 102.358 8.7326C102.36 8.76064 102.776 9.44466 102.776 9.47015L103.464 10.6878L103.59 10.9104L105.011 13.4298V11.5477L104.086 9.96554L103.973 9.7718L102.973 8.06133C102.973 8.03838 102.482 7.23965 102.48 7.21926C102.478 7.19887 102.039 6.48511 102.035 6.46471C102.023 6.38484 100.238 3.54595 100.189 3.47967C100.189 3.47967 100.167 3.44738 100.138 3.40234V5.0168C100.64 5.81893 101.881 7.82766 101.892 7.91857Z" fill="#4BE26F"/>
<path d="M98.9668 16.7275L101.187 21.5785C101.288 21.6027 101.391 21.6139 101.495 21.6117H102.599L99.7281 15.9424C99.5948 16.1247 99.4461 16.2952 99.2837 16.4522C99.1833 16.5498 99.0775 16.6417 98.9668 16.7275Z" fill="#4BE26F"/>
<path d="M99.3817 6.25658C99.3478 6.23024 99.3129 6.20475 99.2781 6.17926C99.42 6.39253 101.022 8.97821 101.039 9.09717C101.045 9.12691 101.452 9.80583 101.455 9.83727C101.458 9.86871 101.826 10.4797 101.826 10.5077L102.435 11.6123L102.546 11.8146L105.01 16.2807V14.2566L103.071 10.8833L102.969 10.7057L102.069 9.13966C102.069 9.11502 101.628 8.39191 101.626 8.36897C101.624 8.34603 101.228 7.70024 101.224 7.67815C101.215 7.62547 100.617 6.65849 100.137 5.88525V6.95844C99.9029 6.7063 99.6504 6.47171 99.3817 6.25658Z" fill="#4BE26F"/>
<path d="M90.4978 7.64568C90.0969 8.07746 89.7457 8.55288 89.4509 9.06301L93.8057 6.80362C93.8168 6.80362 93.9757 6.71185 93.9833 6.71185C94.3825 6.50936 94.8344 6.43488 95.2774 6.49857C95.6668 6.55221 96.0352 6.70754 96.3455 6.94892C96.3897 6.98376 96.4305 7.02029 96.4747 7.05853C96.5565 7.13438 96.6328 7.21587 96.7032 7.3024C96.7721 7.38737 96.829 7.47234 96.891 7.55731C96.9174 7.57686 97.2309 8.04675 97.2505 8.06714C97.2989 8.11133 97.9098 9.05961 97.9481 9.11229C97.9863 9.16497 98.2531 9.59493 98.5429 10.0742C98.8409 10.2521 99.114 10.4687 99.3552 10.7182C99.7157 11.0925 100.002 11.5316 100.199 12.0124C100.402 12.5032 100.506 13.0294 100.504 13.5605V13.7058L104.533 21.5071C104.85 21.3654 105.009 21.0729 105.009 20.6293V19.9342L101.042 12.7057L100.962 12.5613L100.262 11.2867C100.262 11.2578 99.922 10.6843 99.9169 10.6579C99.9118 10.6316 99.6076 10.1209 99.6016 10.0954C99.5863 9.99259 98.3202 7.96008 98.2582 7.87596C98.2251 7.83007 97.5207 6.74244 97.4773 6.7059C97.4552 6.68806 97.1001 6.14764 97.0754 6.13319C97.0049 6.03718 96.9318 5.93521 96.8621 5.85024C96.7937 5.76625 96.7193 5.6873 96.6395 5.61402C96.4709 5.46091 96.2783 5.33661 96.0694 5.24609C95.2394 5.2505 94.4151 5.38438 93.6264 5.64291L91.2702 6.92683C90.9959 7.14773 90.7378 7.38796 90.4978 7.64568Z" fill="#4BE26F"/>
<path d="M96.9329 5.28174C96.9414 5.28939 96.9507 5.29618 96.9583 5.30383C97.0503 5.38982 97.1355 5.48271 97.2133 5.58169C97.2906 5.68365 97.3543 5.77712 97.4231 5.87399C97.4478 5.89183 97.8021 6.43565 97.8251 6.45604C97.8701 6.49768 98.5728 7.59211 98.6085 7.64564C98.6858 7.75271 100.164 10.1472 100.183 10.2798C100.189 10.3129 100.547 10.9128 100.548 10.9459C100.55 10.9791 100.873 11.5195 100.873 11.5501L101.406 12.5442L101.503 12.7261L105.009 19.2689V17.0375L102.062 11.7922L101.972 11.6316L101.171 10.2101C101.171 10.1829 100.779 9.53455 100.777 9.50991C100.775 9.48527 100.423 8.90662 100.418 8.88367C100.404 8.78766 98.9654 6.48663 98.9076 6.40931C98.8906 6.38637 98.6527 6.01504 98.4267 5.67431C98.1159 5.53483 97.7908 5.42997 97.4571 5.36161C97.2872 5.32677 97.113 5.30128 96.9329 5.28174Z" fill="#4BE26F"/>
<path d="M88.5981 11.0794L93.6658 8.57525C93.6777 8.57525 93.8103 8.49962 93.8213 8.49962C94.1714 8.33126 94.5639 8.27205 94.9481 8.32968C95.2881 8.37814 95.61 8.51333 95.8827 8.72225C95.9218 8.75199 95.9592 8.78343 95.9958 8.81656C96.0675 8.88137 96.1345 8.95123 96.1963 9.02559C96.2575 9.10207 96.3084 9.17259 96.3662 9.24652C96.3832 9.25841 96.4801 9.39947 96.5625 9.51928C97.0166 9.52125 97.4669 9.60233 97.8932 9.7589C97.7521 9.53202 97.6459 9.36463 97.6264 9.33829C97.5907 9.289 96.9789 8.34752 96.9321 8.30844C96.9083 8.28889 96.5991 7.8224 96.5736 7.80625C96.509 7.72128 96.4436 7.63631 96.3798 7.55899C96.163 7.29859 95.8807 7.1007 95.562 6.98569C95.2433 6.87069 94.8997 6.84274 94.5665 6.90471C94.484 6.91915 94.4027 6.94017 94.3235 6.96759C94.2231 7.0016 94.1257 7.04366 94.0321 7.09334L89.1343 9.67648C89.04 9.87446 88.9508 10.0767 88.8692 10.2857C88.7649 10.5453 88.6744 10.8102 88.5981 11.0794Z" fill="#4BE26F"/>
<path d="M93.9487 19.0708V18.6749C93.9479 18.6356 93.9445 18.5964 93.9385 18.5576C93.9171 18.4027 93.8588 18.2553 93.7686 18.1276C93.6778 18.0001 93.5579 17.896 93.4188 17.824C93.2798 17.7521 93.1256 17.7143 92.969 17.7138L90.8388 17.707H90.442C90.4025 17.7077 90.363 17.7106 90.3238 17.7155C90.1669 17.736 90.0173 17.7943 89.8879 17.8855C89.7568 17.976 89.6493 18.0966 89.5744 18.2373C89.5726 18.2453 89.5692 18.2528 89.5642 18.2593C89.8329 18.6954 90.1437 19.1041 90.4921 19.4795L90.487 18.9604C90.4863 18.9086 90.5025 18.858 90.5332 18.8163C90.5639 18.7746 90.6073 18.744 90.6569 18.7292C90.6864 18.7219 90.7167 18.7187 90.747 18.7199H91.0257L91.584 18.7148L92.6988 18.7097C92.7355 18.7099 92.7718 18.7181 92.8051 18.7336C92.8384 18.7492 92.8679 18.7717 92.8917 18.7998C92.9149 18.8281 92.9322 18.8607 92.9427 18.8958C92.9496 18.9267 92.9527 18.9584 92.952 18.9901V19.8262L92.9401 20.9419C92.9402 20.9901 92.9252 21.037 92.8973 21.0763C92.8695 21.1156 92.8301 21.1452 92.7846 21.1611C92.8568 21.196 92.9282 21.2317 93.0021 21.2639C93.292 21.3923 93.5901 21.5013 93.8943 21.5902C93.9429 21.4688 93.9682 21.3394 93.9691 21.2087L93.9487 19.0708Z" fill="#4BE26F"/>
<path d="M92.7216 21.0178C92.7336 21.0143 92.7446 21.0082 92.7539 21C92.7634 20.9919 92.7709 20.9818 92.7761 20.9705C92.7812 20.9592 92.7838 20.9469 92.7837 20.9345L92.7718 19.8189V18.9827C92.7743 18.9681 92.7743 18.9532 92.7718 18.9386C92.769 18.929 92.7644 18.92 92.7582 18.9122C92.7516 18.9048 92.7434 18.8988 92.7344 18.8947C92.7253 18.8906 92.7155 18.8885 92.7055 18.8884L91.5907 18.8833L91.0324 18.8782H90.7537C90.7379 18.8765 90.722 18.8765 90.7061 18.8782C90.6944 18.8812 90.6833 18.8867 90.6739 18.8944C90.6646 18.9021 90.6571 18.9117 90.6518 18.9225C90.6465 18.9334 90.6436 18.9452 90.6433 18.9573L90.6365 19.6209C91.1895 20.1854 91.8281 20.6591 92.5288 21.0246H92.6792C92.6936 21.0244 92.7079 21.0221 92.7216 21.0178Z" fill="#4BE26F"/>
<path d="M93.8423 16.3963C93.7099 16.2498 93.5902 16.0923 93.4845 15.9255H93.4675C93.4035 15.9155 93.3385 15.9126 93.2738 15.917C93.2453 15.9184 93.2169 15.9215 93.1888 15.9264C93.1548 15.9315 93.1211 15.9383 93.0877 15.9468L89.9497 16.6996L89.9073 16.7098L89.4968 16.8084C89.4552 16.8084 89.3329 16.856 89.2946 16.8568C89.2334 16.871 89.1729 16.8886 89.1136 16.9095C89.0448 16.9239 88.978 16.9468 88.9148 16.9775C89.0608 17.337 89.2311 17.6862 89.4246 18.0226C89.5099 17.8909 89.6185 17.7757 89.745 17.6827C89.9478 17.5391 90.1882 17.4582 90.4366 17.4499H90.8377L92.9679 17.4431C93.1681 17.4444 93.3651 17.4935 93.5424 17.5864C93.7198 17.6792 93.8724 17.813 93.9876 17.9767C94.1296 18.1822 94.2084 18.4247 94.2144 18.6744V19.0763L94.1974 21.2065C94.1962 21.3583 94.1674 21.5086 94.1125 21.6501C94.6407 21.7877 95.1817 21.8703 95.7269 21.8965C95.7474 21.8376 95.7627 21.777 95.7728 21.7155C95.7821 21.6502 95.7847 21.5841 95.7805 21.5183C95.7788 21.4879 95.7754 21.4575 95.7703 21.4274C95.7643 21.413 95.7575 21.3425 95.749 21.3306L94.9732 18.1926L94.9622 18.1467L94.8611 17.7354C94.8611 17.6946 94.8126 17.5714 94.8109 17.534C94.8092 17.4967 94.7651 17.3896 94.7574 17.3531C94.7293 17.2453 94.6879 17.1414 94.6342 17.0438C94.3396 16.8684 94.0727 16.6502 93.8423 16.3963Z" fill="#4BE26F"/>
<path d="M95.0543 17.3424C95.0637 17.3891 95.1138 17.5183 95.1163 17.565C95.1189 17.6117 95.1631 17.7239 95.1631 17.7672L95.2387 18.102L95.2523 18.1632L95.9669 21.3488C95.9669 21.3598 95.9779 21.3887 95.9779 21.3998C95.9923 21.4731 95.9994 21.5477 95.9992 21.6224C95.9985 21.6989 95.9905 21.7751 95.9754 21.8501L95.9626 21.8986C96.034 21.8986 96.1054 21.9036 96.1776 21.9036C96.5998 21.9058 97.0203 21.8503 97.4275 21.7388C97.4734 21.7261 97.5176 21.7108 97.5627 21.6972C97.5613 21.6787 97.5579 21.6605 97.5525 21.6428C97.5406 21.5978 97.527 21.5527 97.5117 21.5094L96.0672 17.5268C95.7093 17.4901 95.3594 17.3972 95.0305 17.2515C95.0409 17.2811 95.0489 17.3115 95.0543 17.3424Z" fill="#4BE26F"/>
<path d="M105.01 1.66218C105.011 1.52522 104.978 1.39011 104.915 1.26876C104.852 1.15247 104.768 1.04922 104.667 0.964565C104.565 0.88039 104.45 0.813762 104.327 0.767431C104.216 0.723641 104.097 0.700046 103.978 0.697754H103.768C104.223 1.42766 104.703 2.20175 105.006 2.69458L105.01 1.66218Z" fill="#4BE26F"/>
<path d="M88.4834 15.5403L88.9397 15.3822L89.0119 15.3576L92.8611 14.0261C92.8475 13.8757 92.8398 13.7219 92.8398 13.5655C92.8392 13.2517 92.8702 12.9385 92.9325 12.6309L88.3262 14.5962C88.3592 14.9154 88.4094 15.2325 88.4766 15.5462L88.4834 15.5403Z" fill="#4BE26F"/>
<path d="M89.1036 16.605C89.1494 16.5957 89.2735 16.5455 89.3245 16.5413C89.3755 16.537 89.4834 16.4937 89.5259 16.4937L89.8658 16.4138L89.9201 16.4011L93.1023 15.6652C93.1159 15.6652 93.1541 15.6508 93.1686 15.6508C93.2162 15.6414 93.2645 15.6355 93.313 15.6329C93.2299 15.4713 93.1575 15.3044 93.0964 15.1333C93.0016 14.8658 92.933 14.5898 92.8916 14.3091L89.0373 15.6856L88.9795 15.7069L88.5479 15.8607C88.6199 16.1485 88.7079 16.4322 88.8113 16.7104C88.904 16.6634 89.0022 16.628 89.1036 16.605Z" fill="#4BE26F"/>
<path d="M118.966 15.0382H119.965L117.702 11.4346H116.736L118.966 15.0382Z" fill="#FFD900"/>
<path d="M112.401 15.0385H113.477L109.084 7.85498C108.884 8.07923 108.696 8.31379 108.521 8.55769L112.401 15.0385Z" fill="#FFD900"/>
<path d="M115.317 9.13706C115.72 9.16763 116.112 9.2798 116.469 9.46675L113.862 5.3125C113.588 5.34833 113.316 5.39968 113.048 5.4663L115.317 9.13706Z" fill="#FFD900"/>
<path d="M115.728 17.8344L117.93 21.4789C118.1 21.4211 118.277 21.3599 118.447 21.2894C118.58 21.2342 118.71 21.1755 118.839 21.1143L116.695 17.6348C116.508 17.6883 116.319 17.7359 116.125 17.7741C115.991 17.7996 115.858 17.8192 115.728 17.8344Z" fill="#FFD900"/>
<path d="M114.107 17.7284C114.068 17.7191 114.031 17.7064 113.991 17.6953L116.456 21.8071C116.807 21.7646 117.155 21.6982 117.497 21.6082L115.209 17.8695H115.189C114.824 17.866 114.461 17.8187 114.107 17.7284Z" fill="#FFD900"/>
<path d="M106.969 14.0661L110.592 20.3667C111.098 20.7103 111.639 20.9999 112.206 21.2309C112.256 21.2513 112.306 21.2691 112.356 21.2886L107.035 12.314C106.979 12.712 106.95 13.1135 106.95 13.5155C106.95 13.7015 106.958 13.8842 106.969 14.0661Z" fill="#FFD900"/>
<path d="M116.203 5.34473L122.168 14.8828C122.324 14.8291 122.46 14.731 122.559 14.6007C122.634 14.4898 122.687 14.3654 122.714 14.2344L117.241 5.59624C117.156 5.5699 117.071 5.54441 116.986 5.52062C116.728 5.44774 116.467 5.38902 116.203 5.34473Z" fill="#FFD900"/>
<path d="M118.225 5.98096L122.774 13.2171V12.8551C122.773 12.4302 122.735 12.0062 122.658 11.5882L119.631 6.82982C119.38 6.63991 119.118 6.46513 118.846 6.3064C118.644 6.18914 118.438 6.08037 118.225 5.98096Z" fill="#FFD900"/>
<path d="M117.165 17.4792L119.253 20.9028C119.528 20.754 119.794 20.5904 120.051 20.4125L117.989 17.0884C117.954 17.1096 117.92 17.13 117.882 17.1513C117.652 17.2784 117.412 17.3881 117.165 17.4792Z" fill="#FFD900"/>
<path d="M110.525 6.58775L112.691 10.1413C112.799 10.0333 112.912 9.93121 113.031 9.83535C113.132 9.75357 113.238 9.677 113.347 9.60593L111.216 6.17139C111.082 6.24276 110.951 6.31669 110.822 6.39571C110.72 6.45774 110.622 6.52402 110.525 6.58775Z" fill="#FFD900"/>
<path d="M113.822 9.34415L113.898 9.30846C114.136 9.20685 114.388 9.14375 114.646 9.12152L112.468 5.6377C112.214 5.72138 111.965 5.8178 111.72 5.9266L113.822 9.34415Z" fill="#FFD900"/>
<path d="M117.319 15.0382H118.339L116.089 11.4346H115.106L117.319 15.0382Z" fill="#FFD900"/>
<path d="M114.527 5.24982L120.615 15.036H120.755C121.073 15.036 121.344 15.0241 121.57 15.002L115.422 5.25407C115.264 5.24387 115.104 5.23877 114.943 5.23877C114.807 5.24132 114.665 5.24982 114.527 5.24982Z" fill="#FFD900"/>
<path d="M121.43 18.9216C121.43 18.8294 121.417 18.7377 121.392 18.6489C121.354 18.5383 121.293 18.4368 121.214 18.3506L120.55 17.5986L121.423 19.0151C121.427 18.9845 121.429 18.9531 121.43 18.9216Z" fill="#FFD900"/>
<path d="M109.488 19.4738C109.596 19.5775 109.707 19.6769 109.819 19.7746L107.1 15.125C107.211 15.7104 107.39 16.2807 107.634 16.8244C108.075 17.819 108.705 18.7186 109.488 19.4738Z" fill="#FFD900"/>
<path d="M107.735 9.91186L114.795 21.8376C115.024 21.8546 115.256 21.8656 115.491 21.8656C115.661 21.8656 115.825 21.8588 115.991 21.8486L113.31 17.4301C113.215 17.38 113.121 17.3265 113.029 17.2678C112.677 17.0397 112.373 16.7443 112.134 16.3986C111.86 15.9916 111.685 15.5259 111.624 15.039H111.867L108.219 9.02051C108.143 9.14202 108.07 9.26607 108.001 9.39183C107.904 9.56093 107.817 9.73427 107.735 9.91186Z" fill="#FFD900"/>
<path d="M111.811 11.3571C111.948 11.0838 112.111 10.8248 112.299 10.5838L112.328 10.5481L110.085 6.90967C109.865 7.08133 109.655 7.26456 109.454 7.45858L111.811 11.3571Z" fill="#FFD900"/>
<path d="M114.036 15.0382H115.094L112.873 11.4346H111.857L114.036 15.0382Z" fill="#FFD900"/>
<path d="M107.155 11.6319L112.91 21.4793C113.364 21.6198 113.83 21.7215 114.302 21.7835L107.504 10.4585C107.394 10.7497 107.299 11.0467 107.221 11.3481C107.198 11.445 107.176 11.5376 107.155 11.6319Z" fill="#FFD900"/>
<path d="M118.835 16.466C118.712 16.5388 118.595 16.6215 118.486 16.7132C118.459 16.7404 118.428 16.7668 118.401 16.7939L120.44 20.1197C120.618 19.9812 120.79 19.8359 120.958 19.6813C121.022 19.6339 121.083 19.5819 121.14 19.5258L119.179 16.3818H119.144C119.035 16.383 118.929 16.412 118.835 16.466Z" fill="#FFD900"/>
<path d="M115.676 15.0382H116.715L114.479 11.4346H113.479L115.676 15.0382Z" fill="#FFD900"/>
</g>
<defs>
<clipPath id="clip0_1000_397">
<rect width="129.328" height="30" fill="white"/>
</clipPath>
</defs>
</svg>
