<svg width="55" height="72" viewBox="0 0 55 72" fill="none" xmlns="http://www.w3.org/2000/svg">
<path d="M0.449219 63.3033V71.5194H1.72462V68.7522H3.62632C5.23765 68.7522 6.3764 67.6476 6.3764 66.042C6.3764 64.4136 5.27182 63.3033 3.66618 63.3033H0.449219ZM1.72462 64.4306H3.33025C4.45192 64.4306 5.07253 65 5.07253 66.042C5.07253 67.0612 4.42914 67.6305 3.33025 67.6305H1.72462V64.4306Z" fill="#2E3A44"/>
<path d="M13.2374 70.3578H9.29729V67.8924H13.0267V66.7879H9.29729V64.4648H13.2374V63.3033H8.02189V71.5194H13.2374V70.3578Z" fill="#2E3A44"/>
<path d="M14.695 69.3102C14.7861 70.7792 16.0102 71.7186 17.8322 71.7186C19.7795 71.7186 20.9979 70.7336 20.9979 69.1621C20.9979 67.9266 20.3033 67.2434 18.6179 66.8505L17.7126 66.6284C16.6422 66.3779 16.2095 66.042 16.2095 65.4555C16.2095 64.7153 16.8813 64.2314 17.8891 64.2314C18.8457 64.2314 19.5062 64.7039 19.6257 65.4612H20.867C20.7929 64.0776 19.5745 63.104 17.9062 63.104C16.1127 63.104 14.917 64.0776 14.917 65.5409C14.917 66.748 15.5946 67.4654 17.0806 67.8127L18.1397 68.0689C19.2272 68.3252 19.7054 68.7009 19.7054 69.3273C19.7054 70.0561 18.9539 70.5856 17.929 70.5856C16.8301 70.5856 16.0671 70.0902 15.959 69.3102H14.695Z" fill="#2E3A44"/>
<path d="M26.0483 71.7186C27.8817 71.7186 29.2311 70.6368 29.4588 69.0141H28.1891C27.9614 69.9422 27.1358 70.5286 26.0483 70.5286C24.5679 70.5286 23.6455 69.3273 23.6455 67.4142C23.6455 65.4954 24.5679 64.294 26.0426 64.294C27.1244 64.294 27.95 64.9431 28.1891 65.9509H29.4588C29.2538 64.2769 27.8532 63.104 26.0426 63.104C23.7594 63.104 22.3416 64.7495 22.3416 67.4142C22.3416 70.0731 23.7651 71.7186 26.0483 71.7186Z" fill="#2E3A44"/>
<path d="M36.2173 71.5194H37.5724L34.606 63.3033H33.2338L30.2673 71.5194H31.5769L32.3342 69.3386H35.4657L36.2173 71.5194ZM33.8544 64.795H33.9512L35.1412 68.2682H32.6587L33.8544 64.795Z" fill="#2E3A44"/>
<path d="M39.0072 63.3033V71.5194H41.9737C44.422 71.5194 45.8397 70.0105 45.8397 67.3857C45.8397 64.8007 44.4106 63.3033 41.9737 63.3033H39.0072ZM40.2826 64.4648H41.8313C43.5337 64.4648 44.5415 65.5466 44.5415 67.4028C44.5415 69.2874 43.5508 70.3578 41.8313 70.3578H40.2826V64.4648Z" fill="#2E3A44"/>
<path d="M51.0609 63.104C48.7037 63.104 47.2233 64.7552 47.2233 67.4085C47.2233 70.0561 48.6752 71.7186 51.0609 71.7186C53.4408 71.7186 54.8871 70.0504 54.8871 67.4085C54.8871 64.7609 53.4295 63.104 51.0609 63.104ZM51.0609 64.294C52.6209 64.294 53.5832 65.5011 53.5832 67.4085C53.5832 69.3045 52.6209 70.5286 51.0609 70.5286C49.4837 70.5286 48.5271 69.3045 48.5271 67.4085C48.5271 65.5011 49.5122 64.294 51.0609 64.294Z" fill="#2E3A44"/>
<path d="M27.5 55C42.6878 55 55 42.6878 55 27.5C55 12.3122 42.6878 0 27.5 0C12.3122 0 0 12.3122 0 27.5C0 42.6878 12.3122 55 27.5 55Z" fill="#29C5FC"/>
<path opacity="0.05" d="M27.5534 54.9998C42.7103 54.9998 54.9998 42.7238 54.9998 27.5833C54.9998 20.8315 52.5828 14.6934 48.5273 9.90576C45.0863 15.3072 38.2452 20.5859 26.3244 24.3097C15.6736 27.6242 8.2999 33.9668 3.26123 40.3095C7.84929 49.0255 16.9844 54.9998 27.5534 54.9998Z" fill="black"/>
<path d="M42.4061 14.6147C42.3649 17.8169 41.5004 20.6497 40.0185 23.2361C37.4663 27.7521 33.8849 31.1596 29.1921 33.3765C27.3808 34.2387 25.4873 34.8134 23.4702 35.0187C23.2232 35.0598 23.182 35.1829 23.1408 35.3882C22.3587 38.3031 21.5766 41.2179 20.7944 44.1328C20.7944 44.1738 20.7944 44.2149 20.7533 44.2149C20.6709 44.5023 20.5063 44.7076 20.2181 44.7076C19.8888 44.7076 19.7653 44.5023 19.683 44.2149C19.436 43.0654 19.0243 41.9569 18.448 40.9716C16.7603 38.0157 14.208 36.1682 10.9148 35.3882C10.8737 35.3882 10.8737 35.3882 10.8325 35.3882C10.5444 35.3472 10.2974 35.1829 10.2974 34.8545C10.2974 34.5261 10.5032 34.3618 10.7913 34.2797C11.944 33.9513 13.1377 33.6639 14.2904 33.3355C16.1016 32.8428 17.9129 32.3502 19.683 31.8986C19.8888 31.8575 19.9711 31.7754 19.9711 31.5702C20.0946 30.2975 20.424 29.0248 20.8356 27.8342C20.9179 27.6289 20.8356 27.5879 20.6709 27.5058C20.3005 27.3416 19.9711 27.1773 19.6418 26.9721C19.3537 26.8489 19.2302 26.6026 19.3125 26.2741C19.5595 25.0015 20.0535 23.8519 20.6709 22.7024C21.8647 20.4444 23.3055 18.3096 25.0344 16.4211C25.5284 15.8874 26.1047 15.4358 26.6399 14.9842C26.928 14.7379 27.2162 14.7379 27.5867 14.9021C28.3688 15.2716 29.1509 15.559 29.9331 15.9284C30.1801 16.0516 30.3859 16.0106 30.5917 15.8874C32.6911 14.5737 34.914 13.5884 37.3428 13.0957C38.7835 12.8083 40.2243 12.7262 41.7063 12.8494C42.0768 12.8904 42.2414 13.0546 42.2826 13.4241C42.3649 13.8347 42.4061 14.3273 42.4061 14.6147ZM17.0484 37.3999C17.2954 37.1535 17.5424 36.8662 17.7894 36.6198C18.1599 36.2504 18.4892 35.8808 18.8597 35.5524C19.1067 35.3061 19.436 35.3471 19.6418 35.5524C19.8476 35.7577 19.8476 36.0451 19.6418 36.2914C19.5595 36.3735 19.4772 36.4556 19.3948 36.5377C18.8597 37.0714 18.3245 37.6052 17.7894 38.1389C18.1187 38.5494 18.4069 38.9189 18.695 39.2884C18.7362 39.2473 18.7362 39.2473 18.7362 39.2063C19.0655 38.6315 19.3537 38.0567 19.683 37.482C19.8888 37.1125 20.177 36.9893 20.4651 37.1535C20.7533 37.3178 20.8356 37.6051 20.6298 37.9746C20.2593 38.6726 19.8476 39.4115 19.4772 40.1095C19.436 40.1916 19.3537 40.3558 19.3948 40.3968C19.6418 40.9716 19.93 41.5053 20.2181 42.0801C20.2593 41.9569 20.3005 41.8337 20.3005 41.7516C20.9591 39.3705 21.5766 36.9483 22.2352 34.5671C22.3175 34.2387 22.4822 34.0334 22.8527 34.0334C25.1168 33.8692 27.2162 33.2123 29.2333 32.186C32.6911 30.4206 35.5315 27.9163 37.7544 24.7962C38.2072 24.1393 38.6189 23.4824 39.0717 22.7845C35.2022 22.9898 32.0325 20.0339 31.9913 16.2569C31.8678 16.339 31.7855 16.38 31.662 16.4211C28.1218 18.5559 25.2814 21.4297 23.2643 25.0425C22.0294 27.2594 21.2061 29.5995 21.0003 32.1449C20.9591 32.5555 20.8356 32.6786 20.424 32.8018C18.1599 33.4176 15.8958 33.9924 13.6729 34.6082C13.4259 34.6903 13.1789 34.7313 12.8908 34.8134C13.5082 35.1008 14.0434 35.3882 14.6197 35.6756C14.7843 35.7577 14.9078 35.7988 15.1137 35.6756C15.8135 35.3061 16.5133 34.9366 17.2543 34.5671C17.6247 34.4029 17.9129 34.4439 18.0776 34.7313C18.2422 35.0187 18.1187 35.3061 17.7482 35.5114C17.5012 35.6345 17.2954 35.7577 17.0484 35.8809C16.6779 36.0861 16.3075 36.2503 15.937 36.4556C16.3075 36.784 16.6368 37.0714 17.0484 37.3999ZM41.3358 14.861C41.3358 14.7789 41.3358 14.6558 41.3358 14.5737C41.2946 13.7526 41.4593 13.8347 40.5536 13.8347C38.0426 13.7936 35.7373 14.4505 33.4733 15.5179C33.2263 15.6411 33.1439 15.7642 33.1439 16.0516C33.1028 17.4474 33.4733 18.7201 34.4201 19.7876C35.6962 21.3066 37.3839 21.9224 39.3599 21.7171C39.5245 21.7171 39.7303 21.5939 39.7715 21.4708C40.7183 19.336 41.2946 17.1601 41.3358 14.861ZM29.2744 16.7495C28.8216 16.5443 28.4511 16.4211 28.0806 16.2569C27.175 15.8463 27.1339 15.8463 26.434 16.5443C24.0876 18.9665 22.2352 21.7171 20.9179 24.7962C20.7533 25.2067 20.6298 25.6583 20.4651 26.1099C20.7944 26.2741 21.0414 26.3973 21.3708 26.5615C23.0997 22.5793 25.7754 19.377 29.2744 16.7495Z" fill="white"/>
<path d="M30.9632 22.2916C31.8688 22.62 32.4451 23.1948 32.8156 24.098C33.0626 23.6875 33.2684 23.318 33.5154 22.9485C33.5977 22.8253 33.68 22.6611 33.7624 22.5379C33.927 22.2916 34.2152 22.2505 34.4622 22.4148C34.7092 22.579 34.7915 22.8253 34.668 23.1127C34.421 23.5232 34.174 23.9338 33.927 24.3443C33.68 24.7549 33.4742 25.1244 33.2272 25.4938C33.1037 25.6991 32.9391 25.8633 32.6921 25.7812C32.5274 25.6991 32.3216 25.576 32.1981 25.3707C32.0334 25.0422 31.91 24.7138 31.7865 24.3443C31.5806 23.8517 31.2513 23.5232 30.7573 23.318C30.3868 23.1537 30.0164 23.0306 29.6459 22.8664C29.4812 22.7843 29.2754 22.579 29.2754 22.3737C29.2754 22.2095 29.4401 21.9632 29.5635 21.84C30.3045 21.3474 31.0867 20.9368 31.8688 20.4852C32.1981 20.28 32.5274 20.321 32.6921 20.6084C32.8567 20.8958 32.7744 21.1831 32.4451 21.3884C31.9511 21.7168 31.4983 22.0042 30.9632 22.2916Z" fill="white"/>
</svg>
