<svg width="55" height="72" viewBox="0 0 55 72" fill="none" xmlns="http://www.w3.org/2000/svg">
<path d="M12.5884 69.3102C12.6795 70.7792 13.9036 71.7186 15.7256 71.7186C17.6729 71.7186 18.8913 70.7336 18.8913 69.1621C18.8913 67.9266 18.1967 67.2434 16.5114 66.8505L15.6061 66.6284C14.5356 66.3779 14.1029 66.042 14.1029 65.4555C14.1029 64.7153 14.7748 64.2314 15.7826 64.2314C16.7391 64.2314 17.3996 64.7039 17.5192 65.4612H18.7604C18.6864 64.0776 17.4679 63.104 15.7996 63.104C14.0061 63.104 12.8104 64.0776 12.8104 65.5409C12.8104 66.748 13.488 67.4654 14.9741 67.8127L16.0331 68.0689C17.1206 68.3252 17.5989 68.7009 17.5989 69.3273C17.5989 70.0561 16.8473 70.5856 15.8224 70.5856C14.7235 70.5856 13.9606 70.0902 13.8524 69.3102H12.5884Z" fill="#2E3A44"/>
<path d="M24.0726 63.104C21.7154 63.104 20.2351 64.7552 20.2351 67.4085C20.2351 70.0561 21.687 71.7186 24.0726 71.7186C26.4526 71.7186 27.8988 70.0504 27.8988 67.4085C27.8988 64.7609 26.4412 63.104 24.0726 63.104ZM24.0726 64.294C25.6327 64.294 26.595 65.5011 26.595 67.4085C26.595 69.3045 25.6327 70.5286 24.0726 70.5286C22.4955 70.5286 21.5389 69.3045 21.5389 67.4085C21.5389 65.5011 22.524 64.294 24.0726 64.294Z" fill="#2E3A44"/>
<path d="M29.0604 69.3842C29.0604 70.7962 30.0795 71.7186 31.5656 71.7186C33.1485 71.7186 34.105 70.7678 34.105 69.1166V63.3033H32.8296V69.1109C32.8296 70.0276 32.3684 70.5173 31.5542 70.5173C30.8254 70.5173 30.3301 70.0618 30.313 69.3842H29.0604Z" fill="#2E3A44"/>
<path d="M41.2962 71.5194H42.6513L39.6849 63.3033H38.3127L35.3463 71.5194H36.6558L37.4131 69.3386H40.5446L41.2962 71.5194ZM38.9333 64.795H39.0301L40.2201 68.2682H37.7376L38.9333 64.795Z" fill="#2E3A44"/>
<path d="M27.5 55C42.6878 55 55 42.6878 55 27.5C55 12.3122 42.6878 0 27.5 0C12.3122 0 0 12.3122 0 27.5C0 42.6878 12.3122 55 27.5 55Z" fill="#1479FF"/>
<path opacity="0.05" d="M27.5538 54.9998C42.7108 54.9998 55.0003 42.6907 55.0003 27.5094C55.0003 20.7393 52.5833 14.5848 48.5278 9.78418C45.0868 15.2002 38.2457 20.4931 26.3249 24.2269C15.6741 27.5504 8.30039 33.9101 3.26172 40.2698C7.84978 49.0093 16.9849 54.9998 27.5538 54.9998Z" fill="black"/>
<path d="M34.709 14.489C34.956 14.1185 35.1618 13.7892 35.45 13.4599C36.3556 12.3073 37.5494 11.5251 39.0313 11.3193C39.4842 11.237 39.8958 11.3605 40.1016 11.731C40.3486 12.1426 40.5544 12.6366 40.7191 13.0894C40.8426 13.3775 40.6779 13.6657 40.3898 13.8304C39.5665 14.3243 38.8255 14.9418 38.2904 15.724C37.961 16.2179 37.8787 16.7119 38.208 17.2882C38.7432 18.1939 39.1548 19.1407 39.196 20.1698C39.3607 22.5162 38.6608 24.4921 36.7261 25.974C36.3556 26.2622 36.1909 26.5915 36.2321 27.0443C36.2733 27.456 36.3144 27.8676 36.3556 28.3204C36.5614 30.214 35.944 31.7783 34.6267 33.0956C34.215 33.5072 33.7622 33.8777 33.3094 34.2482C33.1036 34.4129 33.0212 34.6187 32.9801 34.8657C32.8154 35.6478 32.7331 36.4711 32.4449 37.1709C31.7451 39.1057 30.2632 40.176 28.2461 40.5465C27.3816 40.7111 26.5172 40.7523 25.6527 40.7523C24.2943 40.7934 23.0181 41.1228 21.742 41.4932C21.7009 41.4932 21.6185 41.5344 21.5774 41.5344C21.3304 41.6168 21.1246 41.6167 20.9599 41.4109C20.7952 41.2051 20.8364 40.9993 20.8776 40.7934C21.0422 40.176 21.2892 39.5585 21.3304 38.941C21.4127 37.6237 21.4127 36.3065 21.4539 34.9892C21.4539 34.7422 21.4539 34.4952 21.4539 34.2894C20.7129 34.2894 20.0543 34.3305 19.3545 34.2894C18.3665 34.2482 17.4197 33.9601 16.5552 33.5484C15.2791 32.9309 14.003 32.3135 12.6857 31.7783C12.1094 31.5313 11.4508 31.4078 10.8333 31.202C10.6686 31.1197 10.4628 30.955 10.4216 30.7903C10.3805 30.6257 10.504 30.3787 10.6275 30.2552C12.0682 29.1026 12.9739 27.6618 13.6737 25.974C14.003 25.1507 14.3323 24.3274 14.9498 23.6688C15.9378 22.5985 17.1727 22.1869 18.5723 22.1869C18.8605 22.1869 18.984 22.1045 19.1075 21.8164C19.3133 21.3224 19.5191 20.8696 19.8073 20.4168C20.5482 19.1818 21.6185 18.5232 23.0593 18.3997C23.3886 18.3585 23.6768 18.3174 24.0061 18.2762C24.6647 18.1939 25.1587 17.8234 25.4469 17.2059C25.6115 16.8766 25.735 16.5061 25.8997 16.1356C26.7642 14.0362 28.9459 12.8013 31.21 13.1306C32.4449 13.2952 33.5564 13.748 34.5443 14.4478C34.5855 14.4067 34.6267 14.4478 34.709 14.489ZM22.1537 40.2583C22.977 40.0936 23.7591 39.8878 24.5412 39.8055C25.6115 39.682 26.723 39.682 27.8344 39.5585C29.8515 39.3115 31.21 38.2412 31.7451 36.2653C31.9098 35.6066 31.9921 34.948 32.0744 34.2894C32.1156 34.0012 32.1979 33.8366 32.4449 33.6719C32.8154 33.3837 33.2271 33.0956 33.5564 32.7663C34.956 31.5313 35.6558 30.0494 35.3676 28.1558C35.2853 27.7441 35.2442 27.2913 35.2442 26.8797C35.2442 26.221 35.4911 25.6859 36.0263 25.2742C38.4962 23.5453 38.6197 20.2109 37.5906 18.3585C37.3847 18.0292 37.2201 17.6999 37.0966 17.3294C37.0142 17.0412 36.8908 16.7119 36.9731 16.4238C37.0966 15.9298 37.3024 15.477 37.5494 15.0653C38.0845 14.242 38.8255 13.6245 39.69 13.0894C39.6076 12.9247 39.5665 12.8012 39.4841 12.6366C39.3607 12.3896 39.196 12.2661 38.949 12.3896C38.4962 12.5542 38.0434 12.6366 37.6729 12.8836C36.6849 13.4187 36.0263 14.2832 35.5323 15.2711C35.3676 15.6005 35.1618 15.724 34.8325 15.6416C33.7622 15.3535 32.6919 15.477 31.704 15.8475C29.8927 16.4649 28.7401 17.6999 28.5343 19.6758C28.4931 20.2109 28.6166 20.7873 28.6577 21.3636C28.7812 22.5985 28.4108 23.6276 27.2993 24.3274C27.1346 24.4098 27.0111 24.5333 26.8465 24.6156C26.0644 25.0684 25.6527 25.7682 25.488 26.6327C25.3234 27.5795 25.3234 28.4851 25.4057 29.4319C25.4469 29.8847 25.3234 30.1729 24.9117 30.3787C24.5412 30.5434 24.2119 30.8315 23.8414 31.0785C23.1828 31.6136 22.6888 32.2723 22.6065 33.1368C22.5242 33.7954 22.483 34.454 22.483 35.0715C22.483 36.7181 22.6477 38.4882 22.1537 40.2583ZM32.4861 14.4067C32.1568 14.3243 31.8275 14.2009 31.5393 14.1597C29.3987 13.7069 27.464 14.736 26.8053 16.6296C26.723 16.9178 26.5995 17.1647 26.476 17.4529C26.0644 18.3997 25.3645 19.0172 24.3354 19.223C24.0061 19.3053 23.6768 19.3465 23.3475 19.3465C21.989 19.3876 21.0422 20.0875 20.4659 21.2812C20.2601 21.7341 20.0543 22.228 19.8896 22.6808C19.7249 23.0513 19.6426 23.1748 19.231 23.1748C19.0251 23.1748 18.7781 23.1748 18.5723 23.1748C16.8846 23.216 15.6496 23.9569 14.991 25.5624C14.9086 25.7682 14.7851 26.0152 14.7028 26.221C14.25 27.3325 13.7148 28.4028 12.9327 29.3496C12.6446 29.7201 12.3152 30.0494 11.9859 30.4199C12.2741 30.5022 12.6034 30.5845 12.8504 30.708C14.25 31.3255 15.6496 31.9841 17.0492 32.6428C18.4077 33.2602 19.8073 33.4661 21.2892 33.2191C21.495 33.1779 21.5774 33.0956 21.6185 32.8898C21.7009 32.6016 21.742 32.2723 21.8655 31.9841C22.2772 30.8727 23.1416 30.1317 24.1296 29.5554C24.2943 29.4731 24.3766 29.3496 24.3766 29.1437C24.3354 28.5674 24.3354 27.9911 24.3766 27.456C24.3766 27.1678 24.3354 27.0443 24.0884 26.8797C22.8946 26.0564 22.3183 24.6156 22.6065 23.216C22.9358 21.7752 24.0473 20.7049 25.5292 20.4579C26.229 20.3344 26.8877 20.4579 27.5463 20.7049C27.2993 19.1406 27.711 17.7822 28.6989 16.5884C29.6869 15.3535 30.963 14.7772 32.4861 14.4067ZM24.5824 25.8917C24.5824 25.8506 24.6236 25.8094 24.6236 25.7682C24.9117 24.8626 25.4469 24.1628 26.2702 23.6688C26.5172 23.5041 26.7642 23.3395 26.97 23.1748C27.2993 22.9278 27.5051 22.5573 27.5875 22.1457C27.6286 21.9399 27.5875 21.8575 27.4228 21.734C26.0644 20.8696 24.2531 21.5282 23.7179 23.0513C23.3063 24.1216 23.7179 25.3977 24.5824 25.8917Z" fill="white"/>
<path d="M26.0229 38.5705C25.8582 38.4882 25.6112 38.447 25.4877 38.2823C25.1996 37.953 25.4877 37.5825 25.9817 37.5002C26.5992 37.3767 27.2167 37.2532 27.7518 37.0474C28.4928 36.7592 29.0691 36.1829 29.4396 35.4419C29.6042 35.0714 29.8924 34.9891 30.1805 35.1126C30.4687 35.2361 30.5099 35.5243 30.3452 35.8948C29.5631 37.3767 28.287 38.1177 26.6815 38.447C26.558 38.4882 26.4345 38.4881 26.311 38.4881C26.2287 38.4881 26.1464 38.4881 26.1052 38.4881C26.064 38.5293 26.064 38.5293 26.0229 38.5705Z" fill="white"/>
<path d="M18.9835 31.9842C17.0488 31.9842 15.4434 30.3787 15.4434 28.444C15.4434 26.4681 17.0488 24.9038 19.0247 24.9038C20.9595 24.9038 22.5649 26.5092 22.5237 28.444C22.5237 30.4199 20.9183 31.9842 18.9835 31.9842ZM16.4725 28.444C16.4725 29.8436 17.6251 30.9551 19.0247 30.9551C20.4243 30.9551 21.5358 29.8436 21.5358 28.444C21.5358 27.0444 20.4243 25.8918 19.0247 25.8918C17.5839 25.9329 16.4725 27.0444 16.4725 28.444Z" fill="white"/>
</svg>
