<svg width="45" height="46" viewBox="0 0 45 46" fill="none" xmlns="http://www.w3.org/2000/svg">
<g clip-path="url(#clip0_1000_564)">
<path d="M43.3333 43.4946C41.2903 45.5376 37.9032 45.5376 35.8602 43.4946L18.9247 26.5591C18.6021 26.2365 18.6021 25.7526 18.9247 25.43L25.5376 18.8171C25.8602 18.4946 26.344 18.4946 26.6666 18.8171L43.3333 35.4838C45.5913 37.6881 45.5913 41.2903 43.3333 43.4946Z" fill="#1479FF"/>
<path d="M3.22577 0.0538674L0.161252 3.11838C0.161252 3.11838 -0.268856 3.54849 0.161252 4.73129L3.38706 9.62376C3.38706 9.62376 4.19351 11.2367 4.99996 11.2367C5.80641 11.2367 9.89243 11.6668 9.89243 11.6668L19.2473 20.9679L21.2903 19.3549L11.5591 9.62376L11.129 5.80656C11.129 5.80656 10.6989 4.73129 10.3225 4.35494C9.9462 3.92484 4.67738 0.268921 4.67738 0.268921C4.67738 0.268921 3.01071 -0.161186 3.22577 0.0538674Z" fill="#79D0F2"/>
<path d="M11.129 28.2798L28.6021 10.8066L33.871 16.8819L16.3978 34.355L11.129 28.2798Z" fill="#79EC77"/>
<path d="M43.9785 5.37662L43.9247 5.32286L43.6559 5.05404C43.172 4.57017 42.4194 4.57017 41.9355 5.05404L37.8495 9.14006L35.8602 7.15081L39.9462 3.06479C40.4301 2.58092 40.4301 1.82823 39.9462 1.34436L39.6774 1.07555C39.3548 0.914257 39.0323 0.80673 38.6559 0.699203C37.7419 0.376622 36.828 0.215332 35.8064 0.215332C32.5269 0.215332 29.6237 1.98953 28.0645 4.6777C27.3118 5.96802 26.8817 7.52716 26.8817 9.14006C26.8817 14.0863 30.8602 18.0648 35.8064 18.0648C37.4194 18.0648 38.9785 17.6347 40.2688 16.882C42.957 15.3229 44.7312 12.4734 44.7312 9.14006C44.8387 7.79598 44.5161 6.50565 43.9785 5.37662Z" fill="#6AD166"/>
<path d="M1.23655 39.6237L1.29031 39.6775L1.55913 39.9463C2.043 40.4302 2.79569 40.4302 3.27956 39.9463L7.36558 35.8603L9.35483 37.8495L5.26881 41.9356C4.78494 42.4194 4.78494 43.1721 5.26881 43.656L5.53762 43.9248C5.8602 44.0861 6.18279 44.1936 6.55913 44.3011C7.47311 44.6237 8.38709 44.785 9.40859 44.785C12.6882 44.785 15.5914 43.0108 17.1505 40.3226C17.9032 39.0323 18.3333 37.4732 18.3333 35.8603C18.3333 30.914 14.3548 26.9355 9.40859 26.9355C7.79569 26.9355 6.23655 27.3657 4.94623 28.1183C2.25805 29.6775 0.483859 32.5269 0.483859 35.8603C0.376332 37.1506 0.698913 38.4409 1.23655 39.6237Z" fill="#6AD166"/>
<path opacity="0.1" d="M11.5591 9.62376L11.129 5.80655C11.129 5.80655 10.6989 4.73129 10.3225 4.35494C9.9462 3.92483 4.67738 0.268921 4.67738 0.268921C4.67738 0.268921 3.01071 -0.161186 3.22577 0.0538674L0.161252 3.11838C0.161252 3.11838 -0.268856 3.54849 0.161252 4.73129L3.38706 9.62376C3.38706 9.62376 4.19351 11.2367 4.99996 11.2367C5.80641 11.2367 9.89243 11.6668 9.89243 11.6668L16.5591 18.2797C17.3655 17.8496 18.172 17.4195 18.8709 16.9356L11.5591 9.62376Z" fill="white"/>
<path opacity="0.15" d="M9.08604 37.5807L9.3011 37.7958L5.21508 41.8818C4.73121 42.3657 4.73121 43.1184 5.21508 43.6023L5.48389 43.8711C5.80647 44.0324 6.12905 44.1399 6.5054 44.2474C7.41938 44.57 8.33336 44.7313 9.35486 44.7313C12.6344 44.7313 15.5377 42.9571 17.0968 40.2689C17.7957 39.0861 18.1721 37.7958 18.2796 36.3979C17.2581 36.5592 16.1828 36.6668 15.0538 36.7205C12.8495 36.8281 10.8602 37.1506 9.08604 37.5807Z" fill="black"/>
<path opacity="0.15" d="M26.2903 33.9248L35.8602 43.4947C37.9032 45.5377 41.2903 45.5377 43.3333 43.4947C45.5376 41.2904 45.5376 37.6883 43.3333 35.4302L35.3225 27.4194C33.1182 29.6775 30.1613 32.0969 26.2903 33.9248Z" fill="black"/>
</g>
<defs>
<clipPath id="clip0_1000_564">
<rect width="45" height="45.0538" fill="white"/>
</clipPath>
</defs>
</svg>
