<svg width="20" height="25" viewBox="0 0 20 25" fill="none" xmlns="http://www.w3.org/2000/svg">
<path d="M0 1.3122V18.743C0 19.4245 0.562283 19.9868 1.24384 19.9868H13.7333C14.4149 19.9868 14.9772 19.4245 14.9772 18.743V5.04371L10.0018 0.0683594H1.24384C0.562283 0.0683594 0 0.630642 0 1.3122Z" fill="#E2E5E7"/>
<path d="M11.1267 5.00943H14.8752L9.88281 0V3.74855C9.88281 4.44715 10.4451 5.00943 11.1267 5.00943Z" fill="#B0B7BD"/>
<path d="M14.9946 8.75783L11.2461 5.00928H14.9946V8.75783Z" fill="#CAD1D8"/>
<rect x="2.45898" y="15.8784" width="8.77502" height="0.835716" rx="0.417858" fill="#1479FF"/>
<rect x="2.45898" y="12.5356" width="8.77502" height="0.835716" rx="0.417858" fill="#1479FF"/>
<rect x="2.45898" y="9.19287" width="8.77502" height="0.835716" rx="0.417858" fill="#1479FF"/>
<rect x="2.45898" y="5.8501" width="8.77502" height="0.835716" rx="0.417858" fill="#1479FF"/>
<path d="M18.0006 22.5641L14.9678 19.5312" stroke="#B0B7BD" stroke-width="3" stroke-linecap="round" stroke-linejoin="round"/>
<path d="M12.1027 19.5311C13.8707 19.5311 15.304 18.0978 15.304 16.3297C15.304 14.5617 13.8707 13.1284 12.1027 13.1284C10.3347 13.1284 8.90137 14.5617 8.90137 16.3297C8.90137 18.0978 10.3347 19.5311 12.1027 19.5311Z" fill="white" fill-opacity="0.65"/>
<path fill-rule="evenodd" clip-rule="evenodd" d="M16.3152 16.33C16.3152 18.6563 14.4293 20.5422 12.1029 20.5422C9.77653 20.5422 7.89062 18.6563 7.89062 16.33C7.89062 14.0036 9.77653 12.1177 12.1029 12.1177C14.4293 12.1177 16.3152 14.0036 16.3152 16.33ZM15.3042 16.3299C15.3042 18.098 13.871 19.5312 12.1029 19.5312C10.3349 19.5312 8.90158 18.098 8.90158 16.3299C8.90158 14.5619 10.3349 13.1286 12.1029 13.1286C13.871 13.1286 15.3042 14.5619 15.3042 16.3299Z" fill="#B0B7BD"/>
</svg>
