<svg width="45" height="45" viewBox="0 0 45 45" fill="none" xmlns="http://www.w3.org/2000/svg">
<path d="M40.4579 21.0279L38.5233 23.9718C35.4532 23.9718 32.5514 25.0653 30.3224 26.9157C28.0934 28.7662 26.4532 31.3737 25.9065 34.4017L25.1915 38.355L22.542 40.2055L19.8925 38.355L19.1775 34.4017C18.042 28.3456 12.7009 23.9298 6.56071 23.9298L5.08875 20.9858L7.82239 16.0232C12.7009 15.2662 17.6215 14.8877 22.542 14.8877C27.4626 14.8877 32.3831 15.2662 37.2616 16.0232L40.4579 21.0279Z" fill="#A03081"/>
<path d="M22.5 0C10.0514 0 0 10.0935 0 22.5C0 34.9065 10.0935 45 22.5 45C34.9486 45 45 34.9065 45 22.5C45 10.0935 34.9486 0 22.5 0ZM22.5 38.6075C13.6262 38.6075 6.43458 31.4159 6.43458 22.5421C6.43458 13.6682 13.6262 6.47663 22.5 6.47663C31.3738 6.47663 38.5654 13.6682 38.5654 22.5421C38.5654 31.4159 31.3738 38.6075 22.5 38.6075Z" fill="#BE4095"/>
<path d="M22.5 25.6962C24.2652 25.6962 25.6962 24.2652 25.6962 22.5C25.6962 20.7347 24.2652 19.3037 22.5 19.3037C20.7347 19.3037 19.3037 20.7347 19.3037 22.5C19.3037 24.2652 20.7347 25.6962 22.5 25.6962Z" fill="#FEE333"/>
<path opacity="0.1" d="M7.6542 16.2756L7.73832 16.1074C10.2196 10.4298 15.8972 6.43451 22.5 6.43451C25.3598 6.43451 28.0094 7.19152 30.3645 8.49526C32.0888 6.89713 33.2243 5.04666 33.9393 3.15414C30.5748 1.1775 26.6636 0.0419922 22.5 0.0419922C10.0514 0.0419922 0 10.1355 0 22.542C0 22.8364 2.56627e-06 23.1308 0.0420586 23.4252C1.38785 21.4065 3.86916 18.5046 7.6542 16.2756Z" fill="white"/>
<path opacity="0.15" d="M43.9065 15.5186C42.9813 16.7802 41.5935 18.4204 39.743 19.9765C39.3645 20.313 38.9439 20.6494 38.4813 20.9438C35.3692 23.2569 31.0794 25.2335 25.528 25.57C21.4907 25.7802 18.3785 26.7896 16.0234 28.2195C17.5794 29.9438 18.6729 32.0466 19.1355 34.4438L19.8505 38.355C16.3178 37.7662 13.2056 36.0419 10.8505 33.5606C9.58879 35.8737 9.04206 38.313 8.91589 40.4158C12.7009 43.2756 17.4112 44.9999 22.5 44.9999C34.9486 44.9999 45 34.9064 45 22.4999C45 20.0606 44.6215 17.7055 43.9065 15.5186ZM25.1495 38.355L25.8645 34.4438C26.4112 31.4158 28.0514 28.8083 30.2804 26.9578C32.5094 25.1073 35.4112 24.0139 38.4813 24.0139C37.8505 31.2896 32.2991 37.1774 25.1495 38.355Z" fill="black"/>
</svg>
