<svg width="319" height="123" viewBox="0 0 319 123" fill="none" xmlns="http://www.w3.org/2000/svg">
<path d="M313.579 24.8434H292.199C289.207 24.8434 286.779 22.4204 286.779 19.4343V19.3237C286.779 16.3377 289.207 13.9148 292.199 13.9148H298.476C301.469 13.9148 303.897 11.4918 303.897 8.50574V8.39515C303.897 5.40913 301.469 2.98613 298.476 2.98613L26.6292 0C23.6368 0 21.2086 2.423 21.2086 5.40902V5.51961C21.2086 8.50563 23.6368 10.9286 26.6292 10.9286H29.8936C32.886 10.9286 35.3141 13.3516 35.3141 16.3376V16.4482C35.3141 19.4343 32.886 21.8573 29.8936 21.8573H13.3901C10.3978 21.8573 7.96961 24.2803 7.96961 27.2663V27.3769C7.96961 30.3629 10.3978 32.7859 13.3901 32.7859H63.2732C66.2656 32.7859 68.6938 35.2089 68.6938 38.1949V38.3055C68.6938 41.2915 66.2656 43.7145 63.2732 43.7145H18.8409C15.8485 43.7145 13.4204 46.1375 13.4204 49.1235V49.2341C13.4204 52.2201 15.8485 54.6431 18.8409 54.6431H21.9542C24.9466 54.6431 27.3747 57.0661 27.3747 60.0521V60.1627C27.3747 63.1488 24.9466 65.5718 21.9542 65.5718H5.61197C2.61959 65.5718 0.191432 67.9948 0.191432 70.9808V71.0914C0.191432 74.0774 2.61959 76.5004 5.61197 76.5004H37.1176C40.11 76.5004 42.5381 78.9234 42.5381 81.9094V82.02C42.5381 85.006 40.11 87.429 37.1176 87.429H5.42054C2.42816 87.429 0 89.852 0 92.838V92.9486C0 95.9346 2.42816 98.3576 5.42054 98.3576H47.203C50.1954 98.3576 52.6236 100.781 52.6236 103.767V103.877C52.6236 106.863 50.1954 109.286 47.203 109.286H34.1051C31.1631 109.286 28.7853 111.659 28.7853 114.595V114.705C28.7853 117.641 31.1631 120.014 34.1051 120.014L291.595 123C294.537 123 296.915 120.627 296.915 117.692V117.581C296.915 114.645 294.537 112.272 291.595 112.272H285.711C282.719 112.272 280.29 109.849 280.29 106.863V106.753C280.29 103.767 282.719 101.344 285.711 101.344H305.61C308.602 101.344 311.03 98.9208 311.03 95.9348V95.8242C311.03 92.8382 308.602 90.4152 305.61 90.4152H260.764C257.772 90.4152 255.344 87.9922 255.344 85.0062V84.8956C255.344 81.9096 257.772 79.4866 260.764 79.4866H305.791C308.784 79.4866 311.212 77.0636 311.212 74.0776V73.967C311.212 70.981 308.784 68.558 305.791 68.558H284.411C281.419 68.558 278.991 66.1349 278.991 63.1488V63.0382C278.991 60.0522 281.419 57.6292 284.411 57.6292H290.688C293.681 57.6292 296.109 55.2062 296.109 52.2202V52.1096C296.109 49.1236 293.681 46.7006 290.688 46.7006H288.149C285.157 46.7006 282.729 44.2776 282.729 41.2916V41.181C282.729 38.195 285.157 35.772 288.149 35.772H313.579C316.572 35.772 319 33.349 319 30.363V30.2524C319.01 27.2764 316.572 24.8434 313.579 24.8434Z" fill="white" fill-opacity="0.2"/>
</svg>
